{
  "header": {
    "PPQ": 96,
    "timeSignature": [
      4,
      4
    ],
    "bpm": 120,
    "name": ""
  },
  "tempo": [],
  "timeSignature": [
    {
      "absoluteTime": 0,
      "seconds": 0,
      "numerator": 4,
      "denominator": 2,
      "click": 36,
      "notesQ": 8
    },
    {
      "absoluteTime": 0,
      "seconds": 0,
      "numerator": 4,
      "denominator": 2,
      "click": 36,
      "notesQ": 8
    }
  ],
  "startTime": 0,
  "duration": 191.875,
  "tracks": [
    {
      "startTime": 0,
      "duration": 191.875,
      "length": 664,
      "notes": [
        {
          "name": "C#4",
          "midi": 61,
          "time": 0,
          "velocity": 0.7874015748031497,
          "duration": 4
        },
        {
          "name": "C#4",
          "midi": 61,
          "time": 4,
          "velocity": 0.7874015748031497,
          "duration": 4
        },
        {
          "name": "C#4",
          "midi": 61,
          "time": 8,
          "velocity": 0.7874015748031497,
          "duration": 4
        },
        {
          "name": "C#4",
          "midi": 61,
          "time": 12,
          "velocity": 0.7874015748031497,
          "duration": 4
        },
        {
          "name": "G3",
          "midi": 55,
          "time": 16,
          "velocity": 0.5826771653543307,
          "duration": 4
        },
        {
          "name": "B3",
          "midi": 59,
          "time": 16,
          "velocity": 0.6535433070866141,
          "duration": 4
        },
        {
          "name": "C#4",
          "midi": 61,
          "time": 16,
          "velocity": 0.7874015748031497,
          "duration": 4
        },
        {
          "name": "F#4",
          "midi": 66,
          "time": 16,
          "velocity": 0.984251968503937,
          "duration": 4
        },
        {
          "name": "C#5",
          "midi": 73,
          "time": 16,
          "velocity": 0.5039370078740157,
          "duration": 4
        },
        {
          "name": "G3",
          "midi": 55,
          "time": 20,
          "velocity": 0.5826771653543307,
          "duration": 4
        },
        {
          "name": "B3",
          "midi": 59,
          "time": 20,
          "velocity": 0.6535433070866141,
          "duration": 4
        },
        {
          "name": "C#4",
          "midi": 61,
          "time": 20,
          "velocity": 0.7874015748031497,
          "duration": 4
        },
        {
          "name": "F#4",
          "midi": 66,
          "time": 20,
          "velocity": 0.984251968503937,
          "duration": 4
        },
        {
          "name": "C#5",
          "midi": 73,
          "time": 20,
          "velocity": 0.5039370078740157,
          "duration": 4
        },
        {
          "name": "G3",
          "midi": 55,
          "time": 24,
          "velocity": 0.5826771653543307,
          "duration": 4
        },
        {
          "name": "B3",
          "midi": 59,
          "time": 24,
          "velocity": 0.6535433070866141,
          "duration": 4
        },
        {
          "name": "C#4",
          "midi": 61,
          "time": 24,
          "velocity": 0.7874015748031497,
          "duration": 4
        },
        {
          "name": "F#4",
          "midi": 66,
          "time": 24,
          "velocity": 0.984251968503937,
          "duration": 4
        },
        {
          "name": "C#5",
          "midi": 73,
          "time": 24,
          "velocity": 0.5039370078740157,
          "duration": 4
        },
        {
          "name": "G3",
          "midi": 55,
          "time": 28,
          "velocity": 0.5826771653543307,
          "duration": 4
        },
        {
          "name": "B3",
          "midi": 59,
          "time": 28,
          "velocity": 0.6535433070866141,
          "duration": 4
        },
        {
          "name": "C#4",
          "midi": 61,
          "time": 28,
          "velocity": 0.7874015748031497,
          "duration": 4
        },
        {
          "name": "F#4",
          "midi": 66,
          "time": 28,
          "velocity": 0.984251968503937,
          "duration": 4
        },
        {
          "name": "C#5",
          "midi": 73,
          "time": 28,
          "velocity": 0.5039370078740157,
          "duration": 4
        },
        {
          "name": "G3",
          "midi": 55,
          "time": 32,
          "velocity": 0.5826771653543307,
          "duration": 0.125
        },
        {
          "name": "B3",
          "midi": 59,
          "time": 32.25,
          "velocity": 0.6535433070866141,
          "duration": 0.125
        },
        {
          "name": "C#4",
          "midi": 61,
          "time": 32.5,
          "velocity": 0.7874015748031497,
          "duration": 0.125
        },
        {
          "name": "F#4",
          "midi": 66,
          "time": 32.75,
          "velocity": 0.984251968503937,
          "duration": 0.125
        },
        {
          "name": "C#5",
          "midi": 73,
          "time": 33,
          "velocity": 0.5039370078740157,
          "duration": 0.125
        },
        {
          "name": "G3",
          "midi": 55,
          "time": 33.25,
          "velocity": 0.5826771653543307,
          "duration": 0.125
        },
        {
          "name": "B3",
          "midi": 59,
          "time": 33.5,
          "velocity": 0.6535433070866141,
          "duration": 0.125
        },
        {
          "name": "C#4",
          "midi": 61,
          "time": 33.75,
          "velocity": 0.7874015748031497,
          "duration": 0.125
        },
        {
          "name": "F#4",
          "midi": 66,
          "time": 34,
          "velocity": 0.984251968503937,
          "duration": 0.125
        },
        {
          "name": "C#5",
          "midi": 73,
          "time": 34.25,
          "velocity": 0.5039370078740157,
          "duration": 0.125
        },
        {
          "name": "G3",
          "midi": 55,
          "time": 34.5,
          "velocity": 0.5826771653543307,
          "duration": 0.125
        },
        {
          "name": "B3",
          "midi": 59,
          "time": 34.75,
          "velocity": 0.6535433070866141,
          "duration": 0.125
        },
        {
          "name": "C#4",
          "midi": 61,
          "time": 35,
          "velocity": 0.7874015748031497,
          "duration": 0.125
        },
        {
          "name": "F#4",
          "midi": 66,
          "time": 35.25,
          "velocity": 0.984251968503937,
          "duration": 0.125
        },
        {
          "name": "C#5",
          "midi": 73,
          "time": 35.5,
          "velocity": 0.5039370078740157,
          "duration": 0.125
        },
        {
          "name": "G3",
          "midi": 55,
          "time": 35.75,
          "velocity": 0.5826771653543307,
          "duration": 0.125
        },
        {
          "name": "D4",
          "midi": 62,
          "time": 36,
          "velocity": 0.5826771653543307,
          "duration": 0.125
        },
        {
          "name": "F#4",
          "midi": 66,
          "time": 36.25,
          "velocity": 0.6535433070866141,
          "duration": 0.125
        },
        {
          "name": "G#4",
          "midi": 68,
          "time": 36.5,
          "velocity": 0.7874015748031497,
          "duration": 0.125
        },
        {
          "name": "C#5",
          "midi": 73,
          "time": 36.75,
          "velocity": 0.984251968503937,
          "duration": 0.125
        },
        {
          "name": "G#5",
          "midi": 80,
          "time": 37,
          "velocity": 0.5039370078740157,
          "duration": 0.125
        },
        {
          "name": "D4",
          "midi": 62,
          "time": 37.25,
          "velocity": 0.5826771653543307,
          "duration": 0.125
        },
        {
          "name": "F#4",
          "midi": 66,
          "time": 37.5,
          "velocity": 0.6535433070866141,
          "duration": 0.125
        },
        {
          "name": "G#4",
          "midi": 68,
          "time": 37.75,
          "velocity": 0.7874015748031497,
          "duration": 0.125
        },
        {
          "name": "C#5",
          "midi": 73,
          "time": 38,
          "velocity": 0.984251968503937,
          "duration": 0.125
        },
        {
          "name": "G#5",
          "midi": 80,
          "time": 38.25,
          "velocity": 0.5039370078740157,
          "duration": 0.125
        },
        {
          "name": "D4",
          "midi": 62,
          "time": 38.5,
          "velocity": 0.5826771653543307,
          "duration": 0.125
        },
        {
          "name": "F#4",
          "midi": 66,
          "time": 38.75,
          "velocity": 0.6535433070866141,
          "duration": 0.125
        },
        {
          "name": "G#4",
          "midi": 68,
          "time": 39,
          "velocity": 0.7874015748031497,
          "duration": 0.125
        },
        {
          "name": "C#5",
          "midi": 73,
          "time": 39.25,
          "velocity": 0.984251968503937,
          "duration": 0.125
        },
        {
          "name": "G#5",
          "midi": 80,
          "time": 39.5,
          "velocity": 0.5039370078740157,
          "duration": 0.125
        },
        {
          "name": "D4",
          "midi": 62,
          "time": 39.75,
          "velocity": 0.5826771653543307,
          "duration": 0.125
        },
        {
          "name": "G3",
          "midi": 55,
          "time": 40,
          "velocity": 0.5826771653543307,
          "duration": 0.125
        },
        {
          "name": "B3",
          "midi": 59,
          "time": 40.25,
          "velocity": 0.6535433070866141,
          "duration": 0.125
        },
        {
          "name": "C#4",
          "midi": 61,
          "time": 40.5,
          "velocity": 0.7874015748031497,
          "duration": 0.125
        },
        {
          "name": "F#4",
          "midi": 66,
          "time": 40.75,
          "velocity": 0.984251968503937,
          "duration": 0.125
        },
        {
          "name": "C#5",
          "midi": 73,
          "time": 41,
          "velocity": 0.5039370078740157,
          "duration": 0.125
        },
        {
          "name": "G3",
          "midi": 55,
          "time": 41.25,
          "velocity": 0.5826771653543307,
          "duration": 0.125
        },
        {
          "name": "B3",
          "midi": 59,
          "time": 41.5,
          "velocity": 0.6535433070866141,
          "duration": 0.125
        },
        {
          "name": "C#4",
          "midi": 61,
          "time": 41.75,
          "velocity": 0.7874015748031497,
          "duration": 0.125
        },
        {
          "name": "F#4",
          "midi": 66,
          "time": 42,
          "velocity": 0.984251968503937,
          "duration": 0.125
        },
        {
          "name": "C#5",
          "midi": 73,
          "time": 42.25,
          "velocity": 0.5039370078740157,
          "duration": 0.125
        },
        {
          "name": "G3",
          "midi": 55,
          "time": 42.5,
          "velocity": 0.5826771653543307,
          "duration": 0.125
        },
        {
          "name": "B3",
          "midi": 59,
          "time": 42.75,
          "velocity": 0.6535433070866141,
          "duration": 0.125
        },
        {
          "name": "C#4",
          "midi": 61,
          "time": 43,
          "velocity": 0.7874015748031497,
          "duration": 0.125
        },
        {
          "name": "F#4",
          "midi": 66,
          "time": 43.25,
          "velocity": 0.984251968503937,
          "duration": 0.125
        },
        {
          "name": "C#5",
          "midi": 73,
          "time": 43.5,
          "velocity": 0.5039370078740157,
          "duration": 0.125
        },
        {
          "name": "G3",
          "midi": 55,
          "time": 43.75,
          "velocity": 0.5826771653543307,
          "duration": 0.125
        },
        {
          "name": "D4",
          "midi": 62,
          "time": 44,
          "velocity": 0.5826771653543307,
          "duration": 0.125
        },
        {
          "name": "F#4",
          "midi": 66,
          "time": 44.25,
          "velocity": 0.6535433070866141,
          "duration": 0.125
        },
        {
          "name": "G#4",
          "midi": 68,
          "time": 44.5,
          "velocity": 0.7874015748031497,
          "duration": 0.125
        },
        {
          "name": "C#5",
          "midi": 73,
          "time": 44.75,
          "velocity": 0.984251968503937,
          "duration": 0.125
        },
        {
          "name": "G#5",
          "midi": 80,
          "time": 45,
          "velocity": 0.5039370078740157,
          "duration": 0.125
        },
        {
          "name": "D4",
          "midi": 62,
          "time": 45.25,
          "velocity": 0.5826771653543307,
          "duration": 0.125
        },
        {
          "name": "F#4",
          "midi": 66,
          "time": 45.5,
          "velocity": 0.6535433070866141,
          "duration": 0.125
        },
        {
          "name": "G#4",
          "midi": 68,
          "time": 45.75,
          "velocity": 0.7874015748031497,
          "duration": 0.125
        },
        {
          "name": "C#5",
          "midi": 73,
          "time": 46,
          "velocity": 0.984251968503937,
          "duration": 0.125
        },
        {
          "name": "G#5",
          "midi": 80,
          "time": 46.25,
          "velocity": 0.5039370078740157,
          "duration": 0.125
        },
        {
          "name": "D4",
          "midi": 62,
          "time": 46.5,
          "velocity": 0.5826771653543307,
          "duration": 0.125
        },
        {
          "name": "F#4",
          "midi": 66,
          "time": 46.75,
          "velocity": 0.6535433070866141,
          "duration": 0.125
        },
        {
          "name": "G#4",
          "midi": 68,
          "time": 47,
          "velocity": 0.7874015748031497,
          "duration": 0.125
        },
        {
          "name": "C#5",
          "midi": 73,
          "time": 47.25,
          "velocity": 0.984251968503937,
          "duration": 0.125
        },
        {
          "name": "G#5",
          "midi": 80,
          "time": 47.5,
          "velocity": 0.5039370078740157,
          "duration": 0.125
        },
        {
          "name": "D4",
          "midi": 62,
          "time": 47.75,
          "velocity": 0.5826771653543307,
          "duration": 0.125
        },
        {
          "name": "A3",
          "midi": 57,
          "time": 48,
          "velocity": 0.5826771653543307,
          "duration": 0.125
        },
        {
          "name": "C#4",
          "midi": 61,
          "time": 48.25,
          "velocity": 0.6535433070866141,
          "duration": 0.125
        },
        {
          "name": "D#4",
          "midi": 63,
          "time": 48.5,
          "velocity": 0.7874015748031497,
          "duration": 0.125
        },
        {
          "name": "G#4",
          "midi": 68,
          "time": 48.75,
          "velocity": 0.984251968503937,
          "duration": 0.125
        },
        {
          "name": "D#5",
          "midi": 75,
          "time": 49,
          "velocity": 0.5039370078740157,
          "duration": 0.125
        },
        {
          "name": "A3",
          "midi": 57,
          "time": 49.25,
          "velocity": 0.5826771653543307,
          "duration": 0.125
        },
        {
          "name": "C#4",
          "midi": 61,
          "time": 49.5,
          "velocity": 0.6535433070866141,
          "duration": 0.125
        },
        {
          "name": "D#4",
          "midi": 63,
          "time": 49.75,
          "velocity": 0.7874015748031497,
          "duration": 0.125
        },
        {
          "name": "G#4",
          "midi": 68,
          "time": 50,
          "velocity": 0.984251968503937,
          "duration": 0.125
        },
        {
          "name": "D#5",
          "midi": 75,
          "time": 50.25,
          "velocity": 0.5039370078740157,
          "duration": 0.125
        },
        {
          "name": "A3",
          "midi": 57,
          "time": 50.5,
          "velocity": 0.5826771653543307,
          "duration": 0.125
        },
        {
          "name": "C#4",
          "midi": 61,
          "time": 50.75,
          "velocity": 0.6535433070866141,
          "duration": 0.125
        },
        {
          "name": "D#4",
          "midi": 63,
          "time": 51,
          "velocity": 0.7874015748031497,
          "duration": 0.125
        },
        {
          "name": "G#4",
          "midi": 68,
          "time": 51.25,
          "velocity": 0.984251968503937,
          "duration": 0.125
        },
        {
          "name": "D#5",
          "midi": 75,
          "time": 51.5,
          "velocity": 0.5039370078740157,
          "duration": 0.125
        },
        {
          "name": "A3",
          "midi": 57,
          "time": 51.75,
          "velocity": 0.5826771653543307,
          "duration": 0.125
        },
        {
          "name": "D3",
          "midi": 50,
          "time": 52,
          "velocity": 0.5826771653543307,
          "duration": 0.125
        },
        {
          "name": "F#3",
          "midi": 54,
          "time": 52.25,
          "velocity": 0.6535433070866141,
          "duration": 0.125
        },
        {
          "name": "G#3",
          "midi": 56,
          "time": 52.5,
          "velocity": 0.7874015748031497,
          "duration": 0.125
        },
        {
          "name": "C#4",
          "midi": 61,
          "time": 52.75,
          "velocity": 0.984251968503937,
          "duration": 0.125
        },
        {
          "name": "G#4",
          "midi": 68,
          "time": 53,
          "velocity": 0.5039370078740157,
          "duration": 0.125
        },
        {
          "name": "D3",
          "midi": 50,
          "time": 53.25,
          "velocity": 0.5826771653543307,
          "duration": 0.125
        },
        {
          "name": "F#3",
          "midi": 54,
          "time": 53.5,
          "velocity": 0.6535433070866141,
          "duration": 0.125
        },
        {
          "name": "G#3",
          "midi": 56,
          "time": 53.75,
          "velocity": 0.7874015748031497,
          "duration": 0.125
        },
        {
          "name": "C#4",
          "midi": 61,
          "time": 54,
          "velocity": 0.984251968503937,
          "duration": 0.125
        },
        {
          "name": "G#4",
          "midi": 68,
          "time": 54.25,
          "velocity": 0.5039370078740157,
          "duration": 0.125
        },
        {
          "name": "D3",
          "midi": 50,
          "time": 54.5,
          "velocity": 0.5826771653543307,
          "duration": 0.125
        },
        {
          "name": "F#3",
          "midi": 54,
          "time": 54.75,
          "velocity": 0.6535433070866141,
          "duration": 0.125
        },
        {
          "name": "G#3",
          "midi": 56,
          "time": 55,
          "velocity": 0.7874015748031497,
          "duration": 0.125
        },
        {
          "name": "C#4",
          "midi": 61,
          "time": 55.25,
          "velocity": 0.984251968503937,
          "duration": 0.125
        },
        {
          "name": "G#4",
          "midi": 68,
          "time": 55.5,
          "velocity": 0.5039370078740157,
          "duration": 0.125
        },
        {
          "name": "D3",
          "midi": 50,
          "time": 55.75,
          "velocity": 0.5826771653543307,
          "duration": 0.125
        },
        {
          "name": "C3",
          "midi": 48,
          "time": 56,
          "velocity": 0.5826771653543307,
          "duration": 0.125
        },
        {
          "name": "E3",
          "midi": 52,
          "time": 56.25,
          "velocity": 0.6535433070866141,
          "duration": 0.125
        },
        {
          "name": "F#3",
          "midi": 54,
          "time": 56.5,
          "velocity": 0.7874015748031497,
          "duration": 0.125
        },
        {
          "name": "B3",
          "midi": 59,
          "time": 56.75,
          "velocity": 0.984251968503937,
          "duration": 0.125
        },
        {
          "name": "F#4",
          "midi": 66,
          "time": 57,
          "velocity": 0.5039370078740157,
          "duration": 0.125
        },
        {
          "name": "C3",
          "midi": 48,
          "time": 57.25,
          "velocity": 0.5826771653543307,
          "duration": 0.125
        },
        {
          "name": "E3",
          "midi": 52,
          "time": 57.5,
          "velocity": 0.6535433070866141,
          "duration": 0.125
        },
        {
          "name": "F#3",
          "midi": 54,
          "time": 57.75,
          "velocity": 0.7874015748031497,
          "duration": 0.125
        },
        {
          "name": "B3",
          "midi": 59,
          "time": 58,
          "velocity": 0.984251968503937,
          "duration": 0.125
        },
        {
          "name": "F#4",
          "midi": 66,
          "time": 58.25,
          "velocity": 0.5039370078740157,
          "duration": 0.125
        },
        {
          "name": "C3",
          "midi": 48,
          "time": 58.5,
          "velocity": 0.5826771653543307,
          "duration": 0.125
        },
        {
          "name": "E3",
          "midi": 52,
          "time": 58.75,
          "velocity": 0.6535433070866141,
          "duration": 0.125
        },
        {
          "name": "F#3",
          "midi": 54,
          "time": 59,
          "velocity": 0.7874015748031497,
          "duration": 0.125
        },
        {
          "name": "B3",
          "midi": 59,
          "time": 59.25,
          "velocity": 0.984251968503937,
          "duration": 0.125
        },
        {
          "name": "F#4",
          "midi": 66,
          "time": 59.5,
          "velocity": 0.5039370078740157,
          "duration": 0.125
        },
        {
          "name": "C3",
          "midi": 48,
          "time": 59.75,
          "velocity": 0.5826771653543307,
          "duration": 0.125
        },
        {
          "name": "B2",
          "midi": 47,
          "time": 60,
          "velocity": 0.5826771653543307,
          "duration": 0.125
        },
        {
          "name": "D#3",
          "midi": 51,
          "time": 60.25,
          "velocity": 0.6535433070866141,
          "duration": 0.125
        },
        {
          "name": "F3",
          "midi": 53,
          "time": 60.5,
          "velocity": 0.7874015748031497,
          "duration": 0.125
        },
        {
          "name": "A#3",
          "midi": 58,
          "time": 60.75,
          "velocity": 0.984251968503937,
          "duration": 0.125
        },
        {
          "name": "F4",
          "midi": 65,
          "time": 61,
          "velocity": 0.5039370078740157,
          "duration": 0.125
        },
        {
          "name": "B2",
          "midi": 47,
          "time": 61.25,
          "velocity": 0.5826771653543307,
          "duration": 0.125
        },
        {
          "name": "D#3",
          "midi": 51,
          "time": 61.5,
          "velocity": 0.6535433070866141,
          "duration": 0.125
        },
        {
          "name": "F3",
          "midi": 53,
          "time": 61.75,
          "velocity": 0.7874015748031497,
          "duration": 0.125
        },
        {
          "name": "A#3",
          "midi": 58,
          "time": 62,
          "velocity": 0.984251968503937,
          "duration": 0.125
        },
        {
          "name": "F4",
          "midi": 65,
          "time": 62.25,
          "velocity": 0.5039370078740157,
          "duration": 0.125
        },
        {
          "name": "B2",
          "midi": 47,
          "time": 62.5,
          "velocity": 0.5826771653543307,
          "duration": 0.125
        },
        {
          "name": "D#3",
          "midi": 51,
          "time": 62.75,
          "velocity": 0.6535433070866141,
          "duration": 0.125
        },
        {
          "name": "F3",
          "midi": 53,
          "time": 63,
          "velocity": 0.7874015748031497,
          "duration": 0.125
        },
        {
          "name": "A#3",
          "midi": 58,
          "time": 63.25,
          "velocity": 0.984251968503937,
          "duration": 0.125
        },
        {
          "name": "F4",
          "midi": 65,
          "time": 63.5,
          "velocity": 0.5039370078740157,
          "duration": 0.125
        },
        {
          "name": "B2",
          "midi": 47,
          "time": 63.75,
          "velocity": 0.5826771653543307,
          "duration": 0.125
        },
        {
          "name": "G3",
          "midi": 55,
          "time": 64,
          "velocity": 0.5826771653543307,
          "duration": 0.125
        },
        {
          "name": "B3",
          "midi": 59,
          "time": 64.25,
          "velocity": 0.6535433070866141,
          "duration": 0.125
        },
        {
          "name": "C#4",
          "midi": 61,
          "time": 64.5,
          "velocity": 0.7874015748031497,
          "duration": 0.125
        },
        {
          "name": "F#4",
          "midi": 66,
          "time": 64.75,
          "velocity": 0.984251968503937,
          "duration": 0.125
        },
        {
          "name": "C#5",
          "midi": 73,
          "time": 65,
          "velocity": 0.5039370078740157,
          "duration": 0.125
        },
        {
          "name": "G3",
          "midi": 55,
          "time": 65.25,
          "velocity": 0.5826771653543307,
          "duration": 0.125
        },
        {
          "name": "B3",
          "midi": 59,
          "time": 65.5,
          "velocity": 0.6535433070866141,
          "duration": 0.125
        },
        {
          "name": "C#4",
          "midi": 61,
          "time": 65.75,
          "velocity": 0.7874015748031497,
          "duration": 0.125
        },
        {
          "name": "F#4",
          "midi": 66,
          "time": 66,
          "velocity": 0.984251968503937,
          "duration": 0.125
        },
        {
          "name": "C#5",
          "midi": 73,
          "time": 66.25,
          "velocity": 0.5039370078740157,
          "duration": 0.125
        },
        {
          "name": "G3",
          "midi": 55,
          "time": 66.5,
          "velocity": 0.5826771653543307,
          "duration": 0.125
        },
        {
          "name": "B3",
          "midi": 59,
          "time": 66.75,
          "velocity": 0.6535433070866141,
          "duration": 0.125
        },
        {
          "name": "C#4",
          "midi": 61,
          "time": 67,
          "velocity": 0.7874015748031497,
          "duration": 0.125
        },
        {
          "name": "F#4",
          "midi": 66,
          "time": 67.25,
          "velocity": 0.984251968503937,
          "duration": 0.125
        },
        {
          "name": "C#5",
          "midi": 73,
          "time": 67.5,
          "velocity": 0.5039370078740157,
          "duration": 0.125
        },
        {
          "name": "G3",
          "midi": 55,
          "time": 67.75,
          "velocity": 0.5826771653543307,
          "duration": 0.125
        },
        {
          "name": "D4",
          "midi": 62,
          "time": 68,
          "velocity": 0.5826771653543307,
          "duration": 0.125
        },
        {
          "name": "F#4",
          "midi": 66,
          "time": 68.25,
          "velocity": 0.6535433070866141,
          "duration": 0.125
        },
        {
          "name": "G#4",
          "midi": 68,
          "time": 68.5,
          "velocity": 0.7874015748031497,
          "duration": 0.125
        },
        {
          "name": "C#5",
          "midi": 73,
          "time": 68.75,
          "velocity": 0.984251968503937,
          "duration": 0.125
        },
        {
          "name": "G#5",
          "midi": 80,
          "time": 69,
          "velocity": 0.5039370078740157,
          "duration": 0.125
        },
        {
          "name": "D4",
          "midi": 62,
          "time": 69.25,
          "velocity": 0.5826771653543307,
          "duration": 0.125
        },
        {
          "name": "F#4",
          "midi": 66,
          "time": 69.5,
          "velocity": 0.6535433070866141,
          "duration": 0.125
        },
        {
          "name": "G#4",
          "midi": 68,
          "time": 69.75,
          "velocity": 0.7874015748031497,
          "duration": 0.125
        },
        {
          "name": "C#5",
          "midi": 73,
          "time": 70,
          "velocity": 0.984251968503937,
          "duration": 0.125
        },
        {
          "name": "G#5",
          "midi": 80,
          "time": 70.25,
          "velocity": 0.5039370078740157,
          "duration": 0.125
        },
        {
          "name": "D4",
          "midi": 62,
          "time": 70.5,
          "velocity": 0.5826771653543307,
          "duration": 0.125
        },
        {
          "name": "F#4",
          "midi": 66,
          "time": 70.75,
          "velocity": 0.6535433070866141,
          "duration": 0.125
        },
        {
          "name": "G#4",
          "midi": 68,
          "time": 71,
          "velocity": 0.7874015748031497,
          "duration": 0.125
        },
        {
          "name": "C#5",
          "midi": 73,
          "time": 71.25,
          "velocity": 0.984251968503937,
          "duration": 0.125
        },
        {
          "name": "G#5",
          "midi": 80,
          "time": 71.5,
          "velocity": 0.5039370078740157,
          "duration": 0.125
        },
        {
          "name": "D4",
          "midi": 62,
          "time": 71.75,
          "velocity": 0.5826771653543307,
          "duration": 0.125
        },
        {
          "name": "G3",
          "midi": 55,
          "time": 72,
          "velocity": 0.5826771653543307,
          "duration": 0.125
        },
        {
          "name": "B3",
          "midi": 59,
          "time": 72.25,
          "velocity": 0.6535433070866141,
          "duration": 0.125
        },
        {
          "name": "C#4",
          "midi": 61,
          "time": 72.5,
          "velocity": 0.7874015748031497,
          "duration": 0.125
        },
        {
          "name": "F#4",
          "midi": 66,
          "time": 72.75,
          "velocity": 0.984251968503937,
          "duration": 0.125
        },
        {
          "name": "C#5",
          "midi": 73,
          "time": 73,
          "velocity": 0.5039370078740157,
          "duration": 0.125
        },
        {
          "name": "G3",
          "midi": 55,
          "time": 73.25,
          "velocity": 0.5826771653543307,
          "duration": 0.125
        },
        {
          "name": "B3",
          "midi": 59,
          "time": 73.5,
          "velocity": 0.6535433070866141,
          "duration": 0.125
        },
        {
          "name": "C#4",
          "midi": 61,
          "time": 73.75,
          "velocity": 0.7874015748031497,
          "duration": 0.125
        },
        {
          "name": "F#4",
          "midi": 66,
          "time": 74,
          "velocity": 0.984251968503937,
          "duration": 0.125
        },
        {
          "name": "C#5",
          "midi": 73,
          "time": 74.25,
          "velocity": 0.5039370078740157,
          "duration": 0.125
        },
        {
          "name": "G3",
          "midi": 55,
          "time": 74.5,
          "velocity": 0.5826771653543307,
          "duration": 0.125
        },
        {
          "name": "B3",
          "midi": 59,
          "time": 74.75,
          "velocity": 0.6535433070866141,
          "duration": 0.125
        },
        {
          "name": "C#4",
          "midi": 61,
          "time": 75,
          "velocity": 0.7874015748031497,
          "duration": 0.125
        },
        {
          "name": "F#4",
          "midi": 66,
          "time": 75.25,
          "velocity": 0.984251968503937,
          "duration": 0.125
        },
        {
          "name": "C#5",
          "midi": 73,
          "time": 75.5,
          "velocity": 0.5039370078740157,
          "duration": 0.125
        },
        {
          "name": "G3",
          "midi": 55,
          "time": 75.75,
          "velocity": 0.5826771653543307,
          "duration": 0.125
        },
        {
          "name": "D4",
          "midi": 62,
          "time": 76,
          "velocity": 0.5826771653543307,
          "duration": 0.125
        },
        {
          "name": "F#4",
          "midi": 66,
          "time": 76.25,
          "velocity": 0.6535433070866141,
          "duration": 0.125
        },
        {
          "name": "G#4",
          "midi": 68,
          "time": 76.5,
          "velocity": 0.7874015748031497,
          "duration": 0.125
        },
        {
          "name": "C#5",
          "midi": 73,
          "time": 76.75,
          "velocity": 0.984251968503937,
          "duration": 0.125
        },
        {
          "name": "G#5",
          "midi": 80,
          "time": 77,
          "velocity": 0.5039370078740157,
          "duration": 0.125
        },
        {
          "name": "D4",
          "midi": 62,
          "time": 77.25,
          "velocity": 0.5826771653543307,
          "duration": 0.125
        },
        {
          "name": "F#4",
          "midi": 66,
          "time": 77.5,
          "velocity": 0.6535433070866141,
          "duration": 0.125
        },
        {
          "name": "G#4",
          "midi": 68,
          "time": 77.75,
          "velocity": 0.7874015748031497,
          "duration": 0.125
        },
        {
          "name": "C#5",
          "midi": 73,
          "time": 78,
          "velocity": 0.984251968503937,
          "duration": 0.125
        },
        {
          "name": "G#5",
          "midi": 80,
          "time": 78.25,
          "velocity": 0.5039370078740157,
          "duration": 0.125
        },
        {
          "name": "D4",
          "midi": 62,
          "time": 78.5,
          "velocity": 0.5826771653543307,
          "duration": 0.125
        },
        {
          "name": "F#4",
          "midi": 66,
          "time": 78.75,
          "velocity": 0.6535433070866141,
          "duration": 0.125
        },
        {
          "name": "G#4",
          "midi": 68,
          "time": 79,
          "velocity": 0.7874015748031497,
          "duration": 0.125
        },
        {
          "name": "C#5",
          "midi": 73,
          "time": 79.25,
          "velocity": 0.984251968503937,
          "duration": 0.125
        },
        {
          "name": "G#5",
          "midi": 80,
          "time": 79.5,
          "velocity": 0.5039370078740157,
          "duration": 0.125
        },
        {
          "name": "D4",
          "midi": 62,
          "time": 79.75,
          "velocity": 0.5826771653543307,
          "duration": 0.125
        },
        {
          "name": "A3",
          "midi": 57,
          "time": 80,
          "velocity": 0.5826771653543307,
          "duration": 0.125
        },
        {
          "name": "C#4",
          "midi": 61,
          "time": 80.25,
          "velocity": 0.6535433070866141,
          "duration": 0.125
        },
        {
          "name": "D#4",
          "midi": 63,
          "time": 80.5,
          "velocity": 0.7874015748031497,
          "duration": 0.125
        },
        {
          "name": "G#4",
          "midi": 68,
          "time": 80.75,
          "velocity": 0.984251968503937,
          "duration": 0.125
        },
        {
          "name": "D#5",
          "midi": 75,
          "time": 81,
          "velocity": 0.5039370078740157,
          "duration": 0.125
        },
        {
          "name": "A3",
          "midi": 57,
          "time": 81.25,
          "velocity": 0.5826771653543307,
          "duration": 0.125
        },
        {
          "name": "C#4",
          "midi": 61,
          "time": 81.5,
          "velocity": 0.6535433070866141,
          "duration": 0.125
        },
        {
          "name": "D#4",
          "midi": 63,
          "time": 81.75,
          "velocity": 0.7874015748031497,
          "duration": 0.125
        },
        {
          "name": "G#4",
          "midi": 68,
          "time": 82,
          "velocity": 0.984251968503937,
          "duration": 0.125
        },
        {
          "name": "D#5",
          "midi": 75,
          "time": 82.25,
          "velocity": 0.5039370078740157,
          "duration": 0.125
        },
        {
          "name": "A3",
          "midi": 57,
          "time": 82.5,
          "velocity": 0.5826771653543307,
          "duration": 0.125
        },
        {
          "name": "C#4",
          "midi": 61,
          "time": 82.75,
          "velocity": 0.6535433070866141,
          "duration": 0.125
        },
        {
          "name": "D#4",
          "midi": 63,
          "time": 83,
          "velocity": 0.7874015748031497,
          "duration": 0.125
        },
        {
          "name": "G#4",
          "midi": 68,
          "time": 83.25,
          "velocity": 0.984251968503937,
          "duration": 0.125
        },
        {
          "name": "D#5",
          "midi": 75,
          "time": 83.5,
          "velocity": 0.5039370078740157,
          "duration": 0.125
        },
        {
          "name": "A3",
          "midi": 57,
          "time": 83.75,
          "velocity": 0.5826771653543307,
          "duration": 0.125
        },
        {
          "name": "D3",
          "midi": 50,
          "time": 84,
          "velocity": 0.5826771653543307,
          "duration": 0.125
        },
        {
          "name": "F#3",
          "midi": 54,
          "time": 84.25,
          "velocity": 0.6535433070866141,
          "duration": 0.125
        },
        {
          "name": "G#3",
          "midi": 56,
          "time": 84.5,
          "velocity": 0.7874015748031497,
          "duration": 0.125
        },
        {
          "name": "C#4",
          "midi": 61,
          "time": 84.75,
          "velocity": 0.984251968503937,
          "duration": 0.125
        },
        {
          "name": "G#4",
          "midi": 68,
          "time": 85,
          "velocity": 0.5039370078740157,
          "duration": 0.125
        },
        {
          "name": "D3",
          "midi": 50,
          "time": 85.25,
          "velocity": 0.5826771653543307,
          "duration": 0.125
        },
        {
          "name": "F#3",
          "midi": 54,
          "time": 85.5,
          "velocity": 0.6535433070866141,
          "duration": 0.125
        },
        {
          "name": "G#3",
          "midi": 56,
          "time": 85.75,
          "velocity": 0.7874015748031497,
          "duration": 0.125
        },
        {
          "name": "C#4",
          "midi": 61,
          "time": 86,
          "velocity": 0.984251968503937,
          "duration": 0.125
        },
        {
          "name": "G#4",
          "midi": 68,
          "time": 86.25,
          "velocity": 0.5039370078740157,
          "duration": 0.125
        },
        {
          "name": "D3",
          "midi": 50,
          "time": 86.5,
          "velocity": 0.5826771653543307,
          "duration": 0.125
        },
        {
          "name": "F#3",
          "midi": 54,
          "time": 86.75,
          "velocity": 0.6535433070866141,
          "duration": 0.125
        },
        {
          "name": "G#3",
          "midi": 56,
          "time": 87,
          "velocity": 0.7874015748031497,
          "duration": 0.125
        },
        {
          "name": "C#4",
          "midi": 61,
          "time": 87.25,
          "velocity": 0.984251968503937,
          "duration": 0.125
        },
        {
          "name": "G#4",
          "midi": 68,
          "time": 87.5,
          "velocity": 0.5039370078740157,
          "duration": 0.125
        },
        {
          "name": "D3",
          "midi": 50,
          "time": 87.75,
          "velocity": 0.5826771653543307,
          "duration": 0.125
        },
        {
          "name": "C3",
          "midi": 48,
          "time": 88,
          "velocity": 0.5826771653543307,
          "duration": 0.125
        },
        {
          "name": "E3",
          "midi": 52,
          "time": 88.25,
          "velocity": 0.6535433070866141,
          "duration": 0.125
        },
        {
          "name": "F#3",
          "midi": 54,
          "time": 88.5,
          "velocity": 0.7874015748031497,
          "duration": 0.125
        },
        {
          "name": "B3",
          "midi": 59,
          "time": 88.75,
          "velocity": 0.984251968503937,
          "duration": 0.125
        },
        {
          "name": "F#4",
          "midi": 66,
          "time": 89,
          "velocity": 0.5039370078740157,
          "duration": 0.125
        },
        {
          "name": "C3",
          "midi": 48,
          "time": 89.25,
          "velocity": 0.5826771653543307,
          "duration": 0.125
        },
        {
          "name": "E3",
          "midi": 52,
          "time": 89.5,
          "velocity": 0.6535433070866141,
          "duration": 0.125
        },
        {
          "name": "F#3",
          "midi": 54,
          "time": 89.75,
          "velocity": 0.7874015748031497,
          "duration": 0.125
        },
        {
          "name": "B3",
          "midi": 59,
          "time": 90,
          "velocity": 0.984251968503937,
          "duration": 0.125
        },
        {
          "name": "F#4",
          "midi": 66,
          "time": 90.25,
          "velocity": 0.5039370078740157,
          "duration": 0.125
        },
        {
          "name": "C3",
          "midi": 48,
          "time": 90.5,
          "velocity": 0.5826771653543307,
          "duration": 0.125
        },
        {
          "name": "E3",
          "midi": 52,
          "time": 90.75,
          "velocity": 0.6535433070866141,
          "duration": 0.125
        },
        {
          "name": "F#3",
          "midi": 54,
          "time": 91,
          "velocity": 0.7874015748031497,
          "duration": 0.125
        },
        {
          "name": "B3",
          "midi": 59,
          "time": 91.25,
          "velocity": 0.984251968503937,
          "duration": 0.125
        },
        {
          "name": "F#4",
          "midi": 66,
          "time": 91.5,
          "velocity": 0.5039370078740157,
          "duration": 0.125
        },
        {
          "name": "C3",
          "midi": 48,
          "time": 91.75,
          "velocity": 0.5826771653543307,
          "duration": 0.125
        },
        {
          "name": "B2",
          "midi": 47,
          "time": 92,
          "velocity": 0.5826771653543307,
          "duration": 0.125
        },
        {
          "name": "D#3",
          "midi": 51,
          "time": 92.25,
          "velocity": 0.6535433070866141,
          "duration": 0.125
        },
        {
          "name": "F3",
          "midi": 53,
          "time": 92.5,
          "velocity": 0.7874015748031497,
          "duration": 0.125
        },
        {
          "name": "A#3",
          "midi": 58,
          "time": 92.75,
          "velocity": 0.984251968503937,
          "duration": 0.125
        },
        {
          "name": "F4",
          "midi": 65,
          "time": 93,
          "velocity": 0.5039370078740157,
          "duration": 0.125
        },
        {
          "name": "B2",
          "midi": 47,
          "time": 93.25,
          "velocity": 0.5826771653543307,
          "duration": 0.125
        },
        {
          "name": "D#3",
          "midi": 51,
          "time": 93.5,
          "velocity": 0.6535433070866141,
          "duration": 0.125
        },
        {
          "name": "F3",
          "midi": 53,
          "time": 93.75,
          "velocity": 0.7874015748031497,
          "duration": 0.125
        },
        {
          "name": "A#3",
          "midi": 58,
          "time": 94,
          "velocity": 0.984251968503937,
          "duration": 0.125
        },
        {
          "name": "F4",
          "midi": 65,
          "time": 94.25,
          "velocity": 0.5039370078740157,
          "duration": 0.125
        },
        {
          "name": "B2",
          "midi": 47,
          "time": 94.5,
          "velocity": 0.5826771653543307,
          "duration": 0.125
        },
        {
          "name": "D#3",
          "midi": 51,
          "time": 94.75,
          "velocity": 0.6535433070866141,
          "duration": 0.125
        },
        {
          "name": "F3",
          "midi": 53,
          "time": 95,
          "velocity": 0.7874015748031497,
          "duration": 0.125
        },
        {
          "name": "A#3",
          "midi": 58,
          "time": 95.25,
          "velocity": 0.984251968503937,
          "duration": 0.125
        },
        {
          "name": "F4",
          "midi": 65,
          "time": 95.5,
          "velocity": 0.5039370078740157,
          "duration": 0.125
        },
        {
          "name": "B2",
          "midi": 47,
          "time": 95.75,
          "velocity": 0.5826771653543307,
          "duration": 0.125
        },
        {
          "name": "G3",
          "midi": 55,
          "time": 96,
          "velocity": 0.5826771653543307,
          "duration": 0.125
        },
        {
          "name": "B3",
          "midi": 59,
          "time": 96.25,
          "velocity": 0.6535433070866141,
          "duration": 0.125
        },
        {
          "name": "C#4",
          "midi": 61,
          "time": 96.5,
          "velocity": 0.7874015748031497,
          "duration": 0.125
        },
        {
          "name": "F#4",
          "midi": 66,
          "time": 96.75,
          "velocity": 0.984251968503937,
          "duration": 0.125
        },
        {
          "name": "C#5",
          "midi": 73,
          "time": 97,
          "velocity": 0.5039370078740157,
          "duration": 0.125
        },
        {
          "name": "G3",
          "midi": 55,
          "time": 97.25,
          "velocity": 0.5826771653543307,
          "duration": 0.125
        },
        {
          "name": "B3",
          "midi": 59,
          "time": 97.5,
          "velocity": 0.6535433070866141,
          "duration": 0.125
        },
        {
          "name": "C#4",
          "midi": 61,
          "time": 97.75,
          "velocity": 0.7874015748031497,
          "duration": 0.125
        },
        {
          "name": "F#4",
          "midi": 66,
          "time": 98,
          "velocity": 0.984251968503937,
          "duration": 0.125
        },
        {
          "name": "C#5",
          "midi": 73,
          "time": 98.25,
          "velocity": 0.5039370078740157,
          "duration": 0.125
        },
        {
          "name": "G3",
          "midi": 55,
          "time": 98.5,
          "velocity": 0.5826771653543307,
          "duration": 0.125
        },
        {
          "name": "B3",
          "midi": 59,
          "time": 98.75,
          "velocity": 0.6535433070866141,
          "duration": 0.125
        },
        {
          "name": "C#4",
          "midi": 61,
          "time": 99,
          "velocity": 0.7874015748031497,
          "duration": 0.125
        },
        {
          "name": "F#4",
          "midi": 66,
          "time": 99.25,
          "velocity": 0.984251968503937,
          "duration": 0.125
        },
        {
          "name": "C#5",
          "midi": 73,
          "time": 99.5,
          "velocity": 0.5039370078740157,
          "duration": 0.125
        },
        {
          "name": "G3",
          "midi": 55,
          "time": 99.75,
          "velocity": 0.5826771653543307,
          "duration": 0.125
        },
        {
          "name": "D4",
          "midi": 62,
          "time": 100,
          "velocity": 0.5826771653543307,
          "duration": 0.125
        },
        {
          "name": "F#4",
          "midi": 66,
          "time": 100.25,
          "velocity": 0.6535433070866141,
          "duration": 0.125
        },
        {
          "name": "G#4",
          "midi": 68,
          "time": 100.5,
          "velocity": 0.7874015748031497,
          "duration": 0.125
        },
        {
          "name": "C#5",
          "midi": 73,
          "time": 100.75,
          "velocity": 0.984251968503937,
          "duration": 0.125
        },
        {
          "name": "G#5",
          "midi": 80,
          "time": 101,
          "velocity": 0.5039370078740157,
          "duration": 0.125
        },
        {
          "name": "D4",
          "midi": 62,
          "time": 101.25,
          "velocity": 0.5826771653543307,
          "duration": 0.125
        },
        {
          "name": "F#4",
          "midi": 66,
          "time": 101.5,
          "velocity": 0.6535433070866141,
          "duration": 0.125
        },
        {
          "name": "G#4",
          "midi": 68,
          "time": 101.75,
          "velocity": 0.7874015748031497,
          "duration": 0.125
        },
        {
          "name": "C#5",
          "midi": 73,
          "time": 102,
          "velocity": 0.984251968503937,
          "duration": 0.125
        },
        {
          "name": "G#5",
          "midi": 80,
          "time": 102.25,
          "velocity": 0.5039370078740157,
          "duration": 0.125
        },
        {
          "name": "D4",
          "midi": 62,
          "time": 102.5,
          "velocity": 0.5826771653543307,
          "duration": 0.125
        },
        {
          "name": "F#4",
          "midi": 66,
          "time": 102.75,
          "velocity": 0.6535433070866141,
          "duration": 0.125
        },
        {
          "name": "G#4",
          "midi": 68,
          "time": 103,
          "velocity": 0.7874015748031497,
          "duration": 0.125
        },
        {
          "name": "C#5",
          "midi": 73,
          "time": 103.25,
          "velocity": 0.984251968503937,
          "duration": 0.125
        },
        {
          "name": "G#5",
          "midi": 80,
          "time": 103.5,
          "velocity": 0.5039370078740157,
          "duration": 0.125
        },
        {
          "name": "D4",
          "midi": 62,
          "time": 103.75,
          "velocity": 0.5826771653543307,
          "duration": 0.125
        },
        {
          "name": "G3",
          "midi": 55,
          "time": 104,
          "velocity": 0.5826771653543307,
          "duration": 0.125
        },
        {
          "name": "B3",
          "midi": 59,
          "time": 104.25,
          "velocity": 0.6535433070866141,
          "duration": 0.125
        },
        {
          "name": "C#4",
          "midi": 61,
          "time": 104.5,
          "velocity": 0.7874015748031497,
          "duration": 0.125
        },
        {
          "name": "F#4",
          "midi": 66,
          "time": 104.75,
          "velocity": 0.984251968503937,
          "duration": 0.125
        },
        {
          "name": "C#5",
          "midi": 73,
          "time": 105,
          "velocity": 0.5039370078740157,
          "duration": 0.125
        },
        {
          "name": "G3",
          "midi": 55,
          "time": 105.25,
          "velocity": 0.5826771653543307,
          "duration": 0.125
        },
        {
          "name": "B3",
          "midi": 59,
          "time": 105.5,
          "velocity": 0.6535433070866141,
          "duration": 0.125
        },
        {
          "name": "C#4",
          "midi": 61,
          "time": 105.75,
          "velocity": 0.7874015748031497,
          "duration": 0.125
        },
        {
          "name": "F#4",
          "midi": 66,
          "time": 106,
          "velocity": 0.984251968503937,
          "duration": 0.125
        },
        {
          "name": "C#5",
          "midi": 73,
          "time": 106.25,
          "velocity": 0.5039370078740157,
          "duration": 0.125
        },
        {
          "name": "G3",
          "midi": 55,
          "time": 106.5,
          "velocity": 0.5826771653543307,
          "duration": 0.125
        },
        {
          "name": "B3",
          "midi": 59,
          "time": 106.75,
          "velocity": 0.6535433070866141,
          "duration": 0.125
        },
        {
          "name": "C#4",
          "midi": 61,
          "time": 107,
          "velocity": 0.7874015748031497,
          "duration": 0.125
        },
        {
          "name": "F#4",
          "midi": 66,
          "time": 107.25,
          "velocity": 0.984251968503937,
          "duration": 0.125
        },
        {
          "name": "C#5",
          "midi": 73,
          "time": 107.5,
          "velocity": 0.5039370078740157,
          "duration": 0.125
        },
        {
          "name": "G3",
          "midi": 55,
          "time": 107.75,
          "velocity": 0.5826771653543307,
          "duration": 0.125
        },
        {
          "name": "D4",
          "midi": 62,
          "time": 108,
          "velocity": 0.5826771653543307,
          "duration": 0.125
        },
        {
          "name": "F#4",
          "midi": 66,
          "time": 108.25,
          "velocity": 0.6535433070866141,
          "duration": 0.125
        },
        {
          "name": "G#4",
          "midi": 68,
          "time": 108.5,
          "velocity": 0.7874015748031497,
          "duration": 0.125
        },
        {
          "name": "C#5",
          "midi": 73,
          "time": 108.75,
          "velocity": 0.984251968503937,
          "duration": 0.125
        },
        {
          "name": "G#5",
          "midi": 80,
          "time": 109,
          "velocity": 0.5039370078740157,
          "duration": 0.125
        },
        {
          "name": "D4",
          "midi": 62,
          "time": 109.25,
          "velocity": 0.5826771653543307,
          "duration": 0.125
        },
        {
          "name": "F#4",
          "midi": 66,
          "time": 109.5,
          "velocity": 0.6535433070866141,
          "duration": 0.125
        },
        {
          "name": "G#4",
          "midi": 68,
          "time": 109.75,
          "velocity": 0.7874015748031497,
          "duration": 0.125
        },
        {
          "name": "C#5",
          "midi": 73,
          "time": 110,
          "velocity": 0.984251968503937,
          "duration": 0.125
        },
        {
          "name": "G#5",
          "midi": 80,
          "time": 110.25,
          "velocity": 0.5039370078740157,
          "duration": 0.125
        },
        {
          "name": "D4",
          "midi": 62,
          "time": 110.5,
          "velocity": 0.5826771653543307,
          "duration": 0.125
        },
        {
          "name": "F#4",
          "midi": 66,
          "time": 110.75,
          "velocity": 0.6535433070866141,
          "duration": 0.125
        },
        {
          "name": "G#4",
          "midi": 68,
          "time": 111,
          "velocity": 0.7874015748031497,
          "duration": 0.125
        },
        {
          "name": "C#5",
          "midi": 73,
          "time": 111.25,
          "velocity": 0.984251968503937,
          "duration": 0.125
        },
        {
          "name": "G#5",
          "midi": 80,
          "time": 111.5,
          "velocity": 0.5039370078740157,
          "duration": 0.125
        },
        {
          "name": "D4",
          "midi": 62,
          "time": 111.75,
          "velocity": 0.5826771653543307,
          "duration": 0.125
        },
        {
          "name": "A3",
          "midi": 57,
          "time": 112,
          "velocity": 0.5826771653543307,
          "duration": 0.125
        },
        {
          "name": "C#4",
          "midi": 61,
          "time": 112.25,
          "velocity": 0.6535433070866141,
          "duration": 0.125
        },
        {
          "name": "D#4",
          "midi": 63,
          "time": 112.5,
          "velocity": 0.7874015748031497,
          "duration": 0.125
        },
        {
          "name": "G#4",
          "midi": 68,
          "time": 112.75,
          "velocity": 0.984251968503937,
          "duration": 0.125
        },
        {
          "name": "D#5",
          "midi": 75,
          "time": 113,
          "velocity": 0.5039370078740157,
          "duration": 0.125
        },
        {
          "name": "A3",
          "midi": 57,
          "time": 113.25,
          "velocity": 0.5826771653543307,
          "duration": 0.125
        },
        {
          "name": "C#4",
          "midi": 61,
          "time": 113.5,
          "velocity": 0.6535433070866141,
          "duration": 0.125
        },
        {
          "name": "D#4",
          "midi": 63,
          "time": 113.75,
          "velocity": 0.7874015748031497,
          "duration": 0.125
        },
        {
          "name": "G#4",
          "midi": 68,
          "time": 114,
          "velocity": 0.984251968503937,
          "duration": 0.125
        },
        {
          "name": "D#5",
          "midi": 75,
          "time": 114.25,
          "velocity": 0.5039370078740157,
          "duration": 0.125
        },
        {
          "name": "A3",
          "midi": 57,
          "time": 114.5,
          "velocity": 0.5826771653543307,
          "duration": 0.125
        },
        {
          "name": "C#4",
          "midi": 61,
          "time": 114.75,
          "velocity": 0.6535433070866141,
          "duration": 0.125
        },
        {
          "name": "D#4",
          "midi": 63,
          "time": 115,
          "velocity": 0.7874015748031497,
          "duration": 0.125
        },
        {
          "name": "G#4",
          "midi": 68,
          "time": 115.25,
          "velocity": 0.984251968503937,
          "duration": 0.125
        },
        {
          "name": "D#5",
          "midi": 75,
          "time": 115.5,
          "velocity": 0.5039370078740157,
          "duration": 0.125
        },
        {
          "name": "A3",
          "midi": 57,
          "time": 115.75,
          "velocity": 0.5826771653543307,
          "duration": 0.125
        },
        {
          "name": "D3",
          "midi": 50,
          "time": 116,
          "velocity": 0.5826771653543307,
          "duration": 0.125
        },
        {
          "name": "F#3",
          "midi": 54,
          "time": 116.25,
          "velocity": 0.6535433070866141,
          "duration": 0.125
        },
        {
          "name": "G#3",
          "midi": 56,
          "time": 116.5,
          "velocity": 0.7874015748031497,
          "duration": 0.125
        },
        {
          "name": "C#4",
          "midi": 61,
          "time": 116.75,
          "velocity": 0.984251968503937,
          "duration": 0.125
        },
        {
          "name": "G#4",
          "midi": 68,
          "time": 117,
          "velocity": 0.5039370078740157,
          "duration": 0.125
        },
        {
          "name": "D3",
          "midi": 50,
          "time": 117.25,
          "velocity": 0.5826771653543307,
          "duration": 0.125
        },
        {
          "name": "F#3",
          "midi": 54,
          "time": 117.5,
          "velocity": 0.6535433070866141,
          "duration": 0.125
        },
        {
          "name": "G#3",
          "midi": 56,
          "time": 117.75,
          "velocity": 0.7874015748031497,
          "duration": 0.125
        },
        {
          "name": "C#4",
          "midi": 61,
          "time": 118,
          "velocity": 0.984251968503937,
          "duration": 0.125
        },
        {
          "name": "G#4",
          "midi": 68,
          "time": 118.25,
          "velocity": 0.5039370078740157,
          "duration": 0.125
        },
        {
          "name": "D3",
          "midi": 50,
          "time": 118.5,
          "velocity": 0.5826771653543307,
          "duration": 0.125
        },
        {
          "name": "F#3",
          "midi": 54,
          "time": 118.75,
          "velocity": 0.6535433070866141,
          "duration": 0.125
        },
        {
          "name": "G#3",
          "midi": 56,
          "time": 119,
          "velocity": 0.7874015748031497,
          "duration": 0.125
        },
        {
          "name": "C#4",
          "midi": 61,
          "time": 119.25,
          "velocity": 0.984251968503937,
          "duration": 0.125
        },
        {
          "name": "G#4",
          "midi": 68,
          "time": 119.5,
          "velocity": 0.5039370078740157,
          "duration": 0.125
        },
        {
          "name": "D3",
          "midi": 50,
          "time": 119.75,
          "velocity": 0.5826771653543307,
          "duration": 0.125
        },
        {
          "name": "C3",
          "midi": 48,
          "time": 120,
          "velocity": 0.5826771653543307,
          "duration": 0.125
        },
        {
          "name": "E3",
          "midi": 52,
          "time": 120.25,
          "velocity": 0.6535433070866141,
          "duration": 0.125
        },
        {
          "name": "F#3",
          "midi": 54,
          "time": 120.5,
          "velocity": 0.7874015748031497,
          "duration": 0.125
        },
        {
          "name": "B3",
          "midi": 59,
          "time": 120.75,
          "velocity": 0.984251968503937,
          "duration": 0.125
        },
        {
          "name": "F#4",
          "midi": 66,
          "time": 121,
          "velocity": 0.5039370078740157,
          "duration": 0.125
        },
        {
          "name": "C3",
          "midi": 48,
          "time": 121.25,
          "velocity": 0.5826771653543307,
          "duration": 0.125
        },
        {
          "name": "E3",
          "midi": 52,
          "time": 121.5,
          "velocity": 0.6535433070866141,
          "duration": 0.125
        },
        {
          "name": "F#3",
          "midi": 54,
          "time": 121.75,
          "velocity": 0.7874015748031497,
          "duration": 0.125
        },
        {
          "name": "B3",
          "midi": 59,
          "time": 122,
          "velocity": 0.984251968503937,
          "duration": 0.125
        },
        {
          "name": "F#4",
          "midi": 66,
          "time": 122.25,
          "velocity": 0.5039370078740157,
          "duration": 0.125
        },
        {
          "name": "C3",
          "midi": 48,
          "time": 122.5,
          "velocity": 0.5826771653543307,
          "duration": 0.125
        },
        {
          "name": "E3",
          "midi": 52,
          "time": 122.75,
          "velocity": 0.6535433070866141,
          "duration": 0.125
        },
        {
          "name": "F#3",
          "midi": 54,
          "time": 123,
          "velocity": 0.7874015748031497,
          "duration": 0.125
        },
        {
          "name": "B3",
          "midi": 59,
          "time": 123.25,
          "velocity": 0.984251968503937,
          "duration": 0.125
        },
        {
          "name": "F#4",
          "midi": 66,
          "time": 123.5,
          "velocity": 0.5039370078740157,
          "duration": 0.125
        },
        {
          "name": "C3",
          "midi": 48,
          "time": 123.75,
          "velocity": 0.5826771653543307,
          "duration": 0.125
        },
        {
          "name": "B2",
          "midi": 47,
          "time": 124,
          "velocity": 0.5826771653543307,
          "duration": 0.125
        },
        {
          "name": "D#3",
          "midi": 51,
          "time": 124.25,
          "velocity": 0.6535433070866141,
          "duration": 0.125
        },
        {
          "name": "F3",
          "midi": 53,
          "time": 124.5,
          "velocity": 0.7874015748031497,
          "duration": 0.125
        },
        {
          "name": "A#3",
          "midi": 58,
          "time": 124.75,
          "velocity": 0.984251968503937,
          "duration": 0.125
        },
        {
          "name": "F4",
          "midi": 65,
          "time": 125,
          "velocity": 0.5039370078740157,
          "duration": 0.125
        },
        {
          "name": "B2",
          "midi": 47,
          "time": 125.25,
          "velocity": 0.5826771653543307,
          "duration": 0.125
        },
        {
          "name": "D#3",
          "midi": 51,
          "time": 125.5,
          "velocity": 0.6535433070866141,
          "duration": 0.125
        },
        {
          "name": "F3",
          "midi": 53,
          "time": 125.75,
          "velocity": 0.7874015748031497,
          "duration": 0.125
        },
        {
          "name": "A#3",
          "midi": 58,
          "time": 126,
          "velocity": 0.984251968503937,
          "duration": 0.125
        },
        {
          "name": "F4",
          "midi": 65,
          "time": 126.25,
          "velocity": 0.5039370078740157,
          "duration": 0.125
        },
        {
          "name": "B2",
          "midi": 47,
          "time": 126.5,
          "velocity": 0.5826771653543307,
          "duration": 0.125
        },
        {
          "name": "D#3",
          "midi": 51,
          "time": 126.75,
          "velocity": 0.6535433070866141,
          "duration": 0.125
        },
        {
          "name": "F3",
          "midi": 53,
          "time": 127,
          "velocity": 0.7874015748031497,
          "duration": 0.125
        },
        {
          "name": "A#3",
          "midi": 58,
          "time": 127.25,
          "velocity": 0.984251968503937,
          "duration": 0.125
        },
        {
          "name": "F4",
          "midi": 65,
          "time": 127.5,
          "velocity": 0.5039370078740157,
          "duration": 0.125
        },
        {
          "name": "B2",
          "midi": 47,
          "time": 127.75,
          "velocity": 0.5826771653543307,
          "duration": 0.125
        },
        {
          "name": "G3",
          "midi": 55,
          "time": 128,
          "velocity": 0.5826771653543307,
          "duration": 0.125
        },
        {
          "name": "B3",
          "midi": 59,
          "time": 128.25,
          "velocity": 0.6535433070866141,
          "duration": 0.125
        },
        {
          "name": "C#4",
          "midi": 61,
          "time": 128.5,
          "velocity": 0.7874015748031497,
          "duration": 0.125
        },
        {
          "name": "F#4",
          "midi": 66,
          "time": 128.75,
          "velocity": 0.984251968503937,
          "duration": 0.125
        },
        {
          "name": "C#5",
          "midi": 73,
          "time": 129,
          "velocity": 0.5039370078740157,
          "duration": 0.125
        },
        {
          "name": "G3",
          "midi": 55,
          "time": 129.25,
          "velocity": 0.5826771653543307,
          "duration": 0.125
        },
        {
          "name": "B3",
          "midi": 59,
          "time": 129.5,
          "velocity": 0.6535433070866141,
          "duration": 0.125
        },
        {
          "name": "C#4",
          "midi": 61,
          "time": 129.75,
          "velocity": 0.7874015748031497,
          "duration": 0.125
        },
        {
          "name": "F#4",
          "midi": 66,
          "time": 130,
          "velocity": 0.984251968503937,
          "duration": 0.125
        },
        {
          "name": "C#5",
          "midi": 73,
          "time": 130.25,
          "velocity": 0.5039370078740157,
          "duration": 0.125
        },
        {
          "name": "G3",
          "midi": 55,
          "time": 130.5,
          "velocity": 0.5826771653543307,
          "duration": 0.125
        },
        {
          "name": "B3",
          "midi": 59,
          "time": 130.75,
          "velocity": 0.6535433070866141,
          "duration": 0.125
        },
        {
          "name": "C#4",
          "midi": 61,
          "time": 131,
          "velocity": 0.7874015748031497,
          "duration": 0.125
        },
        {
          "name": "F#4",
          "midi": 66,
          "time": 131.25,
          "velocity": 0.984251968503937,
          "duration": 0.125
        },
        {
          "name": "C#5",
          "midi": 73,
          "time": 131.5,
          "velocity": 0.5039370078740157,
          "duration": 0.125
        },
        {
          "name": "G3",
          "midi": 55,
          "time": 131.75,
          "velocity": 0.5826771653543307,
          "duration": 0.125
        },
        {
          "name": "D4",
          "midi": 62,
          "time": 132,
          "velocity": 0.5826771653543307,
          "duration": 0.125
        },
        {
          "name": "F#4",
          "midi": 66,
          "time": 132.25,
          "velocity": 0.6535433070866141,
          "duration": 0.125
        },
        {
          "name": "G#4",
          "midi": 68,
          "time": 132.5,
          "velocity": 0.7874015748031497,
          "duration": 0.125
        },
        {
          "name": "C#5",
          "midi": 73,
          "time": 132.75,
          "velocity": 0.984251968503937,
          "duration": 0.125
        },
        {
          "name": "G#5",
          "midi": 80,
          "time": 133,
          "velocity": 0.5039370078740157,
          "duration": 0.125
        },
        {
          "name": "D4",
          "midi": 62,
          "time": 133.25,
          "velocity": 0.5826771653543307,
          "duration": 0.125
        },
        {
          "name": "F#4",
          "midi": 66,
          "time": 133.5,
          "velocity": 0.6535433070866141,
          "duration": 0.125
        },
        {
          "name": "G#4",
          "midi": 68,
          "time": 133.75,
          "velocity": 0.7874015748031497,
          "duration": 0.125
        },
        {
          "name": "C#5",
          "midi": 73,
          "time": 134,
          "velocity": 0.984251968503937,
          "duration": 0.125
        },
        {
          "name": "G#5",
          "midi": 80,
          "time": 134.25,
          "velocity": 0.5039370078740157,
          "duration": 0.125
        },
        {
          "name": "D4",
          "midi": 62,
          "time": 134.5,
          "velocity": 0.5826771653543307,
          "duration": 0.125
        },
        {
          "name": "F#4",
          "midi": 66,
          "time": 134.75,
          "velocity": 0.6535433070866141,
          "duration": 0.125
        },
        {
          "name": "G#4",
          "midi": 68,
          "time": 135,
          "velocity": 0.7874015748031497,
          "duration": 0.125
        },
        {
          "name": "C#5",
          "midi": 73,
          "time": 135.25,
          "velocity": 0.984251968503937,
          "duration": 0.125
        },
        {
          "name": "G#5",
          "midi": 80,
          "time": 135.5,
          "velocity": 0.5039370078740157,
          "duration": 0.125
        },
        {
          "name": "D4",
          "midi": 62,
          "time": 135.75,
          "velocity": 0.5826771653543307,
          "duration": 0.125
        },
        {
          "name": "G3",
          "midi": 55,
          "time": 136,
          "velocity": 0.5826771653543307,
          "duration": 0.125
        },
        {
          "name": "B3",
          "midi": 59,
          "time": 136.25,
          "velocity": 0.6535433070866141,
          "duration": 0.125
        },
        {
          "name": "C#4",
          "midi": 61,
          "time": 136.5,
          "velocity": 0.7874015748031497,
          "duration": 0.125
        },
        {
          "name": "F#4",
          "midi": 66,
          "time": 136.75,
          "velocity": 0.984251968503937,
          "duration": 0.125
        },
        {
          "name": "C#5",
          "midi": 73,
          "time": 137,
          "velocity": 0.5039370078740157,
          "duration": 0.125
        },
        {
          "name": "G3",
          "midi": 55,
          "time": 137.25,
          "velocity": 0.5826771653543307,
          "duration": 0.125
        },
        {
          "name": "B3",
          "midi": 59,
          "time": 137.5,
          "velocity": 0.6535433070866141,
          "duration": 0.125
        },
        {
          "name": "C#4",
          "midi": 61,
          "time": 137.75,
          "velocity": 0.7874015748031497,
          "duration": 0.125
        },
        {
          "name": "F#4",
          "midi": 66,
          "time": 138,
          "velocity": 0.984251968503937,
          "duration": 0.125
        },
        {
          "name": "C#5",
          "midi": 73,
          "time": 138.25,
          "velocity": 0.5039370078740157,
          "duration": 0.125
        },
        {
          "name": "G3",
          "midi": 55,
          "time": 138.5,
          "velocity": 0.5826771653543307,
          "duration": 0.125
        },
        {
          "name": "B3",
          "midi": 59,
          "time": 138.75,
          "velocity": 0.6535433070866141,
          "duration": 0.125
        },
        {
          "name": "C#4",
          "midi": 61,
          "time": 139,
          "velocity": 0.7874015748031497,
          "duration": 0.125
        },
        {
          "name": "F#4",
          "midi": 66,
          "time": 139.25,
          "velocity": 0.984251968503937,
          "duration": 0.125
        },
        {
          "name": "C#5",
          "midi": 73,
          "time": 139.5,
          "velocity": 0.5039370078740157,
          "duration": 0.125
        },
        {
          "name": "G3",
          "midi": 55,
          "time": 139.75,
          "velocity": 0.5826771653543307,
          "duration": 0.125
        },
        {
          "name": "D4",
          "midi": 62,
          "time": 140,
          "velocity": 0.5826771653543307,
          "duration": 0.125
        },
        {
          "name": "F#4",
          "midi": 66,
          "time": 140.25,
          "velocity": 0.6535433070866141,
          "duration": 0.125
        },
        {
          "name": "G#4",
          "midi": 68,
          "time": 140.5,
          "velocity": 0.7874015748031497,
          "duration": 0.125
        },
        {
          "name": "C#5",
          "midi": 73,
          "time": 140.75,
          "velocity": 0.984251968503937,
          "duration": 0.125
        },
        {
          "name": "G#5",
          "midi": 80,
          "time": 141,
          "velocity": 0.5039370078740157,
          "duration": 0.125
        },
        {
          "name": "D4",
          "midi": 62,
          "time": 141.25,
          "velocity": 0.5826771653543307,
          "duration": 0.125
        },
        {
          "name": "F#4",
          "midi": 66,
          "time": 141.5,
          "velocity": 0.6535433070866141,
          "duration": 0.125
        },
        {
          "name": "G#4",
          "midi": 68,
          "time": 141.75,
          "velocity": 0.7874015748031497,
          "duration": 0.125
        },
        {
          "name": "C#5",
          "midi": 73,
          "time": 142,
          "velocity": 0.984251968503937,
          "duration": 0.125
        },
        {
          "name": "G#5",
          "midi": 80,
          "time": 142.25,
          "velocity": 0.5039370078740157,
          "duration": 0.125
        },
        {
          "name": "D4",
          "midi": 62,
          "time": 142.5,
          "velocity": 0.5826771653543307,
          "duration": 0.125
        },
        {
          "name": "F#4",
          "midi": 66,
          "time": 142.75,
          "velocity": 0.6535433070866141,
          "duration": 0.125
        },
        {
          "name": "G#4",
          "midi": 68,
          "time": 143,
          "velocity": 0.7874015748031497,
          "duration": 0.125
        },
        {
          "name": "C#5",
          "midi": 73,
          "time": 143.25,
          "velocity": 0.984251968503937,
          "duration": 0.125
        },
        {
          "name": "G#5",
          "midi": 80,
          "time": 143.5,
          "velocity": 0.5039370078740157,
          "duration": 0.125
        },
        {
          "name": "D4",
          "midi": 62,
          "time": 143.75,
          "velocity": 0.5826771653543307,
          "duration": 0.125
        },
        {
          "name": "A3",
          "midi": 57,
          "time": 144,
          "velocity": 0.5826771653543307,
          "duration": 0.125
        },
        {
          "name": "C#4",
          "midi": 61,
          "time": 144.25,
          "velocity": 0.6535433070866141,
          "duration": 0.125
        },
        {
          "name": "D#4",
          "midi": 63,
          "time": 144.5,
          "velocity": 0.7874015748031497,
          "duration": 0.125
        },
        {
          "name": "G#4",
          "midi": 68,
          "time": 144.75,
          "velocity": 0.984251968503937,
          "duration": 0.125
        },
        {
          "name": "D#5",
          "midi": 75,
          "time": 145,
          "velocity": 0.5039370078740157,
          "duration": 0.125
        },
        {
          "name": "A3",
          "midi": 57,
          "time": 145.25,
          "velocity": 0.5826771653543307,
          "duration": 0.125
        },
        {
          "name": "C#4",
          "midi": 61,
          "time": 145.5,
          "velocity": 0.6535433070866141,
          "duration": 0.125
        },
        {
          "name": "D#4",
          "midi": 63,
          "time": 145.75,
          "velocity": 0.7874015748031497,
          "duration": 0.125
        },
        {
          "name": "G#4",
          "midi": 68,
          "time": 146,
          "velocity": 0.984251968503937,
          "duration": 0.125
        },
        {
          "name": "D#5",
          "midi": 75,
          "time": 146.25,
          "velocity": 0.5039370078740157,
          "duration": 0.125
        },
        {
          "name": "A3",
          "midi": 57,
          "time": 146.5,
          "velocity": 0.5826771653543307,
          "duration": 0.125
        },
        {
          "name": "C#4",
          "midi": 61,
          "time": 146.75,
          "velocity": 0.6535433070866141,
          "duration": 0.125
        },
        {
          "name": "D#4",
          "midi": 63,
          "time": 147,
          "velocity": 0.7874015748031497,
          "duration": 0.125
        },
        {
          "name": "G#4",
          "midi": 68,
          "time": 147.25,
          "velocity": 0.984251968503937,
          "duration": 0.125
        },
        {
          "name": "D#5",
          "midi": 75,
          "time": 147.5,
          "velocity": 0.5039370078740157,
          "duration": 0.125
        },
        {
          "name": "A3",
          "midi": 57,
          "time": 147.75,
          "velocity": 0.5826771653543307,
          "duration": 0.125
        },
        {
          "name": "D3",
          "midi": 50,
          "time": 148,
          "velocity": 0.5826771653543307,
          "duration": 0.125
        },
        {
          "name": "F#3",
          "midi": 54,
          "time": 148.25,
          "velocity": 0.6535433070866141,
          "duration": 0.125
        },
        {
          "name": "G#3",
          "midi": 56,
          "time": 148.5,
          "velocity": 0.7874015748031497,
          "duration": 0.125
        },
        {
          "name": "C#4",
          "midi": 61,
          "time": 148.75,
          "velocity": 0.984251968503937,
          "duration": 0.125
        },
        {
          "name": "G#4",
          "midi": 68,
          "time": 149,
          "velocity": 0.5039370078740157,
          "duration": 0.125
        },
        {
          "name": "D3",
          "midi": 50,
          "time": 149.25,
          "velocity": 0.5826771653543307,
          "duration": 0.125
        },
        {
          "name": "F#3",
          "midi": 54,
          "time": 149.5,
          "velocity": 0.6535433070866141,
          "duration": 0.125
        },
        {
          "name": "G#3",
          "midi": 56,
          "time": 149.75,
          "velocity": 0.7874015748031497,
          "duration": 0.125
        },
        {
          "name": "C#4",
          "midi": 61,
          "time": 150,
          "velocity": 0.984251968503937,
          "duration": 0.125
        },
        {
          "name": "G#4",
          "midi": 68,
          "time": 150.25,
          "velocity": 0.5039370078740157,
          "duration": 0.125
        },
        {
          "name": "D3",
          "midi": 50,
          "time": 150.5,
          "velocity": 0.5826771653543307,
          "duration": 0.125
        },
        {
          "name": "F#3",
          "midi": 54,
          "time": 150.75,
          "velocity": 0.6535433070866141,
          "duration": 0.125
        },
        {
          "name": "G#3",
          "midi": 56,
          "time": 151,
          "velocity": 0.7874015748031497,
          "duration": 0.125
        },
        {
          "name": "C#4",
          "midi": 61,
          "time": 151.25,
          "velocity": 0.984251968503937,
          "duration": 0.125
        },
        {
          "name": "G#4",
          "midi": 68,
          "time": 151.5,
          "velocity": 0.5039370078740157,
          "duration": 0.125
        },
        {
          "name": "D3",
          "midi": 50,
          "time": 151.75,
          "velocity": 0.5826771653543307,
          "duration": 0.125
        },
        {
          "name": "C3",
          "midi": 48,
          "time": 152,
          "velocity": 0.5826771653543307,
          "duration": 0.125
        },
        {
          "name": "E3",
          "midi": 52,
          "time": 152.25,
          "velocity": 0.6535433070866141,
          "duration": 0.125
        },
        {
          "name": "F#3",
          "midi": 54,
          "time": 152.5,
          "velocity": 0.7874015748031497,
          "duration": 0.125
        },
        {
          "name": "B3",
          "midi": 59,
          "time": 152.75,
          "velocity": 0.984251968503937,
          "duration": 0.125
        },
        {
          "name": "F#4",
          "midi": 66,
          "time": 153,
          "velocity": 0.5039370078740157,
          "duration": 0.125
        },
        {
          "name": "C3",
          "midi": 48,
          "time": 153.25,
          "velocity": 0.5826771653543307,
          "duration": 0.125
        },
        {
          "name": "E3",
          "midi": 52,
          "time": 153.5,
          "velocity": 0.6535433070866141,
          "duration": 0.125
        },
        {
          "name": "F#3",
          "midi": 54,
          "time": 153.75,
          "velocity": 0.7874015748031497,
          "duration": 0.125
        },
        {
          "name": "B3",
          "midi": 59,
          "time": 154,
          "velocity": 0.984251968503937,
          "duration": 0.125
        },
        {
          "name": "F#4",
          "midi": 66,
          "time": 154.25,
          "velocity": 0.5039370078740157,
          "duration": 0.125
        },
        {
          "name": "C3",
          "midi": 48,
          "time": 154.5,
          "velocity": 0.5826771653543307,
          "duration": 0.125
        },
        {
          "name": "E3",
          "midi": 52,
          "time": 154.75,
          "velocity": 0.6535433070866141,
          "duration": 0.125
        },
        {
          "name": "F#3",
          "midi": 54,
          "time": 155,
          "velocity": 0.7874015748031497,
          "duration": 0.125
        },
        {
          "name": "B3",
          "midi": 59,
          "time": 155.25,
          "velocity": 0.984251968503937,
          "duration": 0.125
        },
        {
          "name": "F#4",
          "midi": 66,
          "time": 155.5,
          "velocity": 0.5039370078740157,
          "duration": 0.125
        },
        {
          "name": "C3",
          "midi": 48,
          "time": 155.75,
          "velocity": 0.5826771653543307,
          "duration": 0.125
        },
        {
          "name": "B2",
          "midi": 47,
          "time": 156,
          "velocity": 0.5826771653543307,
          "duration": 0.125
        },
        {
          "name": "D#3",
          "midi": 51,
          "time": 156.25,
          "velocity": 0.6535433070866141,
          "duration": 0.125
        },
        {
          "name": "F3",
          "midi": 53,
          "time": 156.5,
          "velocity": 0.7874015748031497,
          "duration": 0.125
        },
        {
          "name": "A#3",
          "midi": 58,
          "time": 156.75,
          "velocity": 0.984251968503937,
          "duration": 0.125
        },
        {
          "name": "F4",
          "midi": 65,
          "time": 157,
          "velocity": 0.5039370078740157,
          "duration": 0.125
        },
        {
          "name": "B2",
          "midi": 47,
          "time": 157.25,
          "velocity": 0.5826771653543307,
          "duration": 0.125
        },
        {
          "name": "D#3",
          "midi": 51,
          "time": 157.5,
          "velocity": 0.6535433070866141,
          "duration": 0.125
        },
        {
          "name": "F3",
          "midi": 53,
          "time": 157.75,
          "velocity": 0.7874015748031497,
          "duration": 0.125
        },
        {
          "name": "A#3",
          "midi": 58,
          "time": 158,
          "velocity": 0.984251968503937,
          "duration": 0.125
        },
        {
          "name": "F4",
          "midi": 65,
          "time": 158.25,
          "velocity": 0.5039370078740157,
          "duration": 0.125
        },
        {
          "name": "B2",
          "midi": 47,
          "time": 158.5,
          "velocity": 0.5826771653543307,
          "duration": 0.125
        },
        {
          "name": "D#3",
          "midi": 51,
          "time": 158.75,
          "velocity": 0.6535433070866141,
          "duration": 0.125
        },
        {
          "name": "F3",
          "midi": 53,
          "time": 159,
          "velocity": 0.7874015748031497,
          "duration": 0.125
        },
        {
          "name": "A#3",
          "midi": 58,
          "time": 159.25,
          "velocity": 0.984251968503937,
          "duration": 0.125
        },
        {
          "name": "F4",
          "midi": 65,
          "time": 159.5,
          "velocity": 0.5039370078740157,
          "duration": 0.125
        },
        {
          "name": "B2",
          "midi": 47,
          "time": 159.75,
          "velocity": 0.5826771653543307,
          "duration": 0.125
        },
        {
          "name": "G3",
          "midi": 55,
          "time": 160,
          "velocity": 0.5826771653543307,
          "duration": 0.125
        },
        {
          "name": "B3",
          "midi": 59,
          "time": 160.25,
          "velocity": 0.6535433070866141,
          "duration": 0.125
        },
        {
          "name": "C#4",
          "midi": 61,
          "time": 160.5,
          "velocity": 0.7874015748031497,
          "duration": 0.125
        },
        {
          "name": "F#4",
          "midi": 66,
          "time": 160.75,
          "velocity": 0.984251968503937,
          "duration": 0.125
        },
        {
          "name": "C#5",
          "midi": 73,
          "time": 161,
          "velocity": 0.5039370078740157,
          "duration": 0.125
        },
        {
          "name": "G3",
          "midi": 55,
          "time": 161.25,
          "velocity": 0.5826771653543307,
          "duration": 0.125
        },
        {
          "name": "B3",
          "midi": 59,
          "time": 161.5,
          "velocity": 0.6535433070866141,
          "duration": 0.125
        },
        {
          "name": "C#4",
          "midi": 61,
          "time": 161.75,
          "velocity": 0.7874015748031497,
          "duration": 0.125
        },
        {
          "name": "F#4",
          "midi": 66,
          "time": 162,
          "velocity": 0.984251968503937,
          "duration": 0.125
        },
        {
          "name": "C#5",
          "midi": 73,
          "time": 162.25,
          "velocity": 0.5039370078740157,
          "duration": 0.125
        },
        {
          "name": "G3",
          "midi": 55,
          "time": 162.5,
          "velocity": 0.5826771653543307,
          "duration": 0.125
        },
        {
          "name": "B3",
          "midi": 59,
          "time": 162.75,
          "velocity": 0.6535433070866141,
          "duration": 0.125
        },
        {
          "name": "C#4",
          "midi": 61,
          "time": 163,
          "velocity": 0.7874015748031497,
          "duration": 0.125
        },
        {
          "name": "F#4",
          "midi": 66,
          "time": 163.25,
          "velocity": 0.984251968503937,
          "duration": 0.125
        },
        {
          "name": "C#5",
          "midi": 73,
          "time": 163.5,
          "velocity": 0.5039370078740157,
          "duration": 0.125
        },
        {
          "name": "G3",
          "midi": 55,
          "time": 163.75,
          "velocity": 0.5826771653543307,
          "duration": 0.125
        },
        {
          "name": "D4",
          "midi": 62,
          "time": 164,
          "velocity": 0.5826771653543307,
          "duration": 0.125
        },
        {
          "name": "F#4",
          "midi": 66,
          "time": 164.25,
          "velocity": 0.6535433070866141,
          "duration": 0.125
        },
        {
          "name": "G#4",
          "midi": 68,
          "time": 164.5,
          "velocity": 0.7874015748031497,
          "duration": 0.125
        },
        {
          "name": "C#5",
          "midi": 73,
          "time": 164.75,
          "velocity": 0.984251968503937,
          "duration": 0.125
        },
        {
          "name": "G#5",
          "midi": 80,
          "time": 165,
          "velocity": 0.5039370078740157,
          "duration": 0.125
        },
        {
          "name": "D4",
          "midi": 62,
          "time": 165.25,
          "velocity": 0.5826771653543307,
          "duration": 0.125
        },
        {
          "name": "F#4",
          "midi": 66,
          "time": 165.5,
          "velocity": 0.6535433070866141,
          "duration": 0.125
        },
        {
          "name": "G#4",
          "midi": 68,
          "time": 165.75,
          "velocity": 0.7874015748031497,
          "duration": 0.125
        },
        {
          "name": "C#5",
          "midi": 73,
          "time": 166,
          "velocity": 0.984251968503937,
          "duration": 0.125
        },
        {
          "name": "G#5",
          "midi": 80,
          "time": 166.25,
          "velocity": 0.5039370078740157,
          "duration": 0.125
        },
        {
          "name": "D4",
          "midi": 62,
          "time": 166.5,
          "velocity": 0.5826771653543307,
          "duration": 0.125
        },
        {
          "name": "F#4",
          "midi": 66,
          "time": 166.75,
          "velocity": 0.6535433070866141,
          "duration": 0.125
        },
        {
          "name": "G#4",
          "midi": 68,
          "time": 167,
          "velocity": 0.7874015748031497,
          "duration": 0.125
        },
        {
          "name": "C#5",
          "midi": 73,
          "time": 167.25,
          "velocity": 0.984251968503937,
          "duration": 0.125
        },
        {
          "name": "G#5",
          "midi": 80,
          "time": 167.5,
          "velocity": 0.5039370078740157,
          "duration": 0.125
        },
        {
          "name": "D4",
          "midi": 62,
          "time": 167.75,
          "velocity": 0.5826771653543307,
          "duration": 0.125
        },
        {
          "name": "G3",
          "midi": 55,
          "time": 168,
          "velocity": 0.5826771653543307,
          "duration": 0.125
        },
        {
          "name": "B3",
          "midi": 59,
          "time": 168.25,
          "velocity": 0.6535433070866141,
          "duration": 0.125
        },
        {
          "name": "C#4",
          "midi": 61,
          "time": 168.5,
          "velocity": 0.7874015748031497,
          "duration": 0.125
        },
        {
          "name": "F#4",
          "midi": 66,
          "time": 168.75,
          "velocity": 0.984251968503937,
          "duration": 0.125
        },
        {
          "name": "C#5",
          "midi": 73,
          "time": 169,
          "velocity": 0.5039370078740157,
          "duration": 0.125
        },
        {
          "name": "G3",
          "midi": 55,
          "time": 169.25,
          "velocity": 0.5826771653543307,
          "duration": 0.125
        },
        {
          "name": "B3",
          "midi": 59,
          "time": 169.5,
          "velocity": 0.6535433070866141,
          "duration": 0.125
        },
        {
          "name": "C#4",
          "midi": 61,
          "time": 169.75,
          "velocity": 0.7874015748031497,
          "duration": 0.125
        },
        {
          "name": "F#4",
          "midi": 66,
          "time": 170,
          "velocity": 0.984251968503937,
          "duration": 0.125
        },
        {
          "name": "C#5",
          "midi": 73,
          "time": 170.25,
          "velocity": 0.5039370078740157,
          "duration": 0.125
        },
        {
          "name": "G3",
          "midi": 55,
          "time": 170.5,
          "velocity": 0.5826771653543307,
          "duration": 0.125
        },
        {
          "name": "B3",
          "midi": 59,
          "time": 170.75,
          "velocity": 0.6535433070866141,
          "duration": 0.125
        },
        {
          "name": "C#4",
          "midi": 61,
          "time": 171,
          "velocity": 0.7874015748031497,
          "duration": 0.125
        },
        {
          "name": "F#4",
          "midi": 66,
          "time": 171.25,
          "velocity": 0.984251968503937,
          "duration": 0.125
        },
        {
          "name": "C#5",
          "midi": 73,
          "time": 171.5,
          "velocity": 0.5039370078740157,
          "duration": 0.125
        },
        {
          "name": "G3",
          "midi": 55,
          "time": 171.75,
          "velocity": 0.5826771653543307,
          "duration": 0.125
        },
        {
          "name": "D4",
          "midi": 62,
          "time": 172,
          "velocity": 0.5826771653543307,
          "duration": 0.125
        },
        {
          "name": "F#4",
          "midi": 66,
          "time": 172.25,
          "velocity": 0.6535433070866141,
          "duration": 0.125
        },
        {
          "name": "G#4",
          "midi": 68,
          "time": 172.5,
          "velocity": 0.7874015748031497,
          "duration": 0.125
        },
        {
          "name": "C#5",
          "midi": 73,
          "time": 172.75,
          "velocity": 0.984251968503937,
          "duration": 0.125
        },
        {
          "name": "G#5",
          "midi": 80,
          "time": 173,
          "velocity": 0.5039370078740157,
          "duration": 0.125
        },
        {
          "name": "D4",
          "midi": 62,
          "time": 173.25,
          "velocity": 0.5826771653543307,
          "duration": 0.125
        },
        {
          "name": "F#4",
          "midi": 66,
          "time": 173.5,
          "velocity": 0.6535433070866141,
          "duration": 0.125
        },
        {
          "name": "G#4",
          "midi": 68,
          "time": 173.75,
          "velocity": 0.7874015748031497,
          "duration": 0.125
        },
        {
          "name": "C#5",
          "midi": 73,
          "time": 174,
          "velocity": 0.984251968503937,
          "duration": 0.125
        },
        {
          "name": "G#5",
          "midi": 80,
          "time": 174.25,
          "velocity": 0.5039370078740157,
          "duration": 0.125
        },
        {
          "name": "D4",
          "midi": 62,
          "time": 174.5,
          "velocity": 0.5826771653543307,
          "duration": 0.125
        },
        {
          "name": "F#4",
          "midi": 66,
          "time": 174.75,
          "velocity": 0.6535433070866141,
          "duration": 0.125
        },
        {
          "name": "G#4",
          "midi": 68,
          "time": 175,
          "velocity": 0.7874015748031497,
          "duration": 0.125
        },
        {
          "name": "C#5",
          "midi": 73,
          "time": 175.25,
          "velocity": 0.984251968503937,
          "duration": 0.125
        },
        {
          "name": "G#5",
          "midi": 80,
          "time": 175.5,
          "velocity": 0.5039370078740157,
          "duration": 0.125
        },
        {
          "name": "D4",
          "midi": 62,
          "time": 175.75,
          "velocity": 0.5826771653543307,
          "duration": 0.125
        },
        {
          "name": "A3",
          "midi": 57,
          "time": 176,
          "velocity": 0.5826771653543307,
          "duration": 0.125
        },
        {
          "name": "C#4",
          "midi": 61,
          "time": 176.25,
          "velocity": 0.6535433070866141,
          "duration": 0.125
        },
        {
          "name": "D#4",
          "midi": 63,
          "time": 176.5,
          "velocity": 0.7874015748031497,
          "duration": 0.125
        },
        {
          "name": "G#4",
          "midi": 68,
          "time": 176.75,
          "velocity": 0.984251968503937,
          "duration": 0.125
        },
        {
          "name": "D#5",
          "midi": 75,
          "time": 177,
          "velocity": 0.5039370078740157,
          "duration": 0.125
        },
        {
          "name": "A3",
          "midi": 57,
          "time": 177.25,
          "velocity": 0.5826771653543307,
          "duration": 0.125
        },
        {
          "name": "C#4",
          "midi": 61,
          "time": 177.5,
          "velocity": 0.6535433070866141,
          "duration": 0.125
        },
        {
          "name": "D#4",
          "midi": 63,
          "time": 177.75,
          "velocity": 0.7874015748031497,
          "duration": 0.125
        },
        {
          "name": "G#4",
          "midi": 68,
          "time": 178,
          "velocity": 0.984251968503937,
          "duration": 0.125
        },
        {
          "name": "D#5",
          "midi": 75,
          "time": 178.25,
          "velocity": 0.5039370078740157,
          "duration": 0.125
        },
        {
          "name": "A3",
          "midi": 57,
          "time": 178.5,
          "velocity": 0.5826771653543307,
          "duration": 0.125
        },
        {
          "name": "C#4",
          "midi": 61,
          "time": 178.75,
          "velocity": 0.6535433070866141,
          "duration": 0.125
        },
        {
          "name": "D#4",
          "midi": 63,
          "time": 179,
          "velocity": 0.7874015748031497,
          "duration": 0.125
        },
        {
          "name": "G#4",
          "midi": 68,
          "time": 179.25,
          "velocity": 0.984251968503937,
          "duration": 0.125
        },
        {
          "name": "D#5",
          "midi": 75,
          "time": 179.5,
          "velocity": 0.5039370078740157,
          "duration": 0.125
        },
        {
          "name": "A3",
          "midi": 57,
          "time": 179.75,
          "velocity": 0.5826771653543307,
          "duration": 0.125
        },
        {
          "name": "D3",
          "midi": 50,
          "time": 180,
          "velocity": 0.5826771653543307,
          "duration": 0.125
        },
        {
          "name": "F#3",
          "midi": 54,
          "time": 180.25,
          "velocity": 0.6535433070866141,
          "duration": 0.125
        },
        {
          "name": "G#3",
          "midi": 56,
          "time": 180.5,
          "velocity": 0.7874015748031497,
          "duration": 0.125
        },
        {
          "name": "C#4",
          "midi": 61,
          "time": 180.75,
          "velocity": 0.984251968503937,
          "duration": 0.125
        },
        {
          "name": "G#4",
          "midi": 68,
          "time": 181,
          "velocity": 0.5039370078740157,
          "duration": 0.125
        },
        {
          "name": "D3",
          "midi": 50,
          "time": 181.25,
          "velocity": 0.5826771653543307,
          "duration": 0.125
        },
        {
          "name": "F#3",
          "midi": 54,
          "time": 181.5,
          "velocity": 0.6535433070866141,
          "duration": 0.125
        },
        {
          "name": "G#3",
          "midi": 56,
          "time": 181.75,
          "velocity": 0.7874015748031497,
          "duration": 0.125
        },
        {
          "name": "C#4",
          "midi": 61,
          "time": 182,
          "velocity": 0.984251968503937,
          "duration": 0.125
        },
        {
          "name": "G#4",
          "midi": 68,
          "time": 182.25,
          "velocity": 0.5039370078740157,
          "duration": 0.125
        },
        {
          "name": "D3",
          "midi": 50,
          "time": 182.5,
          "velocity": 0.5826771653543307,
          "duration": 0.125
        },
        {
          "name": "F#3",
          "midi": 54,
          "time": 182.75,
          "velocity": 0.6535433070866141,
          "duration": 0.125
        },
        {
          "name": "G#3",
          "midi": 56,
          "time": 183,
          "velocity": 0.7874015748031497,
          "duration": 0.125
        },
        {
          "name": "C#4",
          "midi": 61,
          "time": 183.25,
          "velocity": 0.984251968503937,
          "duration": 0.125
        },
        {
          "name": "G#4",
          "midi": 68,
          "time": 183.5,
          "velocity": 0.5039370078740157,
          "duration": 0.125
        },
        {
          "name": "D3",
          "midi": 50,
          "time": 183.75,
          "velocity": 0.5826771653543307,
          "duration": 0.125
        },
        {
          "name": "C3",
          "midi": 48,
          "time": 184,
          "velocity": 0.5826771653543307,
          "duration": 0.125
        },
        {
          "name": "E3",
          "midi": 52,
          "time": 184.25,
          "velocity": 0.6535433070866141,
          "duration": 0.125
        },
        {
          "name": "F#3",
          "midi": 54,
          "time": 184.5,
          "velocity": 0.7874015748031497,
          "duration": 0.125
        },
        {
          "name": "B3",
          "midi": 59,
          "time": 184.75,
          "velocity": 0.984251968503937,
          "duration": 0.125
        },
        {
          "name": "F#4",
          "midi": 66,
          "time": 185,
          "velocity": 0.5039370078740157,
          "duration": 0.125
        },
        {
          "name": "C3",
          "midi": 48,
          "time": 185.25,
          "velocity": 0.5826771653543307,
          "duration": 0.125
        },
        {
          "name": "E3",
          "midi": 52,
          "time": 185.5,
          "velocity": 0.6535433070866141,
          "duration": 0.125
        },
        {
          "name": "F#3",
          "midi": 54,
          "time": 185.75,
          "velocity": 0.7874015748031497,
          "duration": 0.125
        },
        {
          "name": "B3",
          "midi": 59,
          "time": 186,
          "velocity": 0.984251968503937,
          "duration": 0.125
        },
        {
          "name": "F#4",
          "midi": 66,
          "time": 186.25,
          "velocity": 0.5039370078740157,
          "duration": 0.125
        },
        {
          "name": "C3",
          "midi": 48,
          "time": 186.5,
          "velocity": 0.5826771653543307,
          "duration": 0.125
        },
        {
          "name": "E3",
          "midi": 52,
          "time": 186.75,
          "velocity": 0.6535433070866141,
          "duration": 0.125
        },
        {
          "name": "F#3",
          "midi": 54,
          "time": 187,
          "velocity": 0.7874015748031497,
          "duration": 0.125
        },
        {
          "name": "B3",
          "midi": 59,
          "time": 187.25,
          "velocity": 0.984251968503937,
          "duration": 0.125
        },
        {
          "name": "F#4",
          "midi": 66,
          "time": 187.5,
          "velocity": 0.5039370078740157,
          "duration": 0.125
        },
        {
          "name": "C3",
          "midi": 48,
          "time": 187.75,
          "velocity": 0.5826771653543307,
          "duration": 0.125
        },
        {
          "name": "B2",
          "midi": 47,
          "time": 188,
          "velocity": 0.5826771653543307,
          "duration": 0.125
        },
        {
          "name": "D#3",
          "midi": 51,
          "time": 188.25,
          "velocity": 0.6535433070866141,
          "duration": 0.125
        },
        {
          "name": "F3",
          "midi": 53,
          "time": 188.5,
          "velocity": 0.7874015748031497,
          "duration": 0.125
        },
        {
          "name": "A#3",
          "midi": 58,
          "time": 188.75,
          "velocity": 0.984251968503937,
          "duration": 0.125
        },
        {
          "name": "F4",
          "midi": 65,
          "time": 189,
          "velocity": 0.5039370078740157,
          "duration": 0.125
        },
        {
          "name": "B2",
          "midi": 47,
          "time": 189.25,
          "velocity": 0.5826771653543307,
          "duration": 0.125
        },
        {
          "name": "D#3",
          "midi": 51,
          "time": 189.5,
          "velocity": 0.6535433070866141,
          "duration": 0.125
        },
        {
          "name": "F3",
          "midi": 53,
          "time": 189.75,
          "velocity": 0.7874015748031497,
          "duration": 0.125
        },
        {
          "name": "A#3",
          "midi": 58,
          "time": 190,
          "velocity": 0.984251968503937,
          "duration": 0.125
        },
        {
          "name": "F4",
          "midi": 65,
          "time": 190.25,
          "velocity": 0.5039370078740157,
          "duration": 0.125
        },
        {
          "name": "B2",
          "midi": 47,
          "time": 190.5,
          "velocity": 0.5826771653543307,
          "duration": 0.125
        },
        {
          "name": "D#3",
          "midi": 51,
          "time": 190.75,
          "velocity": 0.6535433070866141,
          "duration": 0.125
        },
        {
          "name": "F3",
          "midi": 53,
          "time": 191,
          "velocity": 0.7874015748031497,
          "duration": 0.125
        },
        {
          "name": "A#3",
          "midi": 58,
          "time": 191.25,
          "velocity": 0.984251968503937,
          "duration": 0.125
        },
        {
          "name": "F4",
          "midi": 65,
          "time": 191.5,
          "velocity": 0.5039370078740157,
          "duration": 0.125
        },
        {
          "name": "B2",
          "midi": 47,
          "time": 191.75,
          "velocity": 0.5826771653543307,
          "duration": 0.125
        }
      ],
      "controlChanges": {},
      "id": 0,
      "name": "arp",
      "channelNumber": 0,
      "isPercussion": false
    }
  ]
}