{
  "header": {
    "PPQ": 96,
    "timeSignature": [
      7,
      4
    ],
    "bpm": 120,
    "name": ""
  },
  "tempo": [],
  "timeSignature": [
    {
      "absoluteTime": 0,
      "seconds": 0,
      "numerator": 7,
      "denominator": 2,
      "click": 36,
      "notesQ": 8
    },
    {
      "absoluteTime": 0,
      "seconds": 0,
      "numerator": 7,
      "denominator": 2,
      "click": 36,
      "notesQ": 8
    }
  ],
  "startTime": 0,
  "duration": 188,
  "tracks": [
    {
      "startTime": 0,
      "duration": 188,
      "length": 28,
      "notes": [
        {
          "name": "D#2",
          "midi": 39,
          "time": 0,
          "velocity": 0.7874015748031497,
          "duration": 2.125
        },
        {
          "name": "F2",
          "midi": 41,
          "time": 6.75,
          "velocity": 0.7874015748031497,
          "duration": 1.875
        },
        {
          "name": "D#2",
          "midi": 39,
          "time": 12.5,
          "velocity": 0.7874015748031497,
          "duration": 1.125
        },
        {
          "name": "F2",
          "midi": 41,
          "time": 18.5,
          "velocity": 0.7874015748031497,
          "duration": 1.875
        },
        {
          "name": "D#2",
          "midi": 39,
          "time": 26.125,
          "velocity": 0.7874015748031497,
          "duration": 1.875
        },
        {
          "name": "F2",
          "midi": 41,
          "time": 33.75,
          "velocity": 0.7874015748031497,
          "duration": 1.625
        },
        {
          "name": "D#2",
          "midi": 39,
          "time": 40.875,
          "velocity": 0.7874015748031497,
          "duration": 2.5
        },
        {
          "name": "F2",
          "midi": 41,
          "time": 49.5,
          "velocity": 0.7874015748031497,
          "duration": 2.125
        },
        {
          "name": "D#2",
          "midi": 39,
          "time": 56.25,
          "velocity": 0.7874015748031497,
          "duration": 1.875
        },
        {
          "name": "F2",
          "midi": 41,
          "time": 62,
          "velocity": 0.7874015748031497,
          "duration": 1.1197916666666643
        },
        {
          "name": "D#2",
          "midi": 39,
          "time": 68,
          "velocity": 0.7874015748031497,
          "duration": 1.8697916666666714
        },
        {
          "name": "F2",
          "midi": 41,
          "time": 75.625,
          "velocity": 0.7874015748031497,
          "duration": 1.8697916666666714
        },
        {
          "name": "D#2",
          "midi": 39,
          "time": 83.25,
          "velocity": 0.7874015748031497,
          "duration": 1.6197916666666714
        },
        {
          "name": "F2",
          "midi": 41,
          "time": 90.375,
          "velocity": 0.7874015748031497,
          "duration": 2.4947916666666714
        },
        {
          "name": "D#2",
          "midi": 39,
          "time": 99,
          "velocity": 0.7874015748031497,
          "duration": 2.1197916666666714
        },
        {
          "name": "F2",
          "midi": 41,
          "time": 105.75,
          "velocity": 0.7874015748031497,
          "duration": 1.8697916666666714
        },
        {
          "name": "D#2",
          "midi": 39,
          "time": 111.5,
          "velocity": 0.7874015748031497,
          "duration": 1.1197916666666714
        },
        {
          "name": "F2",
          "midi": 41,
          "time": 117.5,
          "velocity": 0.7874015748031497,
          "duration": 1.8697916666666714
        },
        {
          "name": "D#2",
          "midi": 39,
          "time": 125.125,
          "velocity": 0.7874015748031497,
          "duration": 1.875
        },
        {
          "name": "F2",
          "midi": 41,
          "time": 132.75,
          "velocity": 0.7874015748031497,
          "duration": 1.625
        },
        {
          "name": "D#2",
          "midi": 39,
          "time": 139.875,
          "velocity": 0.7874015748031497,
          "duration": 2.5
        },
        {
          "name": "F2",
          "midi": 41,
          "time": 148.5,
          "velocity": 0.7874015748031497,
          "duration": 2.125
        },
        {
          "name": "D#2",
          "midi": 39,
          "time": 155.25,
          "velocity": 0.7874015748031497,
          "duration": 1.875
        },
        {
          "name": "F2",
          "midi": 41,
          "time": 161,
          "velocity": 0.7874015748031497,
          "duration": 1.125
        },
        {
          "name": "D#2",
          "midi": 39,
          "time": 167,
          "velocity": 0.7874015748031497,
          "duration": 1.875
        },
        {
          "name": "F2",
          "midi": 41,
          "time": 174.625,
          "velocity": 0.7874015748031497,
          "duration": 1.875
        },
        {
          "name": "D#2",
          "midi": 39,
          "time": 182.25,
          "velocity": 0.7874015748031497,
          "duration": 1.625
        },
        {
          "name": "F2",
          "midi": 41,
          "time": 186.875,
          "velocity": 0.7874015748031497,
          "duration": 1.125
        }
      ],
      "controlChanges": {},
      "id": 0,
      "name": "synbass off time",
      "channelNumber": 0,
      "isPercussion": false
    }
  ]
}