{
  "header": {
    "PPQ": 96,
    "timeSignature": [
      4,
      4
    ],
    "bpm": 120,
    "name": ""
  },
  "tempo": [],
  "timeSignature": [
    {
      "absoluteTime": 0,
      "seconds": 0,
      "numerator": 4,
      "denominator": 2,
      "click": 36,
      "notesQ": 8
    },
    {
      "absoluteTime": 0,
      "seconds": 0,
      "numerator": 4,
      "denominator": 2,
      "click": 36,
      "notesQ": 8
    }
  ],
  "startTime": 0,
  "duration": 191.83333333333115,
  "tracks": [
    {
      "startTime": 0,
      "duration": 191.83333333333115,
      "length": 576,
      "notes": [
        {
          "name": "C4",
          "midi": 60,
          "time": 0,
          "velocity": 0.7874015748031497,
          "duration": 0.16666666666666666
        },
        {
          "name": "C4",
          "midi": 60,
          "time": 0.3333333333333333,
          "velocity": 0.7874015748031497,
          "duration": 0.16666666666666669
        },
        {
          "name": "C4",
          "midi": 60,
          "time": 0.6666666666666666,
          "velocity": 0.7874015748031497,
          "duration": 0.16666666666666663
        },
        {
          "name": "C4",
          "midi": 60,
          "time": 0.9999999999999999,
          "velocity": 0.7874015748031497,
          "duration": 0.16666666666666663
        },
        {
          "name": "C4",
          "midi": 60,
          "time": 1.3333333333333333,
          "velocity": 0.7874015748031497,
          "duration": 0.16666666666666674
        },
        {
          "name": "C4",
          "midi": 60,
          "time": 1.6666666666666667,
          "velocity": 0.7874015748031497,
          "duration": 0.16666666666666674
        },
        {
          "name": "C4",
          "midi": 60,
          "time": 2,
          "velocity": 0.7874015748031497,
          "duration": 0.16666666666666652
        },
        {
          "name": "C4",
          "midi": 60,
          "time": 2.333333333333333,
          "velocity": 0.7874015748031497,
          "duration": 0.16666666666666652
        },
        {
          "name": "C4",
          "midi": 60,
          "time": 2.666666666666666,
          "velocity": 0.7874015748031497,
          "duration": 0.16666666666666652
        },
        {
          "name": "C4",
          "midi": 60,
          "time": 2.999999999999999,
          "velocity": 0.7874015748031497,
          "duration": 0.16666666666666652
        },
        {
          "name": "C4",
          "midi": 60,
          "time": 3.333333333333332,
          "velocity": 0.7874015748031497,
          "duration": 0.16666666666666652
        },
        {
          "name": "C4",
          "midi": 60,
          "time": 3.666666666666665,
          "velocity": 0.7874015748031497,
          "duration": 0.16666666666666652
        },
        {
          "name": "C4",
          "midi": 60,
          "time": 3.9999999999999982,
          "velocity": 0.7874015748031497,
          "duration": 0.16666666666666696
        },
        {
          "name": "C4",
          "midi": 60,
          "time": 4.333333333333332,
          "velocity": 0.7874015748031497,
          "duration": 0.16666666666666696
        },
        {
          "name": "C4",
          "midi": 60,
          "time": 4.666666666666666,
          "velocity": 0.7874015748031497,
          "duration": 0.16666666666666696
        },
        {
          "name": "C4",
          "midi": 60,
          "time": 5,
          "velocity": 0.7874015748031497,
          "duration": 0.16666666666666696
        },
        {
          "name": "C4",
          "midi": 60,
          "time": 5.333333333333334,
          "velocity": 0.7874015748031497,
          "duration": 0.16666666666666696
        },
        {
          "name": "C4",
          "midi": 60,
          "time": 5.666666666666668,
          "velocity": 0.7874015748031497,
          "duration": 0.16666666666666696
        },
        {
          "name": "C4",
          "midi": 60,
          "time": 6.000000000000002,
          "velocity": 0.7874015748031497,
          "duration": 0.16666666666666696
        },
        {
          "name": "C4",
          "midi": 60,
          "time": 6.333333333333336,
          "velocity": 0.7874015748031497,
          "duration": 0.16666666666666696
        },
        {
          "name": "C4",
          "midi": 60,
          "time": 6.66666666666667,
          "velocity": 0.7874015748031497,
          "duration": 0.16666666666666696
        },
        {
          "name": "C4",
          "midi": 60,
          "time": 7.0000000000000036,
          "velocity": 0.7874015748031497,
          "duration": 0.16666666666666696
        },
        {
          "name": "C4",
          "midi": 60,
          "time": 7.3333333333333375,
          "velocity": 0.7874015748031497,
          "duration": 0.16666666666666696
        },
        {
          "name": "C4",
          "midi": 60,
          "time": 7.666666666666671,
          "velocity": 0.7874015748031497,
          "duration": 0.16666666666666696
        },
        {
          "name": "C4",
          "midi": 60,
          "time": 8.000000000000005,
          "velocity": 0.7874015748031497,
          "duration": 0.16666666666666607
        },
        {
          "name": "C4",
          "midi": 60,
          "time": 8.333333333333337,
          "velocity": 0.7874015748031497,
          "duration": 0.16666666666666607
        },
        {
          "name": "C4",
          "midi": 60,
          "time": 8.66666666666667,
          "velocity": 0.7874015748031497,
          "duration": 0.16666666666666607
        },
        {
          "name": "C4",
          "midi": 60,
          "time": 9.000000000000002,
          "velocity": 0.7874015748031497,
          "duration": 0.16666666666666607
        },
        {
          "name": "C4",
          "midi": 60,
          "time": 9.333333333333334,
          "velocity": 0.7874015748031497,
          "duration": 0.16666666666666607
        },
        {
          "name": "C4",
          "midi": 60,
          "time": 9.666666666666666,
          "velocity": 0.7874015748031497,
          "duration": 0.16666666666666607
        },
        {
          "name": "C4",
          "midi": 60,
          "time": 9.999999999999998,
          "velocity": 0.7874015748031497,
          "duration": 0.16666666666666607
        },
        {
          "name": "C4",
          "midi": 60,
          "time": 10.33333333333333,
          "velocity": 0.7874015748031497,
          "duration": 0.16666666666666607
        },
        {
          "name": "C4",
          "midi": 60,
          "time": 10.666666666666663,
          "velocity": 0.7874015748031497,
          "duration": 0.16666666666666607
        },
        {
          "name": "C4",
          "midi": 60,
          "time": 10.999999999999995,
          "velocity": 0.7874015748031497,
          "duration": 0.16666666666666607
        },
        {
          "name": "C4",
          "midi": 60,
          "time": 11.333333333333327,
          "velocity": 0.7874015748031497,
          "duration": 0.16666666666666607
        },
        {
          "name": "C4",
          "midi": 60,
          "time": 11.666666666666659,
          "velocity": 0.7874015748031497,
          "duration": 0.16666666666666607
        },
        {
          "name": "C4",
          "midi": 60,
          "time": 11.999999999999991,
          "velocity": 0.7874015748031497,
          "duration": 0.16666666666666607
        },
        {
          "name": "C4",
          "midi": 60,
          "time": 12.333333333333323,
          "velocity": 0.7874015748031497,
          "duration": 0.16666666666666607
        },
        {
          "name": "C4",
          "midi": 60,
          "time": 12.666666666666655,
          "velocity": 0.7874015748031497,
          "duration": 0.16666666666666607
        },
        {
          "name": "C4",
          "midi": 60,
          "time": 12.999999999999988,
          "velocity": 0.7874015748031497,
          "duration": 0.16666666666666607
        },
        {
          "name": "C4",
          "midi": 60,
          "time": 13.33333333333332,
          "velocity": 0.7874015748031497,
          "duration": 0.16666666666666607
        },
        {
          "name": "C4",
          "midi": 60,
          "time": 13.666666666666652,
          "velocity": 0.7874015748031497,
          "duration": 0.16666666666666607
        },
        {
          "name": "C4",
          "midi": 60,
          "time": 13.999999999999984,
          "velocity": 0.7874015748031497,
          "duration": 0.16666666666666607
        },
        {
          "name": "C4",
          "midi": 60,
          "time": 14.333333333333316,
          "velocity": 0.7874015748031497,
          "duration": 0.16666666666666607
        },
        {
          "name": "C4",
          "midi": 60,
          "time": 14.666666666666648,
          "velocity": 0.7874015748031497,
          "duration": 0.16666666666666607
        },
        {
          "name": "C4",
          "midi": 60,
          "time": 14.99999999999998,
          "velocity": 0.7874015748031497,
          "duration": 0.16666666666666607
        },
        {
          "name": "C4",
          "midi": 60,
          "time": 15.333333333333313,
          "velocity": 0.7874015748031497,
          "duration": 0.16666666666666607
        },
        {
          "name": "C4",
          "midi": 60,
          "time": 15.666666666666645,
          "velocity": 0.7874015748031497,
          "duration": 0.16666666666666607
        },
        {
          "name": "C4",
          "midi": 60,
          "time": 15.999999999999977,
          "velocity": 0.7874015748031497,
          "duration": 0.16666666666666607
        },
        {
          "name": "C4",
          "midi": 60,
          "time": 16.33333333333331,
          "velocity": 0.7874015748031497,
          "duration": 0.16666666666666785
        },
        {
          "name": "C4",
          "midi": 60,
          "time": 16.666666666666647,
          "velocity": 0.7874015748031497,
          "duration": 0.16666666666666785
        },
        {
          "name": "C4",
          "midi": 60,
          "time": 16.999999999999982,
          "velocity": 0.7874015748031497,
          "duration": 0.16666666666666785
        },
        {
          "name": "C4",
          "midi": 60,
          "time": 17.333333333333318,
          "velocity": 0.7874015748031497,
          "duration": 0.16666666666666785
        },
        {
          "name": "C4",
          "midi": 60,
          "time": 17.666666666666654,
          "velocity": 0.7874015748031497,
          "duration": 0.16666666666666785
        },
        {
          "name": "C4",
          "midi": 60,
          "time": 17.99999999999999,
          "velocity": 0.7874015748031497,
          "duration": 0.16666666666666785
        },
        {
          "name": "C4",
          "midi": 60,
          "time": 18.333333333333325,
          "velocity": 0.7874015748031497,
          "duration": 0.16666666666666785
        },
        {
          "name": "C4",
          "midi": 60,
          "time": 18.66666666666666,
          "velocity": 0.7874015748031497,
          "duration": 0.16666666666666785
        },
        {
          "name": "C4",
          "midi": 60,
          "time": 18.999999999999996,
          "velocity": 0.7874015748031497,
          "duration": 0.16666666666666785
        },
        {
          "name": "C4",
          "midi": 60,
          "time": 19.333333333333332,
          "velocity": 0.7874015748031497,
          "duration": 0.16666666666666785
        },
        {
          "name": "C4",
          "midi": 60,
          "time": 19.666666666666668,
          "velocity": 0.7874015748031497,
          "duration": 0.16666666666666785
        },
        {
          "name": "C4",
          "midi": 60,
          "time": 20.000000000000004,
          "velocity": 0.7874015748031497,
          "duration": 0.16666666666666785
        },
        {
          "name": "C4",
          "midi": 60,
          "time": 20.33333333333334,
          "velocity": 0.7874015748031497,
          "duration": 0.16666666666666785
        },
        {
          "name": "C4",
          "midi": 60,
          "time": 20.666666666666675,
          "velocity": 0.7874015748031497,
          "duration": 0.16666666666666785
        },
        {
          "name": "C4",
          "midi": 60,
          "time": 21.00000000000001,
          "velocity": 0.7874015748031497,
          "duration": 0.16666666666666785
        },
        {
          "name": "C4",
          "midi": 60,
          "time": 21.333333333333346,
          "velocity": 0.7874015748031497,
          "duration": 0.16666666666666785
        },
        {
          "name": "C4",
          "midi": 60,
          "time": 21.666666666666682,
          "velocity": 0.7874015748031497,
          "duration": 0.16666666666666785
        },
        {
          "name": "C4",
          "midi": 60,
          "time": 22.000000000000018,
          "velocity": 0.7874015748031497,
          "duration": 0.16666666666666785
        },
        {
          "name": "C4",
          "midi": 60,
          "time": 22.333333333333353,
          "velocity": 0.7874015748031497,
          "duration": 0.16666666666666785
        },
        {
          "name": "C4",
          "midi": 60,
          "time": 22.66666666666669,
          "velocity": 0.7874015748031497,
          "duration": 0.16666666666666785
        },
        {
          "name": "C4",
          "midi": 60,
          "time": 23.000000000000025,
          "velocity": 0.7874015748031497,
          "duration": 0.16666666666666785
        },
        {
          "name": "C4",
          "midi": 60,
          "time": 23.33333333333336,
          "velocity": 0.7874015748031497,
          "duration": 0.16666666666666785
        },
        {
          "name": "C4",
          "midi": 60,
          "time": 23.666666666666696,
          "velocity": 0.7874015748031497,
          "duration": 0.16666666666666785
        },
        {
          "name": "C4",
          "midi": 60,
          "time": 24.000000000000032,
          "velocity": 0.7874015748031497,
          "duration": 0.16666666666666785
        },
        {
          "name": "C4",
          "midi": 60,
          "time": 24.333333333333368,
          "velocity": 0.7874015748031497,
          "duration": 0.16666666666666785
        },
        {
          "name": "C4",
          "midi": 60,
          "time": 24.666666666666703,
          "velocity": 0.7874015748031497,
          "duration": 0.16666666666666785
        },
        {
          "name": "C4",
          "midi": 60,
          "time": 25.00000000000004,
          "velocity": 0.7874015748031497,
          "duration": 0.16666666666666785
        },
        {
          "name": "C4",
          "midi": 60,
          "time": 25.333333333333375,
          "velocity": 0.7874015748031497,
          "duration": 0.16666666666666785
        },
        {
          "name": "C4",
          "midi": 60,
          "time": 25.66666666666671,
          "velocity": 0.7874015748031497,
          "duration": 0.16666666666666785
        },
        {
          "name": "C4",
          "midi": 60,
          "time": 26.000000000000046,
          "velocity": 0.7874015748031497,
          "duration": 0.16666666666666785
        },
        {
          "name": "C4",
          "midi": 60,
          "time": 26.333333333333382,
          "velocity": 0.7874015748031497,
          "duration": 0.16666666666666785
        },
        {
          "name": "C4",
          "midi": 60,
          "time": 26.666666666666718,
          "velocity": 0.7874015748031497,
          "duration": 0.16666666666666785
        },
        {
          "name": "C4",
          "midi": 60,
          "time": 27.000000000000053,
          "velocity": 0.7874015748031497,
          "duration": 0.16666666666666785
        },
        {
          "name": "C4",
          "midi": 60,
          "time": 27.33333333333339,
          "velocity": 0.7874015748031497,
          "duration": 0.16666666666666785
        },
        {
          "name": "C4",
          "midi": 60,
          "time": 27.666666666666725,
          "velocity": 0.7874015748031497,
          "duration": 0.16666666666666785
        },
        {
          "name": "C4",
          "midi": 60,
          "time": 28.00000000000006,
          "velocity": 0.7874015748031497,
          "duration": 0.16666666666666785
        },
        {
          "name": "C4",
          "midi": 60,
          "time": 28.333333333333396,
          "velocity": 0.7874015748031497,
          "duration": 0.16666666666666785
        },
        {
          "name": "C4",
          "midi": 60,
          "time": 28.666666666666732,
          "velocity": 0.7874015748031497,
          "duration": 0.16666666666666785
        },
        {
          "name": "C4",
          "midi": 60,
          "time": 29.000000000000068,
          "velocity": 0.7874015748031497,
          "duration": 0.16666666666666785
        },
        {
          "name": "C4",
          "midi": 60,
          "time": 29.333333333333403,
          "velocity": 0.7874015748031497,
          "duration": 0.16666666666666785
        },
        {
          "name": "C4",
          "midi": 60,
          "time": 29.66666666666674,
          "velocity": 0.7874015748031497,
          "duration": 0.16666666666666785
        },
        {
          "name": "C4",
          "midi": 60,
          "time": 30.000000000000075,
          "velocity": 0.7874015748031497,
          "duration": 0.16666666666666785
        },
        {
          "name": "C4",
          "midi": 60,
          "time": 30.33333333333341,
          "velocity": 0.7874015748031497,
          "duration": 0.16666666666666785
        },
        {
          "name": "C4",
          "midi": 60,
          "time": 30.666666666666746,
          "velocity": 0.7874015748031497,
          "duration": 0.16666666666666785
        },
        {
          "name": "C4",
          "midi": 60,
          "time": 31.00000000000008,
          "velocity": 0.7874015748031497,
          "duration": 0.16666666666666785
        },
        {
          "name": "C4",
          "midi": 60,
          "time": 31.333333333333417,
          "velocity": 0.7874015748031497,
          "duration": 0.16666666666666785
        },
        {
          "name": "C4",
          "midi": 60,
          "time": 31.666666666666753,
          "velocity": 0.7874015748031497,
          "duration": 0.16666666666666785
        },
        {
          "name": "C4",
          "midi": 60,
          "time": 32.000000000000085,
          "velocity": 0.7874015748031497,
          "duration": 0.1666666666666643
        },
        {
          "name": "C4",
          "midi": 60,
          "time": 32.333333333333414,
          "velocity": 0.7874015748031497,
          "duration": 0.1666666666666643
        },
        {
          "name": "C4",
          "midi": 60,
          "time": 32.66666666666674,
          "velocity": 0.7874015748031497,
          "duration": 0.1666666666666643
        },
        {
          "name": "C4",
          "midi": 60,
          "time": 33.00000000000007,
          "velocity": 0.7874015748031497,
          "duration": 0.1666666666666643
        },
        {
          "name": "C4",
          "midi": 60,
          "time": 33.3333333333334,
          "velocity": 0.7874015748031497,
          "duration": 0.1666666666666643
        },
        {
          "name": "C4",
          "midi": 60,
          "time": 33.66666666666673,
          "velocity": 0.7874015748031497,
          "duration": 0.1666666666666643
        },
        {
          "name": "C4",
          "midi": 60,
          "time": 34.00000000000006,
          "velocity": 0.7874015748031497,
          "duration": 0.1666666666666643
        },
        {
          "name": "C4",
          "midi": 60,
          "time": 34.333333333333385,
          "velocity": 0.7874015748031497,
          "duration": 0.1666666666666643
        },
        {
          "name": "C4",
          "midi": 60,
          "time": 34.666666666666714,
          "velocity": 0.7874015748031497,
          "duration": 0.1666666666666643
        },
        {
          "name": "C4",
          "midi": 60,
          "time": 35.00000000000004,
          "velocity": 0.7874015748031497,
          "duration": 0.1666666666666643
        },
        {
          "name": "C4",
          "midi": 60,
          "time": 35.33333333333337,
          "velocity": 0.7874015748031497,
          "duration": 0.1666666666666643
        },
        {
          "name": "C4",
          "midi": 60,
          "time": 35.6666666666667,
          "velocity": 0.7874015748031497,
          "duration": 0.1666666666666643
        },
        {
          "name": "C4",
          "midi": 60,
          "time": 36.00000000000003,
          "velocity": 0.7874015748031497,
          "duration": 0.1666666666666643
        },
        {
          "name": "C4",
          "midi": 60,
          "time": 36.33333333333336,
          "velocity": 0.7874015748031497,
          "duration": 0.1666666666666643
        },
        {
          "name": "C4",
          "midi": 60,
          "time": 36.666666666666686,
          "velocity": 0.7874015748031497,
          "duration": 0.1666666666666643
        },
        {
          "name": "C4",
          "midi": 60,
          "time": 37.000000000000014,
          "velocity": 0.7874015748031497,
          "duration": 0.1666666666666643
        },
        {
          "name": "C4",
          "midi": 60,
          "time": 37.33333333333334,
          "velocity": 0.7874015748031497,
          "duration": 0.1666666666666643
        },
        {
          "name": "C4",
          "midi": 60,
          "time": 37.66666666666667,
          "velocity": 0.7874015748031497,
          "duration": 0.1666666666666643
        },
        {
          "name": "C4",
          "midi": 60,
          "time": 38,
          "velocity": 0.7874015748031497,
          "duration": 0.1666666666666643
        },
        {
          "name": "C4",
          "midi": 60,
          "time": 38.33333333333333,
          "velocity": 0.7874015748031497,
          "duration": 0.1666666666666643
        },
        {
          "name": "C4",
          "midi": 60,
          "time": 38.66666666666666,
          "velocity": 0.7874015748031497,
          "duration": 0.1666666666666643
        },
        {
          "name": "C4",
          "midi": 60,
          "time": 38.999999999999986,
          "velocity": 0.7874015748031497,
          "duration": 0.1666666666666643
        },
        {
          "name": "C4",
          "midi": 60,
          "time": 39.333333333333314,
          "velocity": 0.7874015748031497,
          "duration": 0.1666666666666643
        },
        {
          "name": "C4",
          "midi": 60,
          "time": 39.66666666666664,
          "velocity": 0.7874015748031497,
          "duration": 0.1666666666666643
        },
        {
          "name": "C4",
          "midi": 60,
          "time": 39.99999999999997,
          "velocity": 0.7874015748031497,
          "duration": 0.1666666666666643
        },
        {
          "name": "C4",
          "midi": 60,
          "time": 40.3333333333333,
          "velocity": 0.7874015748031497,
          "duration": 0.1666666666666643
        },
        {
          "name": "C4",
          "midi": 60,
          "time": 40.66666666666663,
          "velocity": 0.7874015748031497,
          "duration": 0.1666666666666643
        },
        {
          "name": "C4",
          "midi": 60,
          "time": 40.99999999999996,
          "velocity": 0.7874015748031497,
          "duration": 0.1666666666666643
        },
        {
          "name": "C4",
          "midi": 60,
          "time": 41.333333333333286,
          "velocity": 0.7874015748031497,
          "duration": 0.1666666666666643
        },
        {
          "name": "C4",
          "midi": 60,
          "time": 41.666666666666615,
          "velocity": 0.7874015748031497,
          "duration": 0.1666666666666643
        },
        {
          "name": "C4",
          "midi": 60,
          "time": 41.99999999999994,
          "velocity": 0.7874015748031497,
          "duration": 0.1666666666666643
        },
        {
          "name": "C4",
          "midi": 60,
          "time": 42.33333333333327,
          "velocity": 0.7874015748031497,
          "duration": 0.1666666666666643
        },
        {
          "name": "C4",
          "midi": 60,
          "time": 42.6666666666666,
          "velocity": 0.7874015748031497,
          "duration": 0.1666666666666643
        },
        {
          "name": "C4",
          "midi": 60,
          "time": 42.99999999999993,
          "velocity": 0.7874015748031497,
          "duration": 0.1666666666666643
        },
        {
          "name": "C4",
          "midi": 60,
          "time": 43.33333333333326,
          "velocity": 0.7874015748031497,
          "duration": 0.1666666666666643
        },
        {
          "name": "C4",
          "midi": 60,
          "time": 43.666666666666586,
          "velocity": 0.7874015748031497,
          "duration": 0.1666666666666643
        },
        {
          "name": "C4",
          "midi": 60,
          "time": 43.999999999999915,
          "velocity": 0.7874015748031497,
          "duration": 0.1666666666666643
        },
        {
          "name": "C4",
          "midi": 60,
          "time": 44.33333333333324,
          "velocity": 0.7874015748031497,
          "duration": 0.1666666666666643
        },
        {
          "name": "C4",
          "midi": 60,
          "time": 44.66666666666657,
          "velocity": 0.7874015748031497,
          "duration": 0.1666666666666643
        },
        {
          "name": "C4",
          "midi": 60,
          "time": 44.9999999999999,
          "velocity": 0.7874015748031497,
          "duration": 0.1666666666666643
        },
        {
          "name": "C4",
          "midi": 60,
          "time": 45.33333333333323,
          "velocity": 0.7874015748031497,
          "duration": 0.1666666666666643
        },
        {
          "name": "C4",
          "midi": 60,
          "time": 45.66666666666656,
          "velocity": 0.7874015748031497,
          "duration": 0.1666666666666643
        },
        {
          "name": "C4",
          "midi": 60,
          "time": 45.999999999999886,
          "velocity": 0.7874015748031497,
          "duration": 0.1666666666666643
        },
        {
          "name": "C4",
          "midi": 60,
          "time": 46.333333333333215,
          "velocity": 0.7874015748031497,
          "duration": 0.1666666666666643
        },
        {
          "name": "C4",
          "midi": 60,
          "time": 46.66666666666654,
          "velocity": 0.7874015748031497,
          "duration": 0.1666666666666643
        },
        {
          "name": "C4",
          "midi": 60,
          "time": 46.99999999999987,
          "velocity": 0.7874015748031497,
          "duration": 0.1666666666666643
        },
        {
          "name": "C4",
          "midi": 60,
          "time": 47.3333333333332,
          "velocity": 0.7874015748031497,
          "duration": 0.1666666666666643
        },
        {
          "name": "C4",
          "midi": 60,
          "time": 47.66666666666653,
          "velocity": 0.7874015748031497,
          "duration": 0.1666666666666643
        },
        {
          "name": "C4",
          "midi": 60,
          "time": 47.99999999999986,
          "velocity": 0.7874015748031497,
          "duration": 0.1666666666666643
        },
        {
          "name": "C4",
          "midi": 60,
          "time": 48.33333333333319,
          "velocity": 0.7874015748031497,
          "duration": 0.1666666666666643
        },
        {
          "name": "C4",
          "midi": 60,
          "time": 48.666666666666515,
          "velocity": 0.7874015748031497,
          "duration": 0.1666666666666643
        },
        {
          "name": "C4",
          "midi": 60,
          "time": 48.999999999999844,
          "velocity": 0.7874015748031497,
          "duration": 0.1666666666666643
        },
        {
          "name": "C4",
          "midi": 60,
          "time": 49.33333333333317,
          "velocity": 0.7874015748031497,
          "duration": 0.1666666666666643
        },
        {
          "name": "C4",
          "midi": 60,
          "time": 49.6666666666665,
          "velocity": 0.7874015748031497,
          "duration": 0.1666666666666643
        },
        {
          "name": "C4",
          "midi": 60,
          "time": 49.99999999999983,
          "velocity": 0.7874015748031497,
          "duration": 0.1666666666666643
        },
        {
          "name": "C4",
          "midi": 60,
          "time": 50.33333333333316,
          "velocity": 0.7874015748031497,
          "duration": 0.1666666666666643
        },
        {
          "name": "C4",
          "midi": 60,
          "time": 50.66666666666649,
          "velocity": 0.7874015748031497,
          "duration": 0.1666666666666643
        },
        {
          "name": "C4",
          "midi": 60,
          "time": 50.999999999999815,
          "velocity": 0.7874015748031497,
          "duration": 0.1666666666666643
        },
        {
          "name": "C4",
          "midi": 60,
          "time": 51.333333333333144,
          "velocity": 0.7874015748031497,
          "duration": 0.1666666666666643
        },
        {
          "name": "C4",
          "midi": 60,
          "time": 51.66666666666647,
          "velocity": 0.7874015748031497,
          "duration": 0.1666666666666643
        },
        {
          "name": "C4",
          "midi": 60,
          "time": 51.9999999999998,
          "velocity": 0.7874015748031497,
          "duration": 0.1666666666666643
        },
        {
          "name": "C4",
          "midi": 60,
          "time": 52.33333333333313,
          "velocity": 0.7874015748031497,
          "duration": 0.1666666666666643
        },
        {
          "name": "C4",
          "midi": 60,
          "time": 52.66666666666646,
          "velocity": 0.7874015748031497,
          "duration": 0.1666666666666643
        },
        {
          "name": "C4",
          "midi": 60,
          "time": 52.99999999999979,
          "velocity": 0.7874015748031497,
          "duration": 0.1666666666666643
        },
        {
          "name": "C4",
          "midi": 60,
          "time": 53.333333333333115,
          "velocity": 0.7874015748031497,
          "duration": 0.1666666666666643
        },
        {
          "name": "C4",
          "midi": 60,
          "time": 53.666666666666444,
          "velocity": 0.7874015748031497,
          "duration": 0.1666666666666643
        },
        {
          "name": "C4",
          "midi": 60,
          "time": 53.99999999999977,
          "velocity": 0.7874015748031497,
          "duration": 0.1666666666666643
        },
        {
          "name": "C4",
          "midi": 60,
          "time": 54.3333333333331,
          "velocity": 0.7874015748031497,
          "duration": 0.1666666666666643
        },
        {
          "name": "C4",
          "midi": 60,
          "time": 54.66666666666643,
          "velocity": 0.7874015748031497,
          "duration": 0.1666666666666643
        },
        {
          "name": "C4",
          "midi": 60,
          "time": 54.99999999999976,
          "velocity": 0.7874015748031497,
          "duration": 0.1666666666666643
        },
        {
          "name": "C4",
          "midi": 60,
          "time": 55.33333333333309,
          "velocity": 0.7874015748031497,
          "duration": 0.1666666666666643
        },
        {
          "name": "C4",
          "midi": 60,
          "time": 55.666666666666416,
          "velocity": 0.7874015748031497,
          "duration": 0.1666666666666643
        },
        {
          "name": "C4",
          "midi": 60,
          "time": 55.999999999999744,
          "velocity": 0.7874015748031497,
          "duration": 0.1666666666666643
        },
        {
          "name": "C4",
          "midi": 60,
          "time": 56.33333333333307,
          "velocity": 0.7874015748031497,
          "duration": 0.1666666666666643
        },
        {
          "name": "C4",
          "midi": 60,
          "time": 56.6666666666664,
          "velocity": 0.7874015748031497,
          "duration": 0.1666666666666643
        },
        {
          "name": "C4",
          "midi": 60,
          "time": 56.99999999999973,
          "velocity": 0.7874015748031497,
          "duration": 0.1666666666666643
        },
        {
          "name": "C4",
          "midi": 60,
          "time": 57.33333333333306,
          "velocity": 0.7874015748031497,
          "duration": 0.1666666666666643
        },
        {
          "name": "C4",
          "midi": 60,
          "time": 57.66666666666639,
          "velocity": 0.7874015748031497,
          "duration": 0.1666666666666643
        },
        {
          "name": "C4",
          "midi": 60,
          "time": 57.999999999999716,
          "velocity": 0.7874015748031497,
          "duration": 0.1666666666666643
        },
        {
          "name": "C4",
          "midi": 60,
          "time": 58.333333333333044,
          "velocity": 0.7874015748031497,
          "duration": 0.1666666666666643
        },
        {
          "name": "C4",
          "midi": 60,
          "time": 58.66666666666637,
          "velocity": 0.7874015748031497,
          "duration": 0.1666666666666643
        },
        {
          "name": "C4",
          "midi": 60,
          "time": 58.9999999999997,
          "velocity": 0.7874015748031497,
          "duration": 0.1666666666666643
        },
        {
          "name": "C4",
          "midi": 60,
          "time": 59.33333333333303,
          "velocity": 0.7874015748031497,
          "duration": 0.1666666666666643
        },
        {
          "name": "C4",
          "midi": 60,
          "time": 59.66666666666636,
          "velocity": 0.7874015748031497,
          "duration": 0.1666666666666643
        },
        {
          "name": "C4",
          "midi": 60,
          "time": 59.99999999999969,
          "velocity": 0.7874015748031497,
          "duration": 0.1666666666666643
        },
        {
          "name": "C4",
          "midi": 60,
          "time": 60.333333333333016,
          "velocity": 0.7874015748031497,
          "duration": 0.1666666666666643
        },
        {
          "name": "C4",
          "midi": 60,
          "time": 60.666666666666345,
          "velocity": 0.7874015748031497,
          "duration": 0.1666666666666643
        },
        {
          "name": "C4",
          "midi": 60,
          "time": 60.99999999999967,
          "velocity": 0.7874015748031497,
          "duration": 0.1666666666666643
        },
        {
          "name": "C4",
          "midi": 60,
          "time": 61.333333333333,
          "velocity": 0.7874015748031497,
          "duration": 0.1666666666666643
        },
        {
          "name": "C4",
          "midi": 60,
          "time": 61.66666666666633,
          "velocity": 0.7874015748031497,
          "duration": 0.1666666666666643
        },
        {
          "name": "C4",
          "midi": 60,
          "time": 61.99999999999966,
          "velocity": 0.7874015748031497,
          "duration": 0.1666666666666643
        },
        {
          "name": "C4",
          "midi": 60,
          "time": 62.33333333333299,
          "velocity": 0.7874015748031497,
          "duration": 0.1666666666666643
        },
        {
          "name": "C4",
          "midi": 60,
          "time": 62.666666666666316,
          "velocity": 0.7874015748031497,
          "duration": 0.1666666666666643
        },
        {
          "name": "C4",
          "midi": 60,
          "time": 62.999999999999645,
          "velocity": 0.7874015748031497,
          "duration": 0.1666666666666643
        },
        {
          "name": "C4",
          "midi": 60,
          "time": 63.33333333333297,
          "velocity": 0.7874015748031497,
          "duration": 0.1666666666666643
        },
        {
          "name": "C4",
          "midi": 60,
          "time": 63.6666666666663,
          "velocity": 0.7874015748031497,
          "duration": 0.1666666666666643
        },
        {
          "name": "C4",
          "midi": 60,
          "time": 63.99999999999963,
          "velocity": 0.7874015748031497,
          "duration": 0.1666666666666714
        },
        {
          "name": "C4",
          "midi": 60,
          "time": 64.33333333333297,
          "velocity": 0.7874015748031497,
          "duration": 0.1666666666666714
        },
        {
          "name": "C4",
          "midi": 60,
          "time": 64.66666666666632,
          "velocity": 0.7874015748031497,
          "duration": 0.1666666666666714
        },
        {
          "name": "C4",
          "midi": 60,
          "time": 64.99999999999966,
          "velocity": 0.7874015748031497,
          "duration": 0.1666666666666714
        },
        {
          "name": "C4",
          "midi": 60,
          "time": 65.333333333333,
          "velocity": 0.7874015748031497,
          "duration": 0.1666666666666714
        },
        {
          "name": "C4",
          "midi": 60,
          "time": 65.66666666666634,
          "velocity": 0.7874015748031497,
          "duration": 0.1666666666666714
        },
        {
          "name": "C4",
          "midi": 60,
          "time": 65.99999999999969,
          "velocity": 0.7874015748031497,
          "duration": 0.1666666666666714
        },
        {
          "name": "C4",
          "midi": 60,
          "time": 66.33333333333303,
          "velocity": 0.7874015748031497,
          "duration": 0.1666666666666714
        },
        {
          "name": "C4",
          "midi": 60,
          "time": 66.66666666666637,
          "velocity": 0.7874015748031497,
          "duration": 0.1666666666666714
        },
        {
          "name": "C4",
          "midi": 60,
          "time": 66.99999999999972,
          "velocity": 0.7874015748031497,
          "duration": 0.1666666666666714
        },
        {
          "name": "C4",
          "midi": 60,
          "time": 67.33333333333306,
          "velocity": 0.7874015748031497,
          "duration": 0.1666666666666714
        },
        {
          "name": "C4",
          "midi": 60,
          "time": 67.6666666666664,
          "velocity": 0.7874015748031497,
          "duration": 0.1666666666666714
        },
        {
          "name": "C4",
          "midi": 60,
          "time": 67.99999999999974,
          "velocity": 0.7874015748031497,
          "duration": 0.1666666666666714
        },
        {
          "name": "C4",
          "midi": 60,
          "time": 68.33333333333309,
          "velocity": 0.7874015748031497,
          "duration": 0.1666666666666714
        },
        {
          "name": "C4",
          "midi": 60,
          "time": 68.66666666666643,
          "velocity": 0.7874015748031497,
          "duration": 0.1666666666666714
        },
        {
          "name": "C4",
          "midi": 60,
          "time": 68.99999999999977,
          "velocity": 0.7874015748031497,
          "duration": 0.1666666666666714
        },
        {
          "name": "C4",
          "midi": 60,
          "time": 69.33333333333312,
          "velocity": 0.7874015748031497,
          "duration": 0.1666666666666714
        },
        {
          "name": "C4",
          "midi": 60,
          "time": 69.66666666666646,
          "velocity": 0.7874015748031497,
          "duration": 0.1666666666666714
        },
        {
          "name": "C4",
          "midi": 60,
          "time": 69.9999999999998,
          "velocity": 0.7874015748031497,
          "duration": 0.1666666666666714
        },
        {
          "name": "C4",
          "midi": 60,
          "time": 70.33333333333314,
          "velocity": 0.7874015748031497,
          "duration": 0.1666666666666714
        },
        {
          "name": "C4",
          "midi": 60,
          "time": 70.66666666666649,
          "velocity": 0.7874015748031497,
          "duration": 0.1666666666666714
        },
        {
          "name": "C4",
          "midi": 60,
          "time": 70.99999999999983,
          "velocity": 0.7874015748031497,
          "duration": 0.1666666666666714
        },
        {
          "name": "C4",
          "midi": 60,
          "time": 71.33333333333317,
          "velocity": 0.7874015748031497,
          "duration": 0.1666666666666714
        },
        {
          "name": "C4",
          "midi": 60,
          "time": 71.66666666666652,
          "velocity": 0.7874015748031497,
          "duration": 0.1666666666666714
        },
        {
          "name": "C4",
          "midi": 60,
          "time": 71.99999999999986,
          "velocity": 0.7874015748031497,
          "duration": 0.1666666666666714
        },
        {
          "name": "C4",
          "midi": 60,
          "time": 72.3333333333332,
          "velocity": 0.7874015748031497,
          "duration": 0.1666666666666714
        },
        {
          "name": "C4",
          "midi": 60,
          "time": 72.66666666666654,
          "velocity": 0.7874015748031497,
          "duration": 0.1666666666666714
        },
        {
          "name": "C4",
          "midi": 60,
          "time": 72.99999999999989,
          "velocity": 0.7874015748031497,
          "duration": 0.1666666666666714
        },
        {
          "name": "C4",
          "midi": 60,
          "time": 73.33333333333323,
          "velocity": 0.7874015748031497,
          "duration": 0.1666666666666714
        },
        {
          "name": "C4",
          "midi": 60,
          "time": 73.66666666666657,
          "velocity": 0.7874015748031497,
          "duration": 0.1666666666666714
        },
        {
          "name": "C4",
          "midi": 60,
          "time": 73.99999999999991,
          "velocity": 0.7874015748031497,
          "duration": 0.1666666666666714
        },
        {
          "name": "C4",
          "midi": 60,
          "time": 74.33333333333326,
          "velocity": 0.7874015748031497,
          "duration": 0.1666666666666714
        },
        {
          "name": "C4",
          "midi": 60,
          "time": 74.6666666666666,
          "velocity": 0.7874015748031497,
          "duration": 0.1666666666666714
        },
        {
          "name": "C4",
          "midi": 60,
          "time": 74.99999999999994,
          "velocity": 0.7874015748031497,
          "duration": 0.1666666666666714
        },
        {
          "name": "C4",
          "midi": 60,
          "time": 75.33333333333329,
          "velocity": 0.7874015748031497,
          "duration": 0.1666666666666714
        },
        {
          "name": "C4",
          "midi": 60,
          "time": 75.66666666666663,
          "velocity": 0.7874015748031497,
          "duration": 0.1666666666666714
        },
        {
          "name": "C4",
          "midi": 60,
          "time": 75.99999999999997,
          "velocity": 0.7874015748031497,
          "duration": 0.1666666666666714
        },
        {
          "name": "C4",
          "midi": 60,
          "time": 76.33333333333331,
          "velocity": 0.7874015748031497,
          "duration": 0.1666666666666714
        },
        {
          "name": "C4",
          "midi": 60,
          "time": 76.66666666666666,
          "velocity": 0.7874015748031497,
          "duration": 0.1666666666666714
        },
        {
          "name": "C4",
          "midi": 60,
          "time": 77,
          "velocity": 0.7874015748031497,
          "duration": 0.1666666666666714
        },
        {
          "name": "C4",
          "midi": 60,
          "time": 77.33333333333334,
          "velocity": 0.7874015748031497,
          "duration": 0.1666666666666714
        },
        {
          "name": "C4",
          "midi": 60,
          "time": 77.66666666666669,
          "velocity": 0.7874015748031497,
          "duration": 0.1666666666666714
        },
        {
          "name": "C4",
          "midi": 60,
          "time": 78.00000000000003,
          "velocity": 0.7874015748031497,
          "duration": 0.1666666666666714
        },
        {
          "name": "C4",
          "midi": 60,
          "time": 78.33333333333337,
          "velocity": 0.7874015748031497,
          "duration": 0.1666666666666714
        },
        {
          "name": "C4",
          "midi": 60,
          "time": 78.66666666666671,
          "velocity": 0.7874015748031497,
          "duration": 0.1666666666666714
        },
        {
          "name": "C4",
          "midi": 60,
          "time": 79.00000000000006,
          "velocity": 0.7874015748031497,
          "duration": 0.1666666666666714
        },
        {
          "name": "C4",
          "midi": 60,
          "time": 79.3333333333334,
          "velocity": 0.7874015748031497,
          "duration": 0.1666666666666714
        },
        {
          "name": "C4",
          "midi": 60,
          "time": 79.66666666666674,
          "velocity": 0.7874015748031497,
          "duration": 0.1666666666666714
        },
        {
          "name": "C4",
          "midi": 60,
          "time": 80.00000000000009,
          "velocity": 0.7874015748031497,
          "duration": 0.1666666666666714
        },
        {
          "name": "C4",
          "midi": 60,
          "time": 80.33333333333343,
          "velocity": 0.7874015748031497,
          "duration": 0.1666666666666714
        },
        {
          "name": "C4",
          "midi": 60,
          "time": 80.66666666666677,
          "velocity": 0.7874015748031497,
          "duration": 0.1666666666666714
        },
        {
          "name": "C4",
          "midi": 60,
          "time": 81.00000000000011,
          "velocity": 0.7874015748031497,
          "duration": 0.1666666666666714
        },
        {
          "name": "C4",
          "midi": 60,
          "time": 81.33333333333346,
          "velocity": 0.7874015748031497,
          "duration": 0.1666666666666714
        },
        {
          "name": "C4",
          "midi": 60,
          "time": 81.6666666666668,
          "velocity": 0.7874015748031497,
          "duration": 0.1666666666666714
        },
        {
          "name": "C4",
          "midi": 60,
          "time": 82.00000000000014,
          "velocity": 0.7874015748031497,
          "duration": 0.1666666666666714
        },
        {
          "name": "C4",
          "midi": 60,
          "time": 82.33333333333348,
          "velocity": 0.7874015748031497,
          "duration": 0.1666666666666714
        },
        {
          "name": "C4",
          "midi": 60,
          "time": 82.66666666666683,
          "velocity": 0.7874015748031497,
          "duration": 0.1666666666666714
        },
        {
          "name": "C4",
          "midi": 60,
          "time": 83.00000000000017,
          "velocity": 0.7874015748031497,
          "duration": 0.1666666666666714
        },
        {
          "name": "C4",
          "midi": 60,
          "time": 83.33333333333351,
          "velocity": 0.7874015748031497,
          "duration": 0.1666666666666714
        },
        {
          "name": "C4",
          "midi": 60,
          "time": 83.66666666666686,
          "velocity": 0.7874015748031497,
          "duration": 0.1666666666666714
        },
        {
          "name": "C4",
          "midi": 60,
          "time": 84.0000000000002,
          "velocity": 0.7874015748031497,
          "duration": 0.1666666666666714
        },
        {
          "name": "C4",
          "midi": 60,
          "time": 84.33333333333354,
          "velocity": 0.7874015748031497,
          "duration": 0.1666666666666714
        },
        {
          "name": "C4",
          "midi": 60,
          "time": 84.66666666666688,
          "velocity": 0.7874015748031497,
          "duration": 0.1666666666666714
        },
        {
          "name": "C4",
          "midi": 60,
          "time": 85.00000000000023,
          "velocity": 0.7874015748031497,
          "duration": 0.1666666666666714
        },
        {
          "name": "C4",
          "midi": 60,
          "time": 85.33333333333357,
          "velocity": 0.7874015748031497,
          "duration": 0.1666666666666714
        },
        {
          "name": "C4",
          "midi": 60,
          "time": 85.66666666666691,
          "velocity": 0.7874015748031497,
          "duration": 0.1666666666666714
        },
        {
          "name": "C4",
          "midi": 60,
          "time": 86.00000000000026,
          "velocity": 0.7874015748031497,
          "duration": 0.1666666666666714
        },
        {
          "name": "C4",
          "midi": 60,
          "time": 86.3333333333336,
          "velocity": 0.7874015748031497,
          "duration": 0.1666666666666714
        },
        {
          "name": "C4",
          "midi": 60,
          "time": 86.66666666666694,
          "velocity": 0.7874015748031497,
          "duration": 0.1666666666666714
        },
        {
          "name": "C4",
          "midi": 60,
          "time": 87.00000000000028,
          "velocity": 0.7874015748031497,
          "duration": 0.1666666666666714
        },
        {
          "name": "C4",
          "midi": 60,
          "time": 87.33333333333363,
          "velocity": 0.7874015748031497,
          "duration": 0.1666666666666714
        },
        {
          "name": "C4",
          "midi": 60,
          "time": 87.66666666666697,
          "velocity": 0.7874015748031497,
          "duration": 0.1666666666666714
        },
        {
          "name": "C4",
          "midi": 60,
          "time": 88.00000000000031,
          "velocity": 0.7874015748031497,
          "duration": 0.1666666666666714
        },
        {
          "name": "C4",
          "midi": 60,
          "time": 88.33333333333366,
          "velocity": 0.7874015748031497,
          "duration": 0.1666666666666714
        },
        {
          "name": "C4",
          "midi": 60,
          "time": 88.666666666667,
          "velocity": 0.7874015748031497,
          "duration": 0.1666666666666714
        },
        {
          "name": "C4",
          "midi": 60,
          "time": 89.00000000000034,
          "velocity": 0.7874015748031497,
          "duration": 0.1666666666666714
        },
        {
          "name": "C4",
          "midi": 60,
          "time": 89.33333333333368,
          "velocity": 0.7874015748031497,
          "duration": 0.1666666666666714
        },
        {
          "name": "C4",
          "midi": 60,
          "time": 89.66666666666703,
          "velocity": 0.7874015748031497,
          "duration": 0.1666666666666714
        },
        {
          "name": "C4",
          "midi": 60,
          "time": 90.00000000000037,
          "velocity": 0.7874015748031497,
          "duration": 0.1666666666666714
        },
        {
          "name": "C4",
          "midi": 60,
          "time": 90.33333333333371,
          "velocity": 0.7874015748031497,
          "duration": 0.1666666666666714
        },
        {
          "name": "C4",
          "midi": 60,
          "time": 90.66666666666706,
          "velocity": 0.7874015748031497,
          "duration": 0.1666666666666714
        },
        {
          "name": "C4",
          "midi": 60,
          "time": 91.0000000000004,
          "velocity": 0.7874015748031497,
          "duration": 0.1666666666666714
        },
        {
          "name": "C4",
          "midi": 60,
          "time": 91.33333333333374,
          "velocity": 0.7874015748031497,
          "duration": 0.1666666666666714
        },
        {
          "name": "C4",
          "midi": 60,
          "time": 91.66666666666708,
          "velocity": 0.7874015748031497,
          "duration": 0.1666666666666714
        },
        {
          "name": "C4",
          "midi": 60,
          "time": 92.00000000000043,
          "velocity": 0.7874015748031497,
          "duration": 0.1666666666666714
        },
        {
          "name": "C4",
          "midi": 60,
          "time": 92.33333333333377,
          "velocity": 0.7874015748031497,
          "duration": 0.1666666666666714
        },
        {
          "name": "C4",
          "midi": 60,
          "time": 92.66666666666711,
          "velocity": 0.7874015748031497,
          "duration": 0.1666666666666714
        },
        {
          "name": "C4",
          "midi": 60,
          "time": 93.00000000000045,
          "velocity": 0.7874015748031497,
          "duration": 0.1666666666666714
        },
        {
          "name": "C4",
          "midi": 60,
          "time": 93.3333333333338,
          "velocity": 0.7874015748031497,
          "duration": 0.1666666666666714
        },
        {
          "name": "C4",
          "midi": 60,
          "time": 93.66666666666714,
          "velocity": 0.7874015748031497,
          "duration": 0.1666666666666714
        },
        {
          "name": "C4",
          "midi": 60,
          "time": 94.00000000000048,
          "velocity": 0.7874015748031497,
          "duration": 0.1666666666666714
        },
        {
          "name": "C4",
          "midi": 60,
          "time": 94.33333333333383,
          "velocity": 0.7874015748031497,
          "duration": 0.1666666666666714
        },
        {
          "name": "C4",
          "midi": 60,
          "time": 94.66666666666717,
          "velocity": 0.7874015748031497,
          "duration": 0.1666666666666714
        },
        {
          "name": "C4",
          "midi": 60,
          "time": 95.00000000000051,
          "velocity": 0.7874015748031497,
          "duration": 0.1666666666666714
        },
        {
          "name": "C4",
          "midi": 60,
          "time": 95.33333333333385,
          "velocity": 0.7874015748031497,
          "duration": 0.1666666666666714
        },
        {
          "name": "C4",
          "midi": 60,
          "time": 95.6666666666672,
          "velocity": 0.7874015748031497,
          "duration": 0.1666666666666714
        },
        {
          "name": "C4",
          "midi": 60,
          "time": 96.00000000000054,
          "velocity": 0.7874015748031497,
          "duration": 0.1666666666666714
        },
        {
          "name": "C4",
          "midi": 60,
          "time": 96.33333333333388,
          "velocity": 0.7874015748031497,
          "duration": 0.1666666666666714
        },
        {
          "name": "C4",
          "midi": 60,
          "time": 96.66666666666723,
          "velocity": 0.7874015748031497,
          "duration": 0.1666666666666714
        },
        {
          "name": "C4",
          "midi": 60,
          "time": 97.00000000000057,
          "velocity": 0.7874015748031497,
          "duration": 0.1666666666666714
        },
        {
          "name": "C4",
          "midi": 60,
          "time": 97.33333333333391,
          "velocity": 0.7874015748031497,
          "duration": 0.1666666666666714
        },
        {
          "name": "C4",
          "midi": 60,
          "time": 97.66666666666725,
          "velocity": 0.7874015748031497,
          "duration": 0.1666666666666714
        },
        {
          "name": "C4",
          "midi": 60,
          "time": 98.0000000000006,
          "velocity": 0.7874015748031497,
          "duration": 0.1666666666666714
        },
        {
          "name": "C4",
          "midi": 60,
          "time": 98.33333333333394,
          "velocity": 0.7874015748031497,
          "duration": 0.1666666666666714
        },
        {
          "name": "C4",
          "midi": 60,
          "time": 98.66666666666728,
          "velocity": 0.7874015748031497,
          "duration": 0.1666666666666714
        },
        {
          "name": "C4",
          "midi": 60,
          "time": 99.00000000000063,
          "velocity": 0.7874015748031497,
          "duration": 0.1666666666666714
        },
        {
          "name": "C4",
          "midi": 60,
          "time": 99.33333333333397,
          "velocity": 0.7874015748031497,
          "duration": 0.1666666666666714
        },
        {
          "name": "C4",
          "midi": 60,
          "time": 99.66666666666731,
          "velocity": 0.7874015748031497,
          "duration": 0.1666666666666714
        },
        {
          "name": "C4",
          "midi": 60,
          "time": 100.00000000000065,
          "velocity": 0.7874015748031497,
          "duration": 0.1666666666666714
        },
        {
          "name": "C4",
          "midi": 60,
          "time": 100.333333333334,
          "velocity": 0.7874015748031497,
          "duration": 0.1666666666666714
        },
        {
          "name": "C4",
          "midi": 60,
          "time": 100.66666666666734,
          "velocity": 0.7874015748031497,
          "duration": 0.1666666666666714
        },
        {
          "name": "C4",
          "midi": 60,
          "time": 101.00000000000068,
          "velocity": 0.7874015748031497,
          "duration": 0.1666666666666714
        },
        {
          "name": "C4",
          "midi": 60,
          "time": 101.33333333333402,
          "velocity": 0.7874015748031497,
          "duration": 0.1666666666666714
        },
        {
          "name": "C4",
          "midi": 60,
          "time": 101.66666666666737,
          "velocity": 0.7874015748031497,
          "duration": 0.1666666666666714
        },
        {
          "name": "C4",
          "midi": 60,
          "time": 102.00000000000071,
          "velocity": 0.7874015748031497,
          "duration": 0.1666666666666714
        },
        {
          "name": "C4",
          "midi": 60,
          "time": 102.33333333333405,
          "velocity": 0.7874015748031497,
          "duration": 0.1666666666666714
        },
        {
          "name": "C4",
          "midi": 60,
          "time": 102.6666666666674,
          "velocity": 0.7874015748031497,
          "duration": 0.1666666666666714
        },
        {
          "name": "C4",
          "midi": 60,
          "time": 103.00000000000074,
          "velocity": 0.7874015748031497,
          "duration": 0.1666666666666714
        },
        {
          "name": "C4",
          "midi": 60,
          "time": 103.33333333333408,
          "velocity": 0.7874015748031497,
          "duration": 0.1666666666666714
        },
        {
          "name": "C4",
          "midi": 60,
          "time": 103.66666666666742,
          "velocity": 0.7874015748031497,
          "duration": 0.1666666666666714
        },
        {
          "name": "C4",
          "midi": 60,
          "time": 104.00000000000077,
          "velocity": 0.7874015748031497,
          "duration": 0.1666666666666714
        },
        {
          "name": "C4",
          "midi": 60,
          "time": 104.33333333333411,
          "velocity": 0.7874015748031497,
          "duration": 0.1666666666666714
        },
        {
          "name": "C4",
          "midi": 60,
          "time": 104.66666666666745,
          "velocity": 0.7874015748031497,
          "duration": 0.1666666666666714
        },
        {
          "name": "C4",
          "midi": 60,
          "time": 105.0000000000008,
          "velocity": 0.7874015748031497,
          "duration": 0.1666666666666714
        },
        {
          "name": "C4",
          "midi": 60,
          "time": 105.33333333333414,
          "velocity": 0.7874015748031497,
          "duration": 0.1666666666666714
        },
        {
          "name": "C4",
          "midi": 60,
          "time": 105.66666666666748,
          "velocity": 0.7874015748031497,
          "duration": 0.1666666666666714
        },
        {
          "name": "C4",
          "midi": 60,
          "time": 106.00000000000082,
          "velocity": 0.7874015748031497,
          "duration": 0.1666666666666714
        },
        {
          "name": "C4",
          "midi": 60,
          "time": 106.33333333333417,
          "velocity": 0.7874015748031497,
          "duration": 0.1666666666666714
        },
        {
          "name": "C4",
          "midi": 60,
          "time": 106.66666666666751,
          "velocity": 0.7874015748031497,
          "duration": 0.1666666666666714
        },
        {
          "name": "C4",
          "midi": 60,
          "time": 107.00000000000085,
          "velocity": 0.7874015748031497,
          "duration": 0.1666666666666714
        },
        {
          "name": "C4",
          "midi": 60,
          "time": 107.3333333333342,
          "velocity": 0.7874015748031497,
          "duration": 0.1666666666666714
        },
        {
          "name": "C4",
          "midi": 60,
          "time": 107.66666666666754,
          "velocity": 0.7874015748031497,
          "duration": 0.1666666666666714
        },
        {
          "name": "C4",
          "midi": 60,
          "time": 108.00000000000088,
          "velocity": 0.7874015748031497,
          "duration": 0.1666666666666714
        },
        {
          "name": "C4",
          "midi": 60,
          "time": 108.33333333333422,
          "velocity": 0.7874015748031497,
          "duration": 0.1666666666666714
        },
        {
          "name": "C4",
          "midi": 60,
          "time": 108.66666666666757,
          "velocity": 0.7874015748031497,
          "duration": 0.1666666666666714
        },
        {
          "name": "C4",
          "midi": 60,
          "time": 109.00000000000091,
          "velocity": 0.7874015748031497,
          "duration": 0.1666666666666714
        },
        {
          "name": "C4",
          "midi": 60,
          "time": 109.33333333333425,
          "velocity": 0.7874015748031497,
          "duration": 0.1666666666666714
        },
        {
          "name": "C4",
          "midi": 60,
          "time": 109.6666666666676,
          "velocity": 0.7874015748031497,
          "duration": 0.1666666666666714
        },
        {
          "name": "C4",
          "midi": 60,
          "time": 110.00000000000094,
          "velocity": 0.7874015748031497,
          "duration": 0.1666666666666714
        },
        {
          "name": "C4",
          "midi": 60,
          "time": 110.33333333333428,
          "velocity": 0.7874015748031497,
          "duration": 0.1666666666666714
        },
        {
          "name": "C4",
          "midi": 60,
          "time": 110.66666666666762,
          "velocity": 0.7874015748031497,
          "duration": 0.1666666666666714
        },
        {
          "name": "C4",
          "midi": 60,
          "time": 111.00000000000097,
          "velocity": 0.7874015748031497,
          "duration": 0.1666666666666714
        },
        {
          "name": "C4",
          "midi": 60,
          "time": 111.33333333333431,
          "velocity": 0.7874015748031497,
          "duration": 0.1666666666666714
        },
        {
          "name": "C4",
          "midi": 60,
          "time": 111.66666666666765,
          "velocity": 0.7874015748031497,
          "duration": 0.1666666666666714
        },
        {
          "name": "C4",
          "midi": 60,
          "time": 112.000000000001,
          "velocity": 0.7874015748031497,
          "duration": 0.1666666666666714
        },
        {
          "name": "C4",
          "midi": 60,
          "time": 112.33333333333434,
          "velocity": 0.7874015748031497,
          "duration": 0.1666666666666714
        },
        {
          "name": "C4",
          "midi": 60,
          "time": 112.66666666666768,
          "velocity": 0.7874015748031497,
          "duration": 0.1666666666666714
        },
        {
          "name": "C4",
          "midi": 60,
          "time": 113.00000000000102,
          "velocity": 0.7874015748031497,
          "duration": 0.1666666666666714
        },
        {
          "name": "C4",
          "midi": 60,
          "time": 113.33333333333437,
          "velocity": 0.7874015748031497,
          "duration": 0.1666666666666714
        },
        {
          "name": "C4",
          "midi": 60,
          "time": 113.66666666666771,
          "velocity": 0.7874015748031497,
          "duration": 0.1666666666666714
        },
        {
          "name": "C4",
          "midi": 60,
          "time": 114.00000000000105,
          "velocity": 0.7874015748031497,
          "duration": 0.1666666666666714
        },
        {
          "name": "C4",
          "midi": 60,
          "time": 114.3333333333344,
          "velocity": 0.7874015748031497,
          "duration": 0.1666666666666714
        },
        {
          "name": "C4",
          "midi": 60,
          "time": 114.66666666666774,
          "velocity": 0.7874015748031497,
          "duration": 0.1666666666666714
        },
        {
          "name": "C4",
          "midi": 60,
          "time": 115.00000000000108,
          "velocity": 0.7874015748031497,
          "duration": 0.1666666666666714
        },
        {
          "name": "C4",
          "midi": 60,
          "time": 115.33333333333442,
          "velocity": 0.7874015748031497,
          "duration": 0.1666666666666714
        },
        {
          "name": "C4",
          "midi": 60,
          "time": 115.66666666666777,
          "velocity": 0.7874015748031497,
          "duration": 0.1666666666666714
        },
        {
          "name": "C4",
          "midi": 60,
          "time": 116.00000000000111,
          "velocity": 0.7874015748031497,
          "duration": 0.1666666666666714
        },
        {
          "name": "C4",
          "midi": 60,
          "time": 116.33333333333445,
          "velocity": 0.7874015748031497,
          "duration": 0.1666666666666714
        },
        {
          "name": "C4",
          "midi": 60,
          "time": 116.6666666666678,
          "velocity": 0.7874015748031497,
          "duration": 0.1666666666666714
        },
        {
          "name": "C4",
          "midi": 60,
          "time": 117.00000000000114,
          "velocity": 0.7874015748031497,
          "duration": 0.1666666666666714
        },
        {
          "name": "C4",
          "midi": 60,
          "time": 117.33333333333448,
          "velocity": 0.7874015748031497,
          "duration": 0.1666666666666714
        },
        {
          "name": "C4",
          "midi": 60,
          "time": 117.66666666666782,
          "velocity": 0.7874015748031497,
          "duration": 0.1666666666666714
        },
        {
          "name": "C4",
          "midi": 60,
          "time": 118.00000000000117,
          "velocity": 0.7874015748031497,
          "duration": 0.1666666666666714
        },
        {
          "name": "C4",
          "midi": 60,
          "time": 118.33333333333451,
          "velocity": 0.7874015748031497,
          "duration": 0.1666666666666714
        },
        {
          "name": "C4",
          "midi": 60,
          "time": 118.66666666666785,
          "velocity": 0.7874015748031497,
          "duration": 0.1666666666666714
        },
        {
          "name": "C4",
          "midi": 60,
          "time": 119.0000000000012,
          "velocity": 0.7874015748031497,
          "duration": 0.1666666666666714
        },
        {
          "name": "C4",
          "midi": 60,
          "time": 119.33333333333454,
          "velocity": 0.7874015748031497,
          "duration": 0.1666666666666714
        },
        {
          "name": "C4",
          "midi": 60,
          "time": 119.66666666666788,
          "velocity": 0.7874015748031497,
          "duration": 0.1666666666666714
        },
        {
          "name": "C4",
          "midi": 60,
          "time": 120.00000000000122,
          "velocity": 0.7874015748031497,
          "duration": 0.1666666666666714
        },
        {
          "name": "C4",
          "midi": 60,
          "time": 120.33333333333456,
          "velocity": 0.7874015748031497,
          "duration": 0.1666666666666714
        },
        {
          "name": "C4",
          "midi": 60,
          "time": 120.66666666666791,
          "velocity": 0.7874015748031497,
          "duration": 0.1666666666666714
        },
        {
          "name": "C4",
          "midi": 60,
          "time": 121.00000000000125,
          "velocity": 0.7874015748031497,
          "duration": 0.1666666666666714
        },
        {
          "name": "C4",
          "midi": 60,
          "time": 121.3333333333346,
          "velocity": 0.7874015748031497,
          "duration": 0.1666666666666714
        },
        {
          "name": "C4",
          "midi": 60,
          "time": 121.66666666666794,
          "velocity": 0.7874015748031497,
          "duration": 0.1666666666666714
        },
        {
          "name": "C4",
          "midi": 60,
          "time": 122.00000000000128,
          "velocity": 0.7874015748031497,
          "duration": 0.1666666666666714
        },
        {
          "name": "C4",
          "midi": 60,
          "time": 122.33333333333462,
          "velocity": 0.7874015748031497,
          "duration": 0.1666666666666714
        },
        {
          "name": "C4",
          "midi": 60,
          "time": 122.66666666666796,
          "velocity": 0.7874015748031497,
          "duration": 0.1666666666666714
        },
        {
          "name": "C4",
          "midi": 60,
          "time": 123.00000000000131,
          "velocity": 0.7874015748031497,
          "duration": 0.1666666666666714
        },
        {
          "name": "C4",
          "midi": 60,
          "time": 123.33333333333465,
          "velocity": 0.7874015748031497,
          "duration": 0.1666666666666714
        },
        {
          "name": "C4",
          "midi": 60,
          "time": 123.666666666668,
          "velocity": 0.7874015748031497,
          "duration": 0.1666666666666714
        },
        {
          "name": "C4",
          "midi": 60,
          "time": 124.00000000000134,
          "velocity": 0.7874015748031497,
          "duration": 0.1666666666666714
        },
        {
          "name": "C4",
          "midi": 60,
          "time": 124.33333333333468,
          "velocity": 0.7874015748031497,
          "duration": 0.1666666666666714
        },
        {
          "name": "C4",
          "midi": 60,
          "time": 124.66666666666802,
          "velocity": 0.7874015748031497,
          "duration": 0.1666666666666714
        },
        {
          "name": "C4",
          "midi": 60,
          "time": 125.00000000000136,
          "velocity": 0.7874015748031497,
          "duration": 0.1666666666666714
        },
        {
          "name": "C4",
          "midi": 60,
          "time": 125.3333333333347,
          "velocity": 0.7874015748031497,
          "duration": 0.1666666666666714
        },
        {
          "name": "C4",
          "midi": 60,
          "time": 125.66666666666805,
          "velocity": 0.7874015748031497,
          "duration": 0.1666666666666714
        },
        {
          "name": "C4",
          "midi": 60,
          "time": 126.00000000000139,
          "velocity": 0.7874015748031497,
          "duration": 0.1666666666666714
        },
        {
          "name": "C4",
          "midi": 60,
          "time": 126.33333333333474,
          "velocity": 0.7874015748031497,
          "duration": 0.1666666666666714
        },
        {
          "name": "C4",
          "midi": 60,
          "time": 126.66666666666808,
          "velocity": 0.7874015748031497,
          "duration": 0.1666666666666714
        },
        {
          "name": "C4",
          "midi": 60,
          "time": 127.00000000000142,
          "velocity": 0.7874015748031497,
          "duration": 0.1666666666666714
        },
        {
          "name": "C4",
          "midi": 60,
          "time": 127.33333333333476,
          "velocity": 0.7874015748031497,
          "duration": 0.1666666666666714
        },
        {
          "name": "C4",
          "midi": 60,
          "time": 127.6666666666681,
          "velocity": 0.7874015748031497,
          "duration": 0.1666666666666714
        },
        {
          "name": "C4",
          "midi": 60,
          "time": 128.00000000000145,
          "velocity": 0.7874015748031497,
          "duration": 0.1666666666666572
        },
        {
          "name": "C4",
          "midi": 60,
          "time": 128.33333333333476,
          "velocity": 0.7874015748031497,
          "duration": 0.1666666666666572
        },
        {
          "name": "C4",
          "midi": 60,
          "time": 128.66666666666808,
          "velocity": 0.7874015748031497,
          "duration": 0.1666666666666572
        },
        {
          "name": "C4",
          "midi": 60,
          "time": 129.0000000000014,
          "velocity": 0.7874015748031497,
          "duration": 0.1666666666666572
        },
        {
          "name": "C4",
          "midi": 60,
          "time": 129.3333333333347,
          "velocity": 0.7874015748031497,
          "duration": 0.1666666666666572
        },
        {
          "name": "C4",
          "midi": 60,
          "time": 129.66666666666802,
          "velocity": 0.7874015748031497,
          "duration": 0.1666666666666572
        },
        {
          "name": "C4",
          "midi": 60,
          "time": 130.00000000000134,
          "velocity": 0.7874015748031497,
          "duration": 0.1666666666666572
        },
        {
          "name": "C4",
          "midi": 60,
          "time": 130.33333333333465,
          "velocity": 0.7874015748031497,
          "duration": 0.1666666666666572
        },
        {
          "name": "C4",
          "midi": 60,
          "time": 130.66666666666796,
          "velocity": 0.7874015748031497,
          "duration": 0.1666666666666572
        },
        {
          "name": "C4",
          "midi": 60,
          "time": 131.00000000000128,
          "velocity": 0.7874015748031497,
          "duration": 0.1666666666666572
        },
        {
          "name": "C4",
          "midi": 60,
          "time": 131.3333333333346,
          "velocity": 0.7874015748031497,
          "duration": 0.1666666666666572
        },
        {
          "name": "C4",
          "midi": 60,
          "time": 131.6666666666679,
          "velocity": 0.7874015748031497,
          "duration": 0.1666666666666572
        },
        {
          "name": "C4",
          "midi": 60,
          "time": 132.00000000000122,
          "velocity": 0.7874015748031497,
          "duration": 0.1666666666666572
        },
        {
          "name": "C4",
          "midi": 60,
          "time": 132.33333333333454,
          "velocity": 0.7874015748031497,
          "duration": 0.1666666666666572
        },
        {
          "name": "C4",
          "midi": 60,
          "time": 132.66666666666785,
          "velocity": 0.7874015748031497,
          "duration": 0.1666666666666572
        },
        {
          "name": "C4",
          "midi": 60,
          "time": 133.00000000000117,
          "velocity": 0.7874015748031497,
          "duration": 0.1666666666666572
        },
        {
          "name": "C4",
          "midi": 60,
          "time": 133.33333333333448,
          "velocity": 0.7874015748031497,
          "duration": 0.1666666666666572
        },
        {
          "name": "C4",
          "midi": 60,
          "time": 133.6666666666678,
          "velocity": 0.7874015748031497,
          "duration": 0.1666666666666572
        },
        {
          "name": "C4",
          "midi": 60,
          "time": 134.0000000000011,
          "velocity": 0.7874015748031497,
          "duration": 0.1666666666666572
        },
        {
          "name": "C4",
          "midi": 60,
          "time": 134.33333333333442,
          "velocity": 0.7874015748031497,
          "duration": 0.1666666666666572
        },
        {
          "name": "C4",
          "midi": 60,
          "time": 134.66666666666774,
          "velocity": 0.7874015748031497,
          "duration": 0.1666666666666572
        },
        {
          "name": "C4",
          "midi": 60,
          "time": 135.00000000000105,
          "velocity": 0.7874015748031497,
          "duration": 0.1666666666666572
        },
        {
          "name": "C4",
          "midi": 60,
          "time": 135.33333333333437,
          "velocity": 0.7874015748031497,
          "duration": 0.1666666666666572
        },
        {
          "name": "C4",
          "midi": 60,
          "time": 135.66666666666768,
          "velocity": 0.7874015748031497,
          "duration": 0.1666666666666572
        },
        {
          "name": "C4",
          "midi": 60,
          "time": 136.000000000001,
          "velocity": 0.7874015748031497,
          "duration": 0.1666666666666572
        },
        {
          "name": "C4",
          "midi": 60,
          "time": 136.3333333333343,
          "velocity": 0.7874015748031497,
          "duration": 0.1666666666666572
        },
        {
          "name": "C4",
          "midi": 60,
          "time": 136.66666666666762,
          "velocity": 0.7874015748031497,
          "duration": 0.1666666666666572
        },
        {
          "name": "C4",
          "midi": 60,
          "time": 137.00000000000094,
          "velocity": 0.7874015748031497,
          "duration": 0.1666666666666572
        },
        {
          "name": "C4",
          "midi": 60,
          "time": 137.33333333333425,
          "velocity": 0.7874015748031497,
          "duration": 0.1666666666666572
        },
        {
          "name": "C4",
          "midi": 60,
          "time": 137.66666666666757,
          "velocity": 0.7874015748031497,
          "duration": 0.1666666666666572
        },
        {
          "name": "C4",
          "midi": 60,
          "time": 138.00000000000088,
          "velocity": 0.7874015748031497,
          "duration": 0.1666666666666572
        },
        {
          "name": "C4",
          "midi": 60,
          "time": 138.3333333333342,
          "velocity": 0.7874015748031497,
          "duration": 0.1666666666666572
        },
        {
          "name": "C4",
          "midi": 60,
          "time": 138.6666666666675,
          "velocity": 0.7874015748031497,
          "duration": 0.1666666666666572
        },
        {
          "name": "C4",
          "midi": 60,
          "time": 139.00000000000082,
          "velocity": 0.7874015748031497,
          "duration": 0.1666666666666572
        },
        {
          "name": "C4",
          "midi": 60,
          "time": 139.33333333333414,
          "velocity": 0.7874015748031497,
          "duration": 0.1666666666666572
        },
        {
          "name": "C4",
          "midi": 60,
          "time": 139.66666666666745,
          "velocity": 0.7874015748031497,
          "duration": 0.1666666666666572
        },
        {
          "name": "C4",
          "midi": 60,
          "time": 140.00000000000077,
          "velocity": 0.7874015748031497,
          "duration": 0.1666666666666572
        },
        {
          "name": "C4",
          "midi": 60,
          "time": 140.33333333333408,
          "velocity": 0.7874015748031497,
          "duration": 0.1666666666666572
        },
        {
          "name": "C4",
          "midi": 60,
          "time": 140.6666666666674,
          "velocity": 0.7874015748031497,
          "duration": 0.1666666666666572
        },
        {
          "name": "C4",
          "midi": 60,
          "time": 141.0000000000007,
          "velocity": 0.7874015748031497,
          "duration": 0.1666666666666572
        },
        {
          "name": "C4",
          "midi": 60,
          "time": 141.33333333333402,
          "velocity": 0.7874015748031497,
          "duration": 0.1666666666666572
        },
        {
          "name": "C4",
          "midi": 60,
          "time": 141.66666666666734,
          "velocity": 0.7874015748031497,
          "duration": 0.1666666666666572
        },
        {
          "name": "C4",
          "midi": 60,
          "time": 142.00000000000065,
          "velocity": 0.7874015748031497,
          "duration": 0.1666666666666572
        },
        {
          "name": "C4",
          "midi": 60,
          "time": 142.33333333333397,
          "velocity": 0.7874015748031497,
          "duration": 0.1666666666666572
        },
        {
          "name": "C4",
          "midi": 60,
          "time": 142.66666666666728,
          "velocity": 0.7874015748031497,
          "duration": 0.1666666666666572
        },
        {
          "name": "C4",
          "midi": 60,
          "time": 143.0000000000006,
          "velocity": 0.7874015748031497,
          "duration": 0.1666666666666572
        },
        {
          "name": "C4",
          "midi": 60,
          "time": 143.3333333333339,
          "velocity": 0.7874015748031497,
          "duration": 0.1666666666666572
        },
        {
          "name": "C4",
          "midi": 60,
          "time": 143.66666666666723,
          "velocity": 0.7874015748031497,
          "duration": 0.1666666666666572
        },
        {
          "name": "C4",
          "midi": 60,
          "time": 144.00000000000054,
          "velocity": 0.7874015748031497,
          "duration": 0.1666666666666572
        },
        {
          "name": "C4",
          "midi": 60,
          "time": 144.33333333333385,
          "velocity": 0.7874015748031497,
          "duration": 0.1666666666666572
        },
        {
          "name": "C4",
          "midi": 60,
          "time": 144.66666666666717,
          "velocity": 0.7874015748031497,
          "duration": 0.1666666666666572
        },
        {
          "name": "C4",
          "midi": 60,
          "time": 145.00000000000048,
          "velocity": 0.7874015748031497,
          "duration": 0.1666666666666572
        },
        {
          "name": "C4",
          "midi": 60,
          "time": 145.3333333333338,
          "velocity": 0.7874015748031497,
          "duration": 0.1666666666666572
        },
        {
          "name": "C4",
          "midi": 60,
          "time": 145.6666666666671,
          "velocity": 0.7874015748031497,
          "duration": 0.1666666666666572
        },
        {
          "name": "C4",
          "midi": 60,
          "time": 146.00000000000043,
          "velocity": 0.7874015748031497,
          "duration": 0.1666666666666572
        },
        {
          "name": "C4",
          "midi": 60,
          "time": 146.33333333333374,
          "velocity": 0.7874015748031497,
          "duration": 0.1666666666666572
        },
        {
          "name": "C4",
          "midi": 60,
          "time": 146.66666666666706,
          "velocity": 0.7874015748031497,
          "duration": 0.1666666666666572
        },
        {
          "name": "C4",
          "midi": 60,
          "time": 147.00000000000037,
          "velocity": 0.7874015748031497,
          "duration": 0.1666666666666572
        },
        {
          "name": "C4",
          "midi": 60,
          "time": 147.33333333333368,
          "velocity": 0.7874015748031497,
          "duration": 0.1666666666666572
        },
        {
          "name": "C4",
          "midi": 60,
          "time": 147.666666666667,
          "velocity": 0.7874015748031497,
          "duration": 0.1666666666666572
        },
        {
          "name": "C4",
          "midi": 60,
          "time": 148.0000000000003,
          "velocity": 0.7874015748031497,
          "duration": 0.1666666666666572
        },
        {
          "name": "C4",
          "midi": 60,
          "time": 148.33333333333363,
          "velocity": 0.7874015748031497,
          "duration": 0.1666666666666572
        },
        {
          "name": "C4",
          "midi": 60,
          "time": 148.66666666666694,
          "velocity": 0.7874015748031497,
          "duration": 0.1666666666666572
        },
        {
          "name": "C4",
          "midi": 60,
          "time": 149.00000000000026,
          "velocity": 0.7874015748031497,
          "duration": 0.1666666666666572
        },
        {
          "name": "C4",
          "midi": 60,
          "time": 149.33333333333357,
          "velocity": 0.7874015748031497,
          "duration": 0.1666666666666572
        },
        {
          "name": "C4",
          "midi": 60,
          "time": 149.66666666666688,
          "velocity": 0.7874015748031497,
          "duration": 0.1666666666666572
        },
        {
          "name": "C4",
          "midi": 60,
          "time": 150.0000000000002,
          "velocity": 0.7874015748031497,
          "duration": 0.1666666666666572
        },
        {
          "name": "C4",
          "midi": 60,
          "time": 150.3333333333335,
          "velocity": 0.7874015748031497,
          "duration": 0.1666666666666572
        },
        {
          "name": "C4",
          "midi": 60,
          "time": 150.66666666666683,
          "velocity": 0.7874015748031497,
          "duration": 0.1666666666666572
        },
        {
          "name": "C4",
          "midi": 60,
          "time": 151.00000000000014,
          "velocity": 0.7874015748031497,
          "duration": 0.1666666666666572
        },
        {
          "name": "C4",
          "midi": 60,
          "time": 151.33333333333346,
          "velocity": 0.7874015748031497,
          "duration": 0.1666666666666572
        },
        {
          "name": "C4",
          "midi": 60,
          "time": 151.66666666666677,
          "velocity": 0.7874015748031497,
          "duration": 0.1666666666666572
        },
        {
          "name": "C4",
          "midi": 60,
          "time": 152.00000000000009,
          "velocity": 0.7874015748031497,
          "duration": 0.1666666666666572
        },
        {
          "name": "C4",
          "midi": 60,
          "time": 152.3333333333334,
          "velocity": 0.7874015748031497,
          "duration": 0.1666666666666572
        },
        {
          "name": "C4",
          "midi": 60,
          "time": 152.6666666666667,
          "velocity": 0.7874015748031497,
          "duration": 0.1666666666666572
        },
        {
          "name": "C4",
          "midi": 60,
          "time": 153.00000000000003,
          "velocity": 0.7874015748031497,
          "duration": 0.1666666666666572
        },
        {
          "name": "C4",
          "midi": 60,
          "time": 153.33333333333334,
          "velocity": 0.7874015748031497,
          "duration": 0.1666666666666572
        },
        {
          "name": "C4",
          "midi": 60,
          "time": 153.66666666666666,
          "velocity": 0.7874015748031497,
          "duration": 0.1666666666666572
        },
        {
          "name": "C4",
          "midi": 60,
          "time": 153.99999999999997,
          "velocity": 0.7874015748031497,
          "duration": 0.1666666666666572
        },
        {
          "name": "C4",
          "midi": 60,
          "time": 154.3333333333333,
          "velocity": 0.7874015748031497,
          "duration": 0.1666666666666572
        },
        {
          "name": "C4",
          "midi": 60,
          "time": 154.6666666666666,
          "velocity": 0.7874015748031497,
          "duration": 0.1666666666666572
        },
        {
          "name": "C4",
          "midi": 60,
          "time": 154.99999999999991,
          "velocity": 0.7874015748031497,
          "duration": 0.1666666666666572
        },
        {
          "name": "C4",
          "midi": 60,
          "time": 155.33333333333323,
          "velocity": 0.7874015748031497,
          "duration": 0.1666666666666572
        },
        {
          "name": "C4",
          "midi": 60,
          "time": 155.66666666666654,
          "velocity": 0.7874015748031497,
          "duration": 0.1666666666666572
        },
        {
          "name": "C4",
          "midi": 60,
          "time": 155.99999999999986,
          "velocity": 0.7874015748031497,
          "duration": 0.1666666666666572
        },
        {
          "name": "C4",
          "midi": 60,
          "time": 156.33333333333317,
          "velocity": 0.7874015748031497,
          "duration": 0.1666666666666572
        },
        {
          "name": "C4",
          "midi": 60,
          "time": 156.6666666666665,
          "velocity": 0.7874015748031497,
          "duration": 0.1666666666666572
        },
        {
          "name": "C4",
          "midi": 60,
          "time": 156.9999999999998,
          "velocity": 0.7874015748031497,
          "duration": 0.1666666666666572
        },
        {
          "name": "C4",
          "midi": 60,
          "time": 157.33333333333312,
          "velocity": 0.7874015748031497,
          "duration": 0.1666666666666572
        },
        {
          "name": "C4",
          "midi": 60,
          "time": 157.66666666666643,
          "velocity": 0.7874015748031497,
          "duration": 0.1666666666666572
        },
        {
          "name": "C4",
          "midi": 60,
          "time": 157.99999999999974,
          "velocity": 0.7874015748031497,
          "duration": 0.1666666666666572
        },
        {
          "name": "C4",
          "midi": 60,
          "time": 158.33333333333306,
          "velocity": 0.7874015748031497,
          "duration": 0.1666666666666572
        },
        {
          "name": "C4",
          "midi": 60,
          "time": 158.66666666666637,
          "velocity": 0.7874015748031497,
          "duration": 0.1666666666666572
        },
        {
          "name": "C4",
          "midi": 60,
          "time": 158.9999999999997,
          "velocity": 0.7874015748031497,
          "duration": 0.1666666666666572
        },
        {
          "name": "C4",
          "midi": 60,
          "time": 159.333333333333,
          "velocity": 0.7874015748031497,
          "duration": 0.1666666666666572
        },
        {
          "name": "C4",
          "midi": 60,
          "time": 159.66666666666632,
          "velocity": 0.7874015748031497,
          "duration": 0.1666666666666572
        },
        {
          "name": "C4",
          "midi": 60,
          "time": 159.99999999999963,
          "velocity": 0.7874015748031497,
          "duration": 0.1666666666666572
        },
        {
          "name": "C4",
          "midi": 60,
          "time": 160.33333333333294,
          "velocity": 0.7874015748031497,
          "duration": 0.1666666666666572
        },
        {
          "name": "C4",
          "midi": 60,
          "time": 160.66666666666626,
          "velocity": 0.7874015748031497,
          "duration": 0.1666666666666572
        },
        {
          "name": "C4",
          "midi": 60,
          "time": 160.99999999999957,
          "velocity": 0.7874015748031497,
          "duration": 0.1666666666666572
        },
        {
          "name": "C4",
          "midi": 60,
          "time": 161.3333333333329,
          "velocity": 0.7874015748031497,
          "duration": 0.1666666666666572
        },
        {
          "name": "C4",
          "midi": 60,
          "time": 161.6666666666662,
          "velocity": 0.7874015748031497,
          "duration": 0.1666666666666572
        },
        {
          "name": "C4",
          "midi": 60,
          "time": 161.99999999999952,
          "velocity": 0.7874015748031497,
          "duration": 0.1666666666666572
        },
        {
          "name": "C4",
          "midi": 60,
          "time": 162.33333333333283,
          "velocity": 0.7874015748031497,
          "duration": 0.1666666666666572
        },
        {
          "name": "C4",
          "midi": 60,
          "time": 162.66666666666615,
          "velocity": 0.7874015748031497,
          "duration": 0.1666666666666572
        },
        {
          "name": "C4",
          "midi": 60,
          "time": 162.99999999999946,
          "velocity": 0.7874015748031497,
          "duration": 0.1666666666666572
        },
        {
          "name": "C4",
          "midi": 60,
          "time": 163.33333333333277,
          "velocity": 0.7874015748031497,
          "duration": 0.1666666666666572
        },
        {
          "name": "C4",
          "midi": 60,
          "time": 163.6666666666661,
          "velocity": 0.7874015748031497,
          "duration": 0.1666666666666572
        },
        {
          "name": "C4",
          "midi": 60,
          "time": 163.9999999999994,
          "velocity": 0.7874015748031497,
          "duration": 0.1666666666666572
        },
        {
          "name": "C4",
          "midi": 60,
          "time": 164.33333333333272,
          "velocity": 0.7874015748031497,
          "duration": 0.1666666666666572
        },
        {
          "name": "C4",
          "midi": 60,
          "time": 164.66666666666603,
          "velocity": 0.7874015748031497,
          "duration": 0.1666666666666572
        },
        {
          "name": "C4",
          "midi": 60,
          "time": 164.99999999999935,
          "velocity": 0.7874015748031497,
          "duration": 0.1666666666666572
        },
        {
          "name": "C4",
          "midi": 60,
          "time": 165.33333333333266,
          "velocity": 0.7874015748031497,
          "duration": 0.1666666666666572
        },
        {
          "name": "C4",
          "midi": 60,
          "time": 165.66666666666598,
          "velocity": 0.7874015748031497,
          "duration": 0.1666666666666572
        },
        {
          "name": "C4",
          "midi": 60,
          "time": 165.9999999999993,
          "velocity": 0.7874015748031497,
          "duration": 0.1666666666666572
        },
        {
          "name": "C4",
          "midi": 60,
          "time": 166.3333333333326,
          "velocity": 0.7874015748031497,
          "duration": 0.1666666666666572
        },
        {
          "name": "C4",
          "midi": 60,
          "time": 166.66666666666592,
          "velocity": 0.7874015748031497,
          "duration": 0.1666666666666572
        },
        {
          "name": "C4",
          "midi": 60,
          "time": 166.99999999999923,
          "velocity": 0.7874015748031497,
          "duration": 0.1666666666666572
        },
        {
          "name": "C4",
          "midi": 60,
          "time": 167.33333333333255,
          "velocity": 0.7874015748031497,
          "duration": 0.1666666666666572
        },
        {
          "name": "C4",
          "midi": 60,
          "time": 167.66666666666586,
          "velocity": 0.7874015748031497,
          "duration": 0.1666666666666572
        },
        {
          "name": "C4",
          "midi": 60,
          "time": 167.99999999999918,
          "velocity": 0.7874015748031497,
          "duration": 0.1666666666666572
        },
        {
          "name": "C4",
          "midi": 60,
          "time": 168.3333333333325,
          "velocity": 0.7874015748031497,
          "duration": 0.1666666666666572
        },
        {
          "name": "C4",
          "midi": 60,
          "time": 168.6666666666658,
          "velocity": 0.7874015748031497,
          "duration": 0.1666666666666572
        },
        {
          "name": "C4",
          "midi": 60,
          "time": 168.99999999999912,
          "velocity": 0.7874015748031497,
          "duration": 0.1666666666666572
        },
        {
          "name": "C4",
          "midi": 60,
          "time": 169.33333333333243,
          "velocity": 0.7874015748031497,
          "duration": 0.1666666666666572
        },
        {
          "name": "C4",
          "midi": 60,
          "time": 169.66666666666575,
          "velocity": 0.7874015748031497,
          "duration": 0.1666666666666572
        },
        {
          "name": "C4",
          "midi": 60,
          "time": 169.99999999999906,
          "velocity": 0.7874015748031497,
          "duration": 0.1666666666666572
        },
        {
          "name": "C4",
          "midi": 60,
          "time": 170.33333333333238,
          "velocity": 0.7874015748031497,
          "duration": 0.1666666666666572
        },
        {
          "name": "C4",
          "midi": 60,
          "time": 170.6666666666657,
          "velocity": 0.7874015748031497,
          "duration": 0.1666666666666572
        },
        {
          "name": "C4",
          "midi": 60,
          "time": 170.999999999999,
          "velocity": 0.7874015748031497,
          "duration": 0.1666666666666572
        },
        {
          "name": "C4",
          "midi": 60,
          "time": 171.33333333333232,
          "velocity": 0.7874015748031497,
          "duration": 0.1666666666666572
        },
        {
          "name": "C4",
          "midi": 60,
          "time": 171.66666666666563,
          "velocity": 0.7874015748031497,
          "duration": 0.1666666666666572
        },
        {
          "name": "C4",
          "midi": 60,
          "time": 171.99999999999895,
          "velocity": 0.7874015748031497,
          "duration": 0.1666666666666572
        },
        {
          "name": "C4",
          "midi": 60,
          "time": 172.33333333333226,
          "velocity": 0.7874015748031497,
          "duration": 0.1666666666666572
        },
        {
          "name": "C4",
          "midi": 60,
          "time": 172.66666666666558,
          "velocity": 0.7874015748031497,
          "duration": 0.1666666666666572
        },
        {
          "name": "C4",
          "midi": 60,
          "time": 172.9999999999989,
          "velocity": 0.7874015748031497,
          "duration": 0.1666666666666572
        },
        {
          "name": "C4",
          "midi": 60,
          "time": 173.3333333333322,
          "velocity": 0.7874015748031497,
          "duration": 0.1666666666666572
        },
        {
          "name": "C4",
          "midi": 60,
          "time": 173.66666666666552,
          "velocity": 0.7874015748031497,
          "duration": 0.1666666666666572
        },
        {
          "name": "C4",
          "midi": 60,
          "time": 173.99999999999883,
          "velocity": 0.7874015748031497,
          "duration": 0.1666666666666572
        },
        {
          "name": "C4",
          "midi": 60,
          "time": 174.33333333333215,
          "velocity": 0.7874015748031497,
          "duration": 0.1666666666666572
        },
        {
          "name": "C4",
          "midi": 60,
          "time": 174.66666666666546,
          "velocity": 0.7874015748031497,
          "duration": 0.1666666666666572
        },
        {
          "name": "C4",
          "midi": 60,
          "time": 174.99999999999878,
          "velocity": 0.7874015748031497,
          "duration": 0.1666666666666572
        },
        {
          "name": "C4",
          "midi": 60,
          "time": 175.3333333333321,
          "velocity": 0.7874015748031497,
          "duration": 0.1666666666666572
        },
        {
          "name": "C4",
          "midi": 60,
          "time": 175.6666666666654,
          "velocity": 0.7874015748031497,
          "duration": 0.1666666666666572
        },
        {
          "name": "C4",
          "midi": 60,
          "time": 175.99999999999872,
          "velocity": 0.7874015748031497,
          "duration": 0.1666666666666572
        },
        {
          "name": "C4",
          "midi": 60,
          "time": 176.33333333333204,
          "velocity": 0.7874015748031497,
          "duration": 0.1666666666666572
        },
        {
          "name": "C4",
          "midi": 60,
          "time": 176.66666666666535,
          "velocity": 0.7874015748031497,
          "duration": 0.1666666666666572
        },
        {
          "name": "C4",
          "midi": 60,
          "time": 176.99999999999866,
          "velocity": 0.7874015748031497,
          "duration": 0.1666666666666572
        },
        {
          "name": "C4",
          "midi": 60,
          "time": 177.33333333333198,
          "velocity": 0.7874015748031497,
          "duration": 0.1666666666666572
        },
        {
          "name": "C4",
          "midi": 60,
          "time": 177.6666666666653,
          "velocity": 0.7874015748031497,
          "duration": 0.1666666666666572
        },
        {
          "name": "C4",
          "midi": 60,
          "time": 177.9999999999986,
          "velocity": 0.7874015748031497,
          "duration": 0.1666666666666572
        },
        {
          "name": "C4",
          "midi": 60,
          "time": 178.33333333333192,
          "velocity": 0.7874015748031497,
          "duration": 0.1666666666666572
        },
        {
          "name": "C4",
          "midi": 60,
          "time": 178.66666666666524,
          "velocity": 0.7874015748031497,
          "duration": 0.1666666666666572
        },
        {
          "name": "C4",
          "midi": 60,
          "time": 178.99999999999855,
          "velocity": 0.7874015748031497,
          "duration": 0.1666666666666572
        },
        {
          "name": "C4",
          "midi": 60,
          "time": 179.33333333333186,
          "velocity": 0.7874015748031497,
          "duration": 0.1666666666666572
        },
        {
          "name": "C4",
          "midi": 60,
          "time": 179.66666666666518,
          "velocity": 0.7874015748031497,
          "duration": 0.1666666666666572
        },
        {
          "name": "C4",
          "midi": 60,
          "time": 179.9999999999985,
          "velocity": 0.7874015748031497,
          "duration": 0.1666666666666572
        },
        {
          "name": "C4",
          "midi": 60,
          "time": 180.3333333333318,
          "velocity": 0.7874015748031497,
          "duration": 0.1666666666666572
        },
        {
          "name": "C4",
          "midi": 60,
          "time": 180.66666666666512,
          "velocity": 0.7874015748031497,
          "duration": 0.1666666666666572
        },
        {
          "name": "C4",
          "midi": 60,
          "time": 180.99999999999844,
          "velocity": 0.7874015748031497,
          "duration": 0.1666666666666572
        },
        {
          "name": "C4",
          "midi": 60,
          "time": 181.33333333333175,
          "velocity": 0.7874015748031497,
          "duration": 0.1666666666666572
        },
        {
          "name": "C4",
          "midi": 60,
          "time": 181.66666666666507,
          "velocity": 0.7874015748031497,
          "duration": 0.1666666666666572
        },
        {
          "name": "C4",
          "midi": 60,
          "time": 181.99999999999838,
          "velocity": 0.7874015748031497,
          "duration": 0.1666666666666572
        },
        {
          "name": "C4",
          "midi": 60,
          "time": 182.3333333333317,
          "velocity": 0.7874015748031497,
          "duration": 0.1666666666666572
        },
        {
          "name": "C4",
          "midi": 60,
          "time": 182.666666666665,
          "velocity": 0.7874015748031497,
          "duration": 0.1666666666666572
        },
        {
          "name": "C4",
          "midi": 60,
          "time": 182.99999999999832,
          "velocity": 0.7874015748031497,
          "duration": 0.1666666666666572
        },
        {
          "name": "C4",
          "midi": 60,
          "time": 183.33333333333164,
          "velocity": 0.7874015748031497,
          "duration": 0.1666666666666572
        },
        {
          "name": "C4",
          "midi": 60,
          "time": 183.66666666666495,
          "velocity": 0.7874015748031497,
          "duration": 0.1666666666666572
        },
        {
          "name": "C4",
          "midi": 60,
          "time": 183.99999999999827,
          "velocity": 0.7874015748031497,
          "duration": 0.1666666666666572
        },
        {
          "name": "C4",
          "midi": 60,
          "time": 184.33333333333158,
          "velocity": 0.7874015748031497,
          "duration": 0.1666666666666572
        },
        {
          "name": "C4",
          "midi": 60,
          "time": 184.6666666666649,
          "velocity": 0.7874015748031497,
          "duration": 0.1666666666666572
        },
        {
          "name": "C4",
          "midi": 60,
          "time": 184.9999999999982,
          "velocity": 0.7874015748031497,
          "duration": 0.1666666666666572
        },
        {
          "name": "C4",
          "midi": 60,
          "time": 185.33333333333152,
          "velocity": 0.7874015748031497,
          "duration": 0.1666666666666572
        },
        {
          "name": "C4",
          "midi": 60,
          "time": 185.66666666666484,
          "velocity": 0.7874015748031497,
          "duration": 0.1666666666666572
        },
        {
          "name": "C4",
          "midi": 60,
          "time": 185.99999999999815,
          "velocity": 0.7874015748031497,
          "duration": 0.1666666666666572
        },
        {
          "name": "C4",
          "midi": 60,
          "time": 186.33333333333147,
          "velocity": 0.7874015748031497,
          "duration": 0.1666666666666572
        },
        {
          "name": "C4",
          "midi": 60,
          "time": 186.66666666666478,
          "velocity": 0.7874015748031497,
          "duration": 0.1666666666666572
        },
        {
          "name": "C4",
          "midi": 60,
          "time": 186.9999999999981,
          "velocity": 0.7874015748031497,
          "duration": 0.1666666666666572
        },
        {
          "name": "C4",
          "midi": 60,
          "time": 187.3333333333314,
          "velocity": 0.7874015748031497,
          "duration": 0.1666666666666572
        },
        {
          "name": "C4",
          "midi": 60,
          "time": 187.66666666666472,
          "velocity": 0.7874015748031497,
          "duration": 0.1666666666666572
        },
        {
          "name": "C4",
          "midi": 60,
          "time": 187.99999999999804,
          "velocity": 0.7874015748031497,
          "duration": 0.1666666666666572
        },
        {
          "name": "C4",
          "midi": 60,
          "time": 188.33333333333135,
          "velocity": 0.7874015748031497,
          "duration": 0.1666666666666572
        },
        {
          "name": "C4",
          "midi": 60,
          "time": 188.66666666666467,
          "velocity": 0.7874015748031497,
          "duration": 0.1666666666666572
        },
        {
          "name": "C4",
          "midi": 60,
          "time": 188.99999999999798,
          "velocity": 0.7874015748031497,
          "duration": 0.1666666666666572
        },
        {
          "name": "C4",
          "midi": 60,
          "time": 189.3333333333313,
          "velocity": 0.7874015748031497,
          "duration": 0.1666666666666572
        },
        {
          "name": "C4",
          "midi": 60,
          "time": 189.6666666666646,
          "velocity": 0.7874015748031497,
          "duration": 0.1666666666666572
        },
        {
          "name": "C4",
          "midi": 60,
          "time": 189.99999999999793,
          "velocity": 0.7874015748031497,
          "duration": 0.1666666666666572
        },
        {
          "name": "C4",
          "midi": 60,
          "time": 190.33333333333124,
          "velocity": 0.7874015748031497,
          "duration": 0.1666666666666572
        },
        {
          "name": "C4",
          "midi": 60,
          "time": 190.66666666666455,
          "velocity": 0.7874015748031497,
          "duration": 0.1666666666666572
        },
        {
          "name": "C4",
          "midi": 60,
          "time": 190.99999999999787,
          "velocity": 0.7874015748031497,
          "duration": 0.1666666666666572
        },
        {
          "name": "C4",
          "midi": 60,
          "time": 191.33333333333118,
          "velocity": 0.7874015748031497,
          "duration": 0.1666666666666572
        },
        {
          "name": "C4",
          "midi": 60,
          "time": 191.6666666666645,
          "velocity": 0.7874015748031497,
          "duration": 0.1666666666666572
        }
      ],
      "controlChanges": {},
      "id": 0,
      "name": "3 4 hat",
      "channelNumber": 0,
      "isPercussion": false
    }
  ]
}