{
  "header": {
    "PPQ": 96,
    "timeSignature": [
      4,
      4
    ],
    "bpm": 120,
    "name": ""
  },
  "tempo": [],
  "timeSignature": [
    {
      "absoluteTime": 0,
      "seconds": 0,
      "numerator": 4,
      "denominator": 2,
      "click": 36,
      "notesQ": 8
    },
    {
      "absoluteTime": 0,
      "seconds": 0,
      "numerator": 4,
      "denominator": 2,
      "click": 36,
      "notesQ": 8
    }
  ],
  "startTime": 0,
  "duration": 191.625,
  "tracks": [
    {
      "startTime": 0,
      "duration": 191.625,
      "length": 384,
      "notes": [
        {
          "name": "B2",
          "midi": 47,
          "time": 0,
          "velocity": 0.7874015748031497,
          "duration": 0.125
        },
        {
          "name": "B2",
          "midi": 47,
          "time": 0.5,
          "velocity": 0.7874015748031497,
          "duration": 0.125
        },
        {
          "name": "B2",
          "midi": 47,
          "time": 1,
          "velocity": 0.7874015748031497,
          "duration": 0.125
        },
        {
          "name": "B2",
          "midi": 47,
          "time": 1.5,
          "velocity": 0.7874015748031497,
          "duration": 0.125
        },
        {
          "name": "B2",
          "midi": 47,
          "time": 2,
          "velocity": 0.7874015748031497,
          "duration": 0.125
        },
        {
          "name": "B2",
          "midi": 47,
          "time": 2.5,
          "velocity": 0.7874015748031497,
          "duration": 0.125
        },
        {
          "name": "B2",
          "midi": 47,
          "time": 3,
          "velocity": 0.7874015748031497,
          "duration": 0.125
        },
        {
          "name": "B2",
          "midi": 47,
          "time": 3.5,
          "velocity": 0.7874015748031497,
          "duration": 0.125
        },
        {
          "name": "B2",
          "midi": 47,
          "time": 4,
          "velocity": 0.7874015748031497,
          "duration": 0.125
        },
        {
          "name": "B2",
          "midi": 47,
          "time": 4.5,
          "velocity": 0.7874015748031497,
          "duration": 0.125
        },
        {
          "name": "B2",
          "midi": 47,
          "time": 5,
          "velocity": 0.7874015748031497,
          "duration": 0.125
        },
        {
          "name": "B2",
          "midi": 47,
          "time": 5.5,
          "velocity": 0.7874015748031497,
          "duration": 0.125
        },
        {
          "name": "B2",
          "midi": 47,
          "time": 6,
          "velocity": 0.7874015748031497,
          "duration": 0.125
        },
        {
          "name": "B2",
          "midi": 47,
          "time": 6.5,
          "velocity": 0.7874015748031497,
          "duration": 0.125
        },
        {
          "name": "B2",
          "midi": 47,
          "time": 7,
          "velocity": 0.7874015748031497,
          "duration": 0.125
        },
        {
          "name": "B2",
          "midi": 47,
          "time": 7.5,
          "velocity": 0.7874015748031497,
          "duration": 0.125
        },
        {
          "name": "B2",
          "midi": 47,
          "time": 8,
          "velocity": 0.7874015748031497,
          "duration": 0.125
        },
        {
          "name": "B2",
          "midi": 47,
          "time": 8.5,
          "velocity": 0.7874015748031497,
          "duration": 0.125
        },
        {
          "name": "B2",
          "midi": 47,
          "time": 9,
          "velocity": 0.7874015748031497,
          "duration": 0.125
        },
        {
          "name": "B2",
          "midi": 47,
          "time": 9.5,
          "velocity": 0.7874015748031497,
          "duration": 0.125
        },
        {
          "name": "B2",
          "midi": 47,
          "time": 10,
          "velocity": 0.7874015748031497,
          "duration": 0.125
        },
        {
          "name": "B2",
          "midi": 47,
          "time": 10.5,
          "velocity": 0.7874015748031497,
          "duration": 0.125
        },
        {
          "name": "B2",
          "midi": 47,
          "time": 11,
          "velocity": 0.7874015748031497,
          "duration": 0.125
        },
        {
          "name": "B2",
          "midi": 47,
          "time": 11.5,
          "velocity": 0.7874015748031497,
          "duration": 0.125
        },
        {
          "name": "B2",
          "midi": 47,
          "time": 12,
          "velocity": 0.7874015748031497,
          "duration": 0.125
        },
        {
          "name": "B2",
          "midi": 47,
          "time": 12.5,
          "velocity": 0.7874015748031497,
          "duration": 0.125
        },
        {
          "name": "B2",
          "midi": 47,
          "time": 13,
          "velocity": 0.7874015748031497,
          "duration": 0.125
        },
        {
          "name": "B2",
          "midi": 47,
          "time": 13.5,
          "velocity": 0.7874015748031497,
          "duration": 0.125
        },
        {
          "name": "B2",
          "midi": 47,
          "time": 14,
          "velocity": 0.7874015748031497,
          "duration": 0.125
        },
        {
          "name": "B2",
          "midi": 47,
          "time": 14.5,
          "velocity": 0.7874015748031497,
          "duration": 0.125
        },
        {
          "name": "B2",
          "midi": 47,
          "time": 15,
          "velocity": 0.7874015748031497,
          "duration": 0.125
        },
        {
          "name": "B2",
          "midi": 47,
          "time": 15.5,
          "velocity": 0.7874015748031497,
          "duration": 0.125
        },
        {
          "name": "B2",
          "midi": 47,
          "time": 16,
          "velocity": 0.7874015748031497,
          "duration": 0.125
        },
        {
          "name": "B2",
          "midi": 47,
          "time": 16.5,
          "velocity": 0.7874015748031497,
          "duration": 0.125
        },
        {
          "name": "B2",
          "midi": 47,
          "time": 17,
          "velocity": 0.7874015748031497,
          "duration": 0.125
        },
        {
          "name": "B2",
          "midi": 47,
          "time": 17.5,
          "velocity": 0.7874015748031497,
          "duration": 0.125
        },
        {
          "name": "B2",
          "midi": 47,
          "time": 18,
          "velocity": 0.7874015748031497,
          "duration": 0.125
        },
        {
          "name": "B2",
          "midi": 47,
          "time": 18.5,
          "velocity": 0.7874015748031497,
          "duration": 0.125
        },
        {
          "name": "B2",
          "midi": 47,
          "time": 19,
          "velocity": 0.7874015748031497,
          "duration": 0.125
        },
        {
          "name": "B2",
          "midi": 47,
          "time": 19.5,
          "velocity": 0.7874015748031497,
          "duration": 0.125
        },
        {
          "name": "B2",
          "midi": 47,
          "time": 20,
          "velocity": 0.7874015748031497,
          "duration": 0.125
        },
        {
          "name": "B2",
          "midi": 47,
          "time": 20.5,
          "velocity": 0.7874015748031497,
          "duration": 0.125
        },
        {
          "name": "B2",
          "midi": 47,
          "time": 21,
          "velocity": 0.7874015748031497,
          "duration": 0.125
        },
        {
          "name": "B2",
          "midi": 47,
          "time": 21.5,
          "velocity": 0.7874015748031497,
          "duration": 0.125
        },
        {
          "name": "B2",
          "midi": 47,
          "time": 22,
          "velocity": 0.7874015748031497,
          "duration": 0.125
        },
        {
          "name": "B2",
          "midi": 47,
          "time": 22.5,
          "velocity": 0.7874015748031497,
          "duration": 0.125
        },
        {
          "name": "B2",
          "midi": 47,
          "time": 23,
          "velocity": 0.7874015748031497,
          "duration": 0.125
        },
        {
          "name": "B2",
          "midi": 47,
          "time": 23.5,
          "velocity": 0.7874015748031497,
          "duration": 0.125
        },
        {
          "name": "B2",
          "midi": 47,
          "time": 24,
          "velocity": 0.7874015748031497,
          "duration": 0.125
        },
        {
          "name": "B2",
          "midi": 47,
          "time": 24.5,
          "velocity": 0.7874015748031497,
          "duration": 0.125
        },
        {
          "name": "B2",
          "midi": 47,
          "time": 25,
          "velocity": 0.7874015748031497,
          "duration": 0.125
        },
        {
          "name": "B2",
          "midi": 47,
          "time": 25.5,
          "velocity": 0.7874015748031497,
          "duration": 0.125
        },
        {
          "name": "B2",
          "midi": 47,
          "time": 26,
          "velocity": 0.7874015748031497,
          "duration": 0.125
        },
        {
          "name": "B2",
          "midi": 47,
          "time": 26.5,
          "velocity": 0.7874015748031497,
          "duration": 0.125
        },
        {
          "name": "B2",
          "midi": 47,
          "time": 27,
          "velocity": 0.7874015748031497,
          "duration": 0.125
        },
        {
          "name": "B2",
          "midi": 47,
          "time": 27.5,
          "velocity": 0.7874015748031497,
          "duration": 0.125
        },
        {
          "name": "B2",
          "midi": 47,
          "time": 28,
          "velocity": 0.7874015748031497,
          "duration": 0.125
        },
        {
          "name": "B2",
          "midi": 47,
          "time": 28.5,
          "velocity": 0.7874015748031497,
          "duration": 0.125
        },
        {
          "name": "B2",
          "midi": 47,
          "time": 29,
          "velocity": 0.7874015748031497,
          "duration": 0.125
        },
        {
          "name": "B2",
          "midi": 47,
          "time": 29.5,
          "velocity": 0.7874015748031497,
          "duration": 0.125
        },
        {
          "name": "B2",
          "midi": 47,
          "time": 30,
          "velocity": 0.7874015748031497,
          "duration": 0.125
        },
        {
          "name": "B2",
          "midi": 47,
          "time": 30.5,
          "velocity": 0.7874015748031497,
          "duration": 0.125
        },
        {
          "name": "B2",
          "midi": 47,
          "time": 31,
          "velocity": 0.7874015748031497,
          "duration": 0.125
        },
        {
          "name": "B2",
          "midi": 47,
          "time": 31.5,
          "velocity": 0.7874015748031497,
          "duration": 0.125
        },
        {
          "name": "B2",
          "midi": 47,
          "time": 32,
          "velocity": 0.7874015748031497,
          "duration": 0.125
        },
        {
          "name": "B2",
          "midi": 47,
          "time": 32.5,
          "velocity": 0.7874015748031497,
          "duration": 0.125
        },
        {
          "name": "B2",
          "midi": 47,
          "time": 33,
          "velocity": 0.7874015748031497,
          "duration": 0.125
        },
        {
          "name": "B2",
          "midi": 47,
          "time": 33.5,
          "velocity": 0.7874015748031497,
          "duration": 0.125
        },
        {
          "name": "B2",
          "midi": 47,
          "time": 34,
          "velocity": 0.7874015748031497,
          "duration": 0.125
        },
        {
          "name": "B2",
          "midi": 47,
          "time": 34.5,
          "velocity": 0.7874015748031497,
          "duration": 0.125
        },
        {
          "name": "B2",
          "midi": 47,
          "time": 35,
          "velocity": 0.7874015748031497,
          "duration": 0.125
        },
        {
          "name": "B2",
          "midi": 47,
          "time": 35.5,
          "velocity": 0.7874015748031497,
          "duration": 0.125
        },
        {
          "name": "B2",
          "midi": 47,
          "time": 36,
          "velocity": 0.7874015748031497,
          "duration": 0.125
        },
        {
          "name": "B2",
          "midi": 47,
          "time": 36.5,
          "velocity": 0.7874015748031497,
          "duration": 0.125
        },
        {
          "name": "B2",
          "midi": 47,
          "time": 37,
          "velocity": 0.7874015748031497,
          "duration": 0.125
        },
        {
          "name": "B2",
          "midi": 47,
          "time": 37.5,
          "velocity": 0.7874015748031497,
          "duration": 0.125
        },
        {
          "name": "B2",
          "midi": 47,
          "time": 38,
          "velocity": 0.7874015748031497,
          "duration": 0.125
        },
        {
          "name": "B2",
          "midi": 47,
          "time": 38.5,
          "velocity": 0.7874015748031497,
          "duration": 0.125
        },
        {
          "name": "B2",
          "midi": 47,
          "time": 39,
          "velocity": 0.7874015748031497,
          "duration": 0.125
        },
        {
          "name": "B2",
          "midi": 47,
          "time": 39.5,
          "velocity": 0.7874015748031497,
          "duration": 0.125
        },
        {
          "name": "B2",
          "midi": 47,
          "time": 40,
          "velocity": 0.7874015748031497,
          "duration": 0.125
        },
        {
          "name": "B2",
          "midi": 47,
          "time": 40.5,
          "velocity": 0.7874015748031497,
          "duration": 0.125
        },
        {
          "name": "B2",
          "midi": 47,
          "time": 41,
          "velocity": 0.7874015748031497,
          "duration": 0.125
        },
        {
          "name": "B2",
          "midi": 47,
          "time": 41.5,
          "velocity": 0.7874015748031497,
          "duration": 0.125
        },
        {
          "name": "B2",
          "midi": 47,
          "time": 42,
          "velocity": 0.7874015748031497,
          "duration": 0.125
        },
        {
          "name": "B2",
          "midi": 47,
          "time": 42.5,
          "velocity": 0.7874015748031497,
          "duration": 0.125
        },
        {
          "name": "B2",
          "midi": 47,
          "time": 43,
          "velocity": 0.7874015748031497,
          "duration": 0.125
        },
        {
          "name": "B2",
          "midi": 47,
          "time": 43.5,
          "velocity": 0.7874015748031497,
          "duration": 0.125
        },
        {
          "name": "B2",
          "midi": 47,
          "time": 44,
          "velocity": 0.7874015748031497,
          "duration": 0.125
        },
        {
          "name": "B2",
          "midi": 47,
          "time": 44.5,
          "velocity": 0.7874015748031497,
          "duration": 0.125
        },
        {
          "name": "B2",
          "midi": 47,
          "time": 45,
          "velocity": 0.7874015748031497,
          "duration": 0.125
        },
        {
          "name": "B2",
          "midi": 47,
          "time": 45.5,
          "velocity": 0.7874015748031497,
          "duration": 0.125
        },
        {
          "name": "B2",
          "midi": 47,
          "time": 46,
          "velocity": 0.7874015748031497,
          "duration": 0.125
        },
        {
          "name": "B2",
          "midi": 47,
          "time": 46.5,
          "velocity": 0.7874015748031497,
          "duration": 0.125
        },
        {
          "name": "B2",
          "midi": 47,
          "time": 47,
          "velocity": 0.7874015748031497,
          "duration": 0.125
        },
        {
          "name": "B2",
          "midi": 47,
          "time": 47.5,
          "velocity": 0.7874015748031497,
          "duration": 0.125
        },
        {
          "name": "B2",
          "midi": 47,
          "time": 48,
          "velocity": 0.7874015748031497,
          "duration": 0.125
        },
        {
          "name": "B2",
          "midi": 47,
          "time": 48.5,
          "velocity": 0.7874015748031497,
          "duration": 0.125
        },
        {
          "name": "B2",
          "midi": 47,
          "time": 49,
          "velocity": 0.7874015748031497,
          "duration": 0.125
        },
        {
          "name": "B2",
          "midi": 47,
          "time": 49.5,
          "velocity": 0.7874015748031497,
          "duration": 0.125
        },
        {
          "name": "B2",
          "midi": 47,
          "time": 50,
          "velocity": 0.7874015748031497,
          "duration": 0.125
        },
        {
          "name": "B2",
          "midi": 47,
          "time": 50.5,
          "velocity": 0.7874015748031497,
          "duration": 0.125
        },
        {
          "name": "B2",
          "midi": 47,
          "time": 51,
          "velocity": 0.7874015748031497,
          "duration": 0.125
        },
        {
          "name": "B2",
          "midi": 47,
          "time": 51.5,
          "velocity": 0.7874015748031497,
          "duration": 0.125
        },
        {
          "name": "B2",
          "midi": 47,
          "time": 52,
          "velocity": 0.7874015748031497,
          "duration": 0.125
        },
        {
          "name": "B2",
          "midi": 47,
          "time": 52.5,
          "velocity": 0.7874015748031497,
          "duration": 0.125
        },
        {
          "name": "B2",
          "midi": 47,
          "time": 53,
          "velocity": 0.7874015748031497,
          "duration": 0.125
        },
        {
          "name": "B2",
          "midi": 47,
          "time": 53.5,
          "velocity": 0.7874015748031497,
          "duration": 0.125
        },
        {
          "name": "B2",
          "midi": 47,
          "time": 54,
          "velocity": 0.7874015748031497,
          "duration": 0.125
        },
        {
          "name": "B2",
          "midi": 47,
          "time": 54.5,
          "velocity": 0.7874015748031497,
          "duration": 0.125
        },
        {
          "name": "B2",
          "midi": 47,
          "time": 55,
          "velocity": 0.7874015748031497,
          "duration": 0.125
        },
        {
          "name": "B2",
          "midi": 47,
          "time": 55.5,
          "velocity": 0.7874015748031497,
          "duration": 0.125
        },
        {
          "name": "B2",
          "midi": 47,
          "time": 56,
          "velocity": 0.7874015748031497,
          "duration": 0.125
        },
        {
          "name": "B2",
          "midi": 47,
          "time": 56.5,
          "velocity": 0.7874015748031497,
          "duration": 0.125
        },
        {
          "name": "B2",
          "midi": 47,
          "time": 57,
          "velocity": 0.7874015748031497,
          "duration": 0.125
        },
        {
          "name": "B2",
          "midi": 47,
          "time": 57.5,
          "velocity": 0.7874015748031497,
          "duration": 0.125
        },
        {
          "name": "B2",
          "midi": 47,
          "time": 58,
          "velocity": 0.7874015748031497,
          "duration": 0.125
        },
        {
          "name": "B2",
          "midi": 47,
          "time": 58.5,
          "velocity": 0.7874015748031497,
          "duration": 0.125
        },
        {
          "name": "B2",
          "midi": 47,
          "time": 59,
          "velocity": 0.7874015748031497,
          "duration": 0.125
        },
        {
          "name": "B2",
          "midi": 47,
          "time": 59.5,
          "velocity": 0.7874015748031497,
          "duration": 0.125
        },
        {
          "name": "B2",
          "midi": 47,
          "time": 60,
          "velocity": 0.7874015748031497,
          "duration": 0.125
        },
        {
          "name": "B2",
          "midi": 47,
          "time": 60.5,
          "velocity": 0.7874015748031497,
          "duration": 0.125
        },
        {
          "name": "B2",
          "midi": 47,
          "time": 61,
          "velocity": 0.7874015748031497,
          "duration": 0.125
        },
        {
          "name": "B2",
          "midi": 47,
          "time": 61.5,
          "velocity": 0.7874015748031497,
          "duration": 0.125
        },
        {
          "name": "B2",
          "midi": 47,
          "time": 62,
          "velocity": 0.7874015748031497,
          "duration": 0.125
        },
        {
          "name": "B2",
          "midi": 47,
          "time": 62.5,
          "velocity": 0.7874015748031497,
          "duration": 0.125
        },
        {
          "name": "B2",
          "midi": 47,
          "time": 63,
          "velocity": 0.7874015748031497,
          "duration": 0.125
        },
        {
          "name": "B2",
          "midi": 47,
          "time": 63.5,
          "velocity": 0.7874015748031497,
          "duration": 0.125
        },
        {
          "name": "B2",
          "midi": 47,
          "time": 64,
          "velocity": 0.7874015748031497,
          "duration": 0.125
        },
        {
          "name": "B2",
          "midi": 47,
          "time": 64.5,
          "velocity": 0.7874015748031497,
          "duration": 0.125
        },
        {
          "name": "B2",
          "midi": 47,
          "time": 65,
          "velocity": 0.7874015748031497,
          "duration": 0.125
        },
        {
          "name": "B2",
          "midi": 47,
          "time": 65.5,
          "velocity": 0.7874015748031497,
          "duration": 0.125
        },
        {
          "name": "B2",
          "midi": 47,
          "time": 66,
          "velocity": 0.7874015748031497,
          "duration": 0.125
        },
        {
          "name": "B2",
          "midi": 47,
          "time": 66.5,
          "velocity": 0.7874015748031497,
          "duration": 0.125
        },
        {
          "name": "B2",
          "midi": 47,
          "time": 67,
          "velocity": 0.7874015748031497,
          "duration": 0.125
        },
        {
          "name": "B2",
          "midi": 47,
          "time": 67.5,
          "velocity": 0.7874015748031497,
          "duration": 0.125
        },
        {
          "name": "B2",
          "midi": 47,
          "time": 68,
          "velocity": 0.7874015748031497,
          "duration": 0.125
        },
        {
          "name": "B2",
          "midi": 47,
          "time": 68.5,
          "velocity": 0.7874015748031497,
          "duration": 0.125
        },
        {
          "name": "B2",
          "midi": 47,
          "time": 69,
          "velocity": 0.7874015748031497,
          "duration": 0.125
        },
        {
          "name": "B2",
          "midi": 47,
          "time": 69.5,
          "velocity": 0.7874015748031497,
          "duration": 0.125
        },
        {
          "name": "B2",
          "midi": 47,
          "time": 70,
          "velocity": 0.7874015748031497,
          "duration": 0.125
        },
        {
          "name": "B2",
          "midi": 47,
          "time": 70.5,
          "velocity": 0.7874015748031497,
          "duration": 0.125
        },
        {
          "name": "B2",
          "midi": 47,
          "time": 71,
          "velocity": 0.7874015748031497,
          "duration": 0.125
        },
        {
          "name": "B2",
          "midi": 47,
          "time": 71.5,
          "velocity": 0.7874015748031497,
          "duration": 0.125
        },
        {
          "name": "B2",
          "midi": 47,
          "time": 72,
          "velocity": 0.7874015748031497,
          "duration": 0.125
        },
        {
          "name": "B2",
          "midi": 47,
          "time": 72.5,
          "velocity": 0.7874015748031497,
          "duration": 0.125
        },
        {
          "name": "B2",
          "midi": 47,
          "time": 73,
          "velocity": 0.7874015748031497,
          "duration": 0.125
        },
        {
          "name": "B2",
          "midi": 47,
          "time": 73.5,
          "velocity": 0.7874015748031497,
          "duration": 0.125
        },
        {
          "name": "B2",
          "midi": 47,
          "time": 74,
          "velocity": 0.7874015748031497,
          "duration": 0.125
        },
        {
          "name": "B2",
          "midi": 47,
          "time": 74.5,
          "velocity": 0.7874015748031497,
          "duration": 0.125
        },
        {
          "name": "B2",
          "midi": 47,
          "time": 75,
          "velocity": 0.7874015748031497,
          "duration": 0.125
        },
        {
          "name": "B2",
          "midi": 47,
          "time": 75.5,
          "velocity": 0.7874015748031497,
          "duration": 0.125
        },
        {
          "name": "B2",
          "midi": 47,
          "time": 76,
          "velocity": 0.7874015748031497,
          "duration": 0.125
        },
        {
          "name": "B2",
          "midi": 47,
          "time": 76.5,
          "velocity": 0.7874015748031497,
          "duration": 0.125
        },
        {
          "name": "B2",
          "midi": 47,
          "time": 77,
          "velocity": 0.7874015748031497,
          "duration": 0.125
        },
        {
          "name": "B2",
          "midi": 47,
          "time": 77.5,
          "velocity": 0.7874015748031497,
          "duration": 0.125
        },
        {
          "name": "B2",
          "midi": 47,
          "time": 78,
          "velocity": 0.7874015748031497,
          "duration": 0.125
        },
        {
          "name": "B2",
          "midi": 47,
          "time": 78.5,
          "velocity": 0.7874015748031497,
          "duration": 0.125
        },
        {
          "name": "B2",
          "midi": 47,
          "time": 79,
          "velocity": 0.7874015748031497,
          "duration": 0.125
        },
        {
          "name": "B2",
          "midi": 47,
          "time": 79.5,
          "velocity": 0.7874015748031497,
          "duration": 0.125
        },
        {
          "name": "B2",
          "midi": 47,
          "time": 80,
          "velocity": 0.7874015748031497,
          "duration": 0.125
        },
        {
          "name": "B2",
          "midi": 47,
          "time": 80.5,
          "velocity": 0.7874015748031497,
          "duration": 0.125
        },
        {
          "name": "B2",
          "midi": 47,
          "time": 81,
          "velocity": 0.7874015748031497,
          "duration": 0.125
        },
        {
          "name": "B2",
          "midi": 47,
          "time": 81.5,
          "velocity": 0.7874015748031497,
          "duration": 0.125
        },
        {
          "name": "B2",
          "midi": 47,
          "time": 82,
          "velocity": 0.7874015748031497,
          "duration": 0.125
        },
        {
          "name": "B2",
          "midi": 47,
          "time": 82.5,
          "velocity": 0.7874015748031497,
          "duration": 0.125
        },
        {
          "name": "B2",
          "midi": 47,
          "time": 83,
          "velocity": 0.7874015748031497,
          "duration": 0.125
        },
        {
          "name": "B2",
          "midi": 47,
          "time": 83.5,
          "velocity": 0.7874015748031497,
          "duration": 0.125
        },
        {
          "name": "B2",
          "midi": 47,
          "time": 84,
          "velocity": 0.7874015748031497,
          "duration": 0.125
        },
        {
          "name": "B2",
          "midi": 47,
          "time": 84.5,
          "velocity": 0.7874015748031497,
          "duration": 0.125
        },
        {
          "name": "B2",
          "midi": 47,
          "time": 85,
          "velocity": 0.7874015748031497,
          "duration": 0.125
        },
        {
          "name": "B2",
          "midi": 47,
          "time": 85.5,
          "velocity": 0.7874015748031497,
          "duration": 0.125
        },
        {
          "name": "B2",
          "midi": 47,
          "time": 86,
          "velocity": 0.7874015748031497,
          "duration": 0.125
        },
        {
          "name": "B2",
          "midi": 47,
          "time": 86.5,
          "velocity": 0.7874015748031497,
          "duration": 0.125
        },
        {
          "name": "B2",
          "midi": 47,
          "time": 87,
          "velocity": 0.7874015748031497,
          "duration": 0.125
        },
        {
          "name": "B2",
          "midi": 47,
          "time": 87.5,
          "velocity": 0.7874015748031497,
          "duration": 0.125
        },
        {
          "name": "B2",
          "midi": 47,
          "time": 88,
          "velocity": 0.7874015748031497,
          "duration": 0.125
        },
        {
          "name": "B2",
          "midi": 47,
          "time": 88.5,
          "velocity": 0.7874015748031497,
          "duration": 0.125
        },
        {
          "name": "B2",
          "midi": 47,
          "time": 89,
          "velocity": 0.7874015748031497,
          "duration": 0.125
        },
        {
          "name": "B2",
          "midi": 47,
          "time": 89.5,
          "velocity": 0.7874015748031497,
          "duration": 0.125
        },
        {
          "name": "B2",
          "midi": 47,
          "time": 90,
          "velocity": 0.7874015748031497,
          "duration": 0.125
        },
        {
          "name": "B2",
          "midi": 47,
          "time": 90.5,
          "velocity": 0.7874015748031497,
          "duration": 0.125
        },
        {
          "name": "B2",
          "midi": 47,
          "time": 91,
          "velocity": 0.7874015748031497,
          "duration": 0.125
        },
        {
          "name": "B2",
          "midi": 47,
          "time": 91.5,
          "velocity": 0.7874015748031497,
          "duration": 0.125
        },
        {
          "name": "B2",
          "midi": 47,
          "time": 92,
          "velocity": 0.7874015748031497,
          "duration": 0.125
        },
        {
          "name": "B2",
          "midi": 47,
          "time": 92.5,
          "velocity": 0.7874015748031497,
          "duration": 0.125
        },
        {
          "name": "B2",
          "midi": 47,
          "time": 93,
          "velocity": 0.7874015748031497,
          "duration": 0.125
        },
        {
          "name": "B2",
          "midi": 47,
          "time": 93.5,
          "velocity": 0.7874015748031497,
          "duration": 0.125
        },
        {
          "name": "B2",
          "midi": 47,
          "time": 94,
          "velocity": 0.7874015748031497,
          "duration": 0.125
        },
        {
          "name": "B2",
          "midi": 47,
          "time": 94.5,
          "velocity": 0.7874015748031497,
          "duration": 0.125
        },
        {
          "name": "B2",
          "midi": 47,
          "time": 95,
          "velocity": 0.7874015748031497,
          "duration": 0.125
        },
        {
          "name": "B2",
          "midi": 47,
          "time": 95.5,
          "velocity": 0.7874015748031497,
          "duration": 0.125
        },
        {
          "name": "B2",
          "midi": 47,
          "time": 96,
          "velocity": 0.7874015748031497,
          "duration": 0.125
        },
        {
          "name": "B2",
          "midi": 47,
          "time": 96.5,
          "velocity": 0.7874015748031497,
          "duration": 0.125
        },
        {
          "name": "B2",
          "midi": 47,
          "time": 97,
          "velocity": 0.7874015748031497,
          "duration": 0.125
        },
        {
          "name": "B2",
          "midi": 47,
          "time": 97.5,
          "velocity": 0.7874015748031497,
          "duration": 0.125
        },
        {
          "name": "B2",
          "midi": 47,
          "time": 98,
          "velocity": 0.7874015748031497,
          "duration": 0.125
        },
        {
          "name": "B2",
          "midi": 47,
          "time": 98.5,
          "velocity": 0.7874015748031497,
          "duration": 0.125
        },
        {
          "name": "B2",
          "midi": 47,
          "time": 99,
          "velocity": 0.7874015748031497,
          "duration": 0.125
        },
        {
          "name": "B2",
          "midi": 47,
          "time": 99.5,
          "velocity": 0.7874015748031497,
          "duration": 0.125
        },
        {
          "name": "B2",
          "midi": 47,
          "time": 100,
          "velocity": 0.7874015748031497,
          "duration": 0.125
        },
        {
          "name": "B2",
          "midi": 47,
          "time": 100.5,
          "velocity": 0.7874015748031497,
          "duration": 0.125
        },
        {
          "name": "B2",
          "midi": 47,
          "time": 101,
          "velocity": 0.7874015748031497,
          "duration": 0.125
        },
        {
          "name": "B2",
          "midi": 47,
          "time": 101.5,
          "velocity": 0.7874015748031497,
          "duration": 0.125
        },
        {
          "name": "B2",
          "midi": 47,
          "time": 102,
          "velocity": 0.7874015748031497,
          "duration": 0.125
        },
        {
          "name": "B2",
          "midi": 47,
          "time": 102.5,
          "velocity": 0.7874015748031497,
          "duration": 0.125
        },
        {
          "name": "B2",
          "midi": 47,
          "time": 103,
          "velocity": 0.7874015748031497,
          "duration": 0.125
        },
        {
          "name": "B2",
          "midi": 47,
          "time": 103.5,
          "velocity": 0.7874015748031497,
          "duration": 0.125
        },
        {
          "name": "B2",
          "midi": 47,
          "time": 104,
          "velocity": 0.7874015748031497,
          "duration": 0.125
        },
        {
          "name": "B2",
          "midi": 47,
          "time": 104.5,
          "velocity": 0.7874015748031497,
          "duration": 0.125
        },
        {
          "name": "B2",
          "midi": 47,
          "time": 105,
          "velocity": 0.7874015748031497,
          "duration": 0.125
        },
        {
          "name": "B2",
          "midi": 47,
          "time": 105.5,
          "velocity": 0.7874015748031497,
          "duration": 0.125
        },
        {
          "name": "B2",
          "midi": 47,
          "time": 106,
          "velocity": 0.7874015748031497,
          "duration": 0.125
        },
        {
          "name": "B2",
          "midi": 47,
          "time": 106.5,
          "velocity": 0.7874015748031497,
          "duration": 0.125
        },
        {
          "name": "B2",
          "midi": 47,
          "time": 107,
          "velocity": 0.7874015748031497,
          "duration": 0.125
        },
        {
          "name": "B2",
          "midi": 47,
          "time": 107.5,
          "velocity": 0.7874015748031497,
          "duration": 0.125
        },
        {
          "name": "B2",
          "midi": 47,
          "time": 108,
          "velocity": 0.7874015748031497,
          "duration": 0.125
        },
        {
          "name": "B2",
          "midi": 47,
          "time": 108.5,
          "velocity": 0.7874015748031497,
          "duration": 0.125
        },
        {
          "name": "B2",
          "midi": 47,
          "time": 109,
          "velocity": 0.7874015748031497,
          "duration": 0.125
        },
        {
          "name": "B2",
          "midi": 47,
          "time": 109.5,
          "velocity": 0.7874015748031497,
          "duration": 0.125
        },
        {
          "name": "B2",
          "midi": 47,
          "time": 110,
          "velocity": 0.7874015748031497,
          "duration": 0.125
        },
        {
          "name": "B2",
          "midi": 47,
          "time": 110.5,
          "velocity": 0.7874015748031497,
          "duration": 0.125
        },
        {
          "name": "B2",
          "midi": 47,
          "time": 111,
          "velocity": 0.7874015748031497,
          "duration": 0.125
        },
        {
          "name": "B2",
          "midi": 47,
          "time": 111.5,
          "velocity": 0.7874015748031497,
          "duration": 0.125
        },
        {
          "name": "B2",
          "midi": 47,
          "time": 112,
          "velocity": 0.7874015748031497,
          "duration": 0.125
        },
        {
          "name": "B2",
          "midi": 47,
          "time": 112.5,
          "velocity": 0.7874015748031497,
          "duration": 0.125
        },
        {
          "name": "B2",
          "midi": 47,
          "time": 113,
          "velocity": 0.7874015748031497,
          "duration": 0.125
        },
        {
          "name": "B2",
          "midi": 47,
          "time": 113.5,
          "velocity": 0.7874015748031497,
          "duration": 0.125
        },
        {
          "name": "B2",
          "midi": 47,
          "time": 114,
          "velocity": 0.7874015748031497,
          "duration": 0.125
        },
        {
          "name": "B2",
          "midi": 47,
          "time": 114.5,
          "velocity": 0.7874015748031497,
          "duration": 0.125
        },
        {
          "name": "B2",
          "midi": 47,
          "time": 115,
          "velocity": 0.7874015748031497,
          "duration": 0.125
        },
        {
          "name": "B2",
          "midi": 47,
          "time": 115.5,
          "velocity": 0.7874015748031497,
          "duration": 0.125
        },
        {
          "name": "B2",
          "midi": 47,
          "time": 116,
          "velocity": 0.7874015748031497,
          "duration": 0.125
        },
        {
          "name": "B2",
          "midi": 47,
          "time": 116.5,
          "velocity": 0.7874015748031497,
          "duration": 0.125
        },
        {
          "name": "B2",
          "midi": 47,
          "time": 117,
          "velocity": 0.7874015748031497,
          "duration": 0.125
        },
        {
          "name": "B2",
          "midi": 47,
          "time": 117.5,
          "velocity": 0.7874015748031497,
          "duration": 0.125
        },
        {
          "name": "B2",
          "midi": 47,
          "time": 118,
          "velocity": 0.7874015748031497,
          "duration": 0.125
        },
        {
          "name": "B2",
          "midi": 47,
          "time": 118.5,
          "velocity": 0.7874015748031497,
          "duration": 0.125
        },
        {
          "name": "B2",
          "midi": 47,
          "time": 119,
          "velocity": 0.7874015748031497,
          "duration": 0.125
        },
        {
          "name": "B2",
          "midi": 47,
          "time": 119.5,
          "velocity": 0.7874015748031497,
          "duration": 0.125
        },
        {
          "name": "B2",
          "midi": 47,
          "time": 120,
          "velocity": 0.7874015748031497,
          "duration": 0.125
        },
        {
          "name": "B2",
          "midi": 47,
          "time": 120.5,
          "velocity": 0.7874015748031497,
          "duration": 0.125
        },
        {
          "name": "B2",
          "midi": 47,
          "time": 121,
          "velocity": 0.7874015748031497,
          "duration": 0.125
        },
        {
          "name": "B2",
          "midi": 47,
          "time": 121.5,
          "velocity": 0.7874015748031497,
          "duration": 0.125
        },
        {
          "name": "B2",
          "midi": 47,
          "time": 122,
          "velocity": 0.7874015748031497,
          "duration": 0.125
        },
        {
          "name": "B2",
          "midi": 47,
          "time": 122.5,
          "velocity": 0.7874015748031497,
          "duration": 0.125
        },
        {
          "name": "B2",
          "midi": 47,
          "time": 123,
          "velocity": 0.7874015748031497,
          "duration": 0.125
        },
        {
          "name": "B2",
          "midi": 47,
          "time": 123.5,
          "velocity": 0.7874015748031497,
          "duration": 0.125
        },
        {
          "name": "B2",
          "midi": 47,
          "time": 124,
          "velocity": 0.7874015748031497,
          "duration": 0.125
        },
        {
          "name": "B2",
          "midi": 47,
          "time": 124.5,
          "velocity": 0.7874015748031497,
          "duration": 0.125
        },
        {
          "name": "B2",
          "midi": 47,
          "time": 125,
          "velocity": 0.7874015748031497,
          "duration": 0.125
        },
        {
          "name": "B2",
          "midi": 47,
          "time": 125.5,
          "velocity": 0.7874015748031497,
          "duration": 0.125
        },
        {
          "name": "B2",
          "midi": 47,
          "time": 126,
          "velocity": 0.7874015748031497,
          "duration": 0.125
        },
        {
          "name": "B2",
          "midi": 47,
          "time": 126.5,
          "velocity": 0.7874015748031497,
          "duration": 0.125
        },
        {
          "name": "B2",
          "midi": 47,
          "time": 127,
          "velocity": 0.7874015748031497,
          "duration": 0.125
        },
        {
          "name": "B2",
          "midi": 47,
          "time": 127.5,
          "velocity": 0.7874015748031497,
          "duration": 0.125
        },
        {
          "name": "B2",
          "midi": 47,
          "time": 128,
          "velocity": 0.7874015748031497,
          "duration": 0.125
        },
        {
          "name": "B2",
          "midi": 47,
          "time": 128.5,
          "velocity": 0.7874015748031497,
          "duration": 0.125
        },
        {
          "name": "B2",
          "midi": 47,
          "time": 129,
          "velocity": 0.7874015748031497,
          "duration": 0.125
        },
        {
          "name": "B2",
          "midi": 47,
          "time": 129.5,
          "velocity": 0.7874015748031497,
          "duration": 0.125
        },
        {
          "name": "B2",
          "midi": 47,
          "time": 130,
          "velocity": 0.7874015748031497,
          "duration": 0.125
        },
        {
          "name": "B2",
          "midi": 47,
          "time": 130.5,
          "velocity": 0.7874015748031497,
          "duration": 0.125
        },
        {
          "name": "B2",
          "midi": 47,
          "time": 131,
          "velocity": 0.7874015748031497,
          "duration": 0.125
        },
        {
          "name": "B2",
          "midi": 47,
          "time": 131.5,
          "velocity": 0.7874015748031497,
          "duration": 0.125
        },
        {
          "name": "B2",
          "midi": 47,
          "time": 132,
          "velocity": 0.7874015748031497,
          "duration": 0.125
        },
        {
          "name": "B2",
          "midi": 47,
          "time": 132.5,
          "velocity": 0.7874015748031497,
          "duration": 0.125
        },
        {
          "name": "B2",
          "midi": 47,
          "time": 133,
          "velocity": 0.7874015748031497,
          "duration": 0.125
        },
        {
          "name": "B2",
          "midi": 47,
          "time": 133.5,
          "velocity": 0.7874015748031497,
          "duration": 0.125
        },
        {
          "name": "B2",
          "midi": 47,
          "time": 134,
          "velocity": 0.7874015748031497,
          "duration": 0.125
        },
        {
          "name": "B2",
          "midi": 47,
          "time": 134.5,
          "velocity": 0.7874015748031497,
          "duration": 0.125
        },
        {
          "name": "B2",
          "midi": 47,
          "time": 135,
          "velocity": 0.7874015748031497,
          "duration": 0.125
        },
        {
          "name": "B2",
          "midi": 47,
          "time": 135.5,
          "velocity": 0.7874015748031497,
          "duration": 0.125
        },
        {
          "name": "B2",
          "midi": 47,
          "time": 136,
          "velocity": 0.7874015748031497,
          "duration": 0.125
        },
        {
          "name": "B2",
          "midi": 47,
          "time": 136.5,
          "velocity": 0.7874015748031497,
          "duration": 0.125
        },
        {
          "name": "B2",
          "midi": 47,
          "time": 137,
          "velocity": 0.7874015748031497,
          "duration": 0.125
        },
        {
          "name": "B2",
          "midi": 47,
          "time": 137.5,
          "velocity": 0.7874015748031497,
          "duration": 0.125
        },
        {
          "name": "B2",
          "midi": 47,
          "time": 138,
          "velocity": 0.7874015748031497,
          "duration": 0.125
        },
        {
          "name": "B2",
          "midi": 47,
          "time": 138.5,
          "velocity": 0.7874015748031497,
          "duration": 0.125
        },
        {
          "name": "B2",
          "midi": 47,
          "time": 139,
          "velocity": 0.7874015748031497,
          "duration": 0.125
        },
        {
          "name": "B2",
          "midi": 47,
          "time": 139.5,
          "velocity": 0.7874015748031497,
          "duration": 0.125
        },
        {
          "name": "B2",
          "midi": 47,
          "time": 140,
          "velocity": 0.7874015748031497,
          "duration": 0.125
        },
        {
          "name": "B2",
          "midi": 47,
          "time": 140.5,
          "velocity": 0.7874015748031497,
          "duration": 0.125
        },
        {
          "name": "B2",
          "midi": 47,
          "time": 141,
          "velocity": 0.7874015748031497,
          "duration": 0.125
        },
        {
          "name": "B2",
          "midi": 47,
          "time": 141.5,
          "velocity": 0.7874015748031497,
          "duration": 0.125
        },
        {
          "name": "B2",
          "midi": 47,
          "time": 142,
          "velocity": 0.7874015748031497,
          "duration": 0.125
        },
        {
          "name": "B2",
          "midi": 47,
          "time": 142.5,
          "velocity": 0.7874015748031497,
          "duration": 0.125
        },
        {
          "name": "B2",
          "midi": 47,
          "time": 143,
          "velocity": 0.7874015748031497,
          "duration": 0.125
        },
        {
          "name": "B2",
          "midi": 47,
          "time": 143.5,
          "velocity": 0.7874015748031497,
          "duration": 0.125
        },
        {
          "name": "B2",
          "midi": 47,
          "time": 144,
          "velocity": 0.7874015748031497,
          "duration": 0.125
        },
        {
          "name": "B2",
          "midi": 47,
          "time": 144.5,
          "velocity": 0.7874015748031497,
          "duration": 0.125
        },
        {
          "name": "B2",
          "midi": 47,
          "time": 145,
          "velocity": 0.7874015748031497,
          "duration": 0.125
        },
        {
          "name": "B2",
          "midi": 47,
          "time": 145.5,
          "velocity": 0.7874015748031497,
          "duration": 0.125
        },
        {
          "name": "B2",
          "midi": 47,
          "time": 146,
          "velocity": 0.7874015748031497,
          "duration": 0.125
        },
        {
          "name": "B2",
          "midi": 47,
          "time": 146.5,
          "velocity": 0.7874015748031497,
          "duration": 0.125
        },
        {
          "name": "B2",
          "midi": 47,
          "time": 147,
          "velocity": 0.7874015748031497,
          "duration": 0.125
        },
        {
          "name": "B2",
          "midi": 47,
          "time": 147.5,
          "velocity": 0.7874015748031497,
          "duration": 0.125
        },
        {
          "name": "B2",
          "midi": 47,
          "time": 148,
          "velocity": 0.7874015748031497,
          "duration": 0.125
        },
        {
          "name": "B2",
          "midi": 47,
          "time": 148.5,
          "velocity": 0.7874015748031497,
          "duration": 0.125
        },
        {
          "name": "B2",
          "midi": 47,
          "time": 149,
          "velocity": 0.7874015748031497,
          "duration": 0.125
        },
        {
          "name": "B2",
          "midi": 47,
          "time": 149.5,
          "velocity": 0.7874015748031497,
          "duration": 0.125
        },
        {
          "name": "B2",
          "midi": 47,
          "time": 150,
          "velocity": 0.7874015748031497,
          "duration": 0.125
        },
        {
          "name": "B2",
          "midi": 47,
          "time": 150.5,
          "velocity": 0.7874015748031497,
          "duration": 0.125
        },
        {
          "name": "B2",
          "midi": 47,
          "time": 151,
          "velocity": 0.7874015748031497,
          "duration": 0.125
        },
        {
          "name": "B2",
          "midi": 47,
          "time": 151.5,
          "velocity": 0.7874015748031497,
          "duration": 0.125
        },
        {
          "name": "B2",
          "midi": 47,
          "time": 152,
          "velocity": 0.7874015748031497,
          "duration": 0.125
        },
        {
          "name": "B2",
          "midi": 47,
          "time": 152.5,
          "velocity": 0.7874015748031497,
          "duration": 0.125
        },
        {
          "name": "B2",
          "midi": 47,
          "time": 153,
          "velocity": 0.7874015748031497,
          "duration": 0.125
        },
        {
          "name": "B2",
          "midi": 47,
          "time": 153.5,
          "velocity": 0.7874015748031497,
          "duration": 0.125
        },
        {
          "name": "B2",
          "midi": 47,
          "time": 154,
          "velocity": 0.7874015748031497,
          "duration": 0.125
        },
        {
          "name": "B2",
          "midi": 47,
          "time": 154.5,
          "velocity": 0.7874015748031497,
          "duration": 0.125
        },
        {
          "name": "B2",
          "midi": 47,
          "time": 155,
          "velocity": 0.7874015748031497,
          "duration": 0.125
        },
        {
          "name": "B2",
          "midi": 47,
          "time": 155.5,
          "velocity": 0.7874015748031497,
          "duration": 0.125
        },
        {
          "name": "B2",
          "midi": 47,
          "time": 156,
          "velocity": 0.7874015748031497,
          "duration": 0.125
        },
        {
          "name": "B2",
          "midi": 47,
          "time": 156.5,
          "velocity": 0.7874015748031497,
          "duration": 0.125
        },
        {
          "name": "B2",
          "midi": 47,
          "time": 157,
          "velocity": 0.7874015748031497,
          "duration": 0.125
        },
        {
          "name": "B2",
          "midi": 47,
          "time": 157.5,
          "velocity": 0.7874015748031497,
          "duration": 0.125
        },
        {
          "name": "B2",
          "midi": 47,
          "time": 158,
          "velocity": 0.7874015748031497,
          "duration": 0.125
        },
        {
          "name": "B2",
          "midi": 47,
          "time": 158.5,
          "velocity": 0.7874015748031497,
          "duration": 0.125
        },
        {
          "name": "B2",
          "midi": 47,
          "time": 159,
          "velocity": 0.7874015748031497,
          "duration": 0.125
        },
        {
          "name": "B2",
          "midi": 47,
          "time": 159.5,
          "velocity": 0.7874015748031497,
          "duration": 0.125
        },
        {
          "name": "B2",
          "midi": 47,
          "time": 160,
          "velocity": 0.7874015748031497,
          "duration": 0.125
        },
        {
          "name": "B2",
          "midi": 47,
          "time": 160.5,
          "velocity": 0.7874015748031497,
          "duration": 0.125
        },
        {
          "name": "B2",
          "midi": 47,
          "time": 161,
          "velocity": 0.7874015748031497,
          "duration": 0.125
        },
        {
          "name": "B2",
          "midi": 47,
          "time": 161.5,
          "velocity": 0.7874015748031497,
          "duration": 0.125
        },
        {
          "name": "B2",
          "midi": 47,
          "time": 162,
          "velocity": 0.7874015748031497,
          "duration": 0.125
        },
        {
          "name": "B2",
          "midi": 47,
          "time": 162.5,
          "velocity": 0.7874015748031497,
          "duration": 0.125
        },
        {
          "name": "B2",
          "midi": 47,
          "time": 163,
          "velocity": 0.7874015748031497,
          "duration": 0.125
        },
        {
          "name": "B2",
          "midi": 47,
          "time": 163.5,
          "velocity": 0.7874015748031497,
          "duration": 0.125
        },
        {
          "name": "B2",
          "midi": 47,
          "time": 164,
          "velocity": 0.7874015748031497,
          "duration": 0.125
        },
        {
          "name": "B2",
          "midi": 47,
          "time": 164.5,
          "velocity": 0.7874015748031497,
          "duration": 0.125
        },
        {
          "name": "B2",
          "midi": 47,
          "time": 165,
          "velocity": 0.7874015748031497,
          "duration": 0.125
        },
        {
          "name": "B2",
          "midi": 47,
          "time": 165.5,
          "velocity": 0.7874015748031497,
          "duration": 0.125
        },
        {
          "name": "B2",
          "midi": 47,
          "time": 166,
          "velocity": 0.7874015748031497,
          "duration": 0.125
        },
        {
          "name": "B2",
          "midi": 47,
          "time": 166.5,
          "velocity": 0.7874015748031497,
          "duration": 0.125
        },
        {
          "name": "B2",
          "midi": 47,
          "time": 167,
          "velocity": 0.7874015748031497,
          "duration": 0.125
        },
        {
          "name": "B2",
          "midi": 47,
          "time": 167.5,
          "velocity": 0.7874015748031497,
          "duration": 0.125
        },
        {
          "name": "B2",
          "midi": 47,
          "time": 168,
          "velocity": 0.7874015748031497,
          "duration": 0.125
        },
        {
          "name": "B2",
          "midi": 47,
          "time": 168.5,
          "velocity": 0.7874015748031497,
          "duration": 0.125
        },
        {
          "name": "B2",
          "midi": 47,
          "time": 169,
          "velocity": 0.7874015748031497,
          "duration": 0.125
        },
        {
          "name": "B2",
          "midi": 47,
          "time": 169.5,
          "velocity": 0.7874015748031497,
          "duration": 0.125
        },
        {
          "name": "B2",
          "midi": 47,
          "time": 170,
          "velocity": 0.7874015748031497,
          "duration": 0.125
        },
        {
          "name": "B2",
          "midi": 47,
          "time": 170.5,
          "velocity": 0.7874015748031497,
          "duration": 0.125
        },
        {
          "name": "B2",
          "midi": 47,
          "time": 171,
          "velocity": 0.7874015748031497,
          "duration": 0.125
        },
        {
          "name": "B2",
          "midi": 47,
          "time": 171.5,
          "velocity": 0.7874015748031497,
          "duration": 0.125
        },
        {
          "name": "B2",
          "midi": 47,
          "time": 172,
          "velocity": 0.7874015748031497,
          "duration": 0.125
        },
        {
          "name": "B2",
          "midi": 47,
          "time": 172.5,
          "velocity": 0.7874015748031497,
          "duration": 0.125
        },
        {
          "name": "B2",
          "midi": 47,
          "time": 173,
          "velocity": 0.7874015748031497,
          "duration": 0.125
        },
        {
          "name": "B2",
          "midi": 47,
          "time": 173.5,
          "velocity": 0.7874015748031497,
          "duration": 0.125
        },
        {
          "name": "B2",
          "midi": 47,
          "time": 174,
          "velocity": 0.7874015748031497,
          "duration": 0.125
        },
        {
          "name": "B2",
          "midi": 47,
          "time": 174.5,
          "velocity": 0.7874015748031497,
          "duration": 0.125
        },
        {
          "name": "B2",
          "midi": 47,
          "time": 175,
          "velocity": 0.7874015748031497,
          "duration": 0.125
        },
        {
          "name": "B2",
          "midi": 47,
          "time": 175.5,
          "velocity": 0.7874015748031497,
          "duration": 0.125
        },
        {
          "name": "B2",
          "midi": 47,
          "time": 176,
          "velocity": 0.7874015748031497,
          "duration": 0.125
        },
        {
          "name": "B2",
          "midi": 47,
          "time": 176.5,
          "velocity": 0.7874015748031497,
          "duration": 0.125
        },
        {
          "name": "B2",
          "midi": 47,
          "time": 177,
          "velocity": 0.7874015748031497,
          "duration": 0.125
        },
        {
          "name": "B2",
          "midi": 47,
          "time": 177.5,
          "velocity": 0.7874015748031497,
          "duration": 0.125
        },
        {
          "name": "B2",
          "midi": 47,
          "time": 178,
          "velocity": 0.7874015748031497,
          "duration": 0.125
        },
        {
          "name": "B2",
          "midi": 47,
          "time": 178.5,
          "velocity": 0.7874015748031497,
          "duration": 0.125
        },
        {
          "name": "B2",
          "midi": 47,
          "time": 179,
          "velocity": 0.7874015748031497,
          "duration": 0.125
        },
        {
          "name": "B2",
          "midi": 47,
          "time": 179.5,
          "velocity": 0.7874015748031497,
          "duration": 0.125
        },
        {
          "name": "B2",
          "midi": 47,
          "time": 180,
          "velocity": 0.7874015748031497,
          "duration": 0.125
        },
        {
          "name": "B2",
          "midi": 47,
          "time": 180.5,
          "velocity": 0.7874015748031497,
          "duration": 0.125
        },
        {
          "name": "B2",
          "midi": 47,
          "time": 181,
          "velocity": 0.7874015748031497,
          "duration": 0.125
        },
        {
          "name": "B2",
          "midi": 47,
          "time": 181.5,
          "velocity": 0.7874015748031497,
          "duration": 0.125
        },
        {
          "name": "B2",
          "midi": 47,
          "time": 182,
          "velocity": 0.7874015748031497,
          "duration": 0.125
        },
        {
          "name": "B2",
          "midi": 47,
          "time": 182.5,
          "velocity": 0.7874015748031497,
          "duration": 0.125
        },
        {
          "name": "B2",
          "midi": 47,
          "time": 183,
          "velocity": 0.7874015748031497,
          "duration": 0.125
        },
        {
          "name": "B2",
          "midi": 47,
          "time": 183.5,
          "velocity": 0.7874015748031497,
          "duration": 0.125
        },
        {
          "name": "B2",
          "midi": 47,
          "time": 184,
          "velocity": 0.7874015748031497,
          "duration": 0.125
        },
        {
          "name": "B2",
          "midi": 47,
          "time": 184.5,
          "velocity": 0.7874015748031497,
          "duration": 0.125
        },
        {
          "name": "B2",
          "midi": 47,
          "time": 185,
          "velocity": 0.7874015748031497,
          "duration": 0.125
        },
        {
          "name": "B2",
          "midi": 47,
          "time": 185.5,
          "velocity": 0.7874015748031497,
          "duration": 0.125
        },
        {
          "name": "B2",
          "midi": 47,
          "time": 186,
          "velocity": 0.7874015748031497,
          "duration": 0.125
        },
        {
          "name": "B2",
          "midi": 47,
          "time": 186.5,
          "velocity": 0.7874015748031497,
          "duration": 0.125
        },
        {
          "name": "B2",
          "midi": 47,
          "time": 187,
          "velocity": 0.7874015748031497,
          "duration": 0.125
        },
        {
          "name": "B2",
          "midi": 47,
          "time": 187.5,
          "velocity": 0.7874015748031497,
          "duration": 0.125
        },
        {
          "name": "B2",
          "midi": 47,
          "time": 188,
          "velocity": 0.7874015748031497,
          "duration": 0.125
        },
        {
          "name": "B2",
          "midi": 47,
          "time": 188.5,
          "velocity": 0.7874015748031497,
          "duration": 0.125
        },
        {
          "name": "B2",
          "midi": 47,
          "time": 189,
          "velocity": 0.7874015748031497,
          "duration": 0.125
        },
        {
          "name": "B2",
          "midi": 47,
          "time": 189.5,
          "velocity": 0.7874015748031497,
          "duration": 0.125
        },
        {
          "name": "B2",
          "midi": 47,
          "time": 190,
          "velocity": 0.7874015748031497,
          "duration": 0.125
        },
        {
          "name": "B2",
          "midi": 47,
          "time": 190.5,
          "velocity": 0.7874015748031497,
          "duration": 0.125
        },
        {
          "name": "B2",
          "midi": 47,
          "time": 191,
          "velocity": 0.7874015748031497,
          "duration": 0.125
        },
        {
          "name": "B2",
          "midi": 47,
          "time": 191.5,
          "velocity": 0.7874015748031497,
          "duration": 0.125
        }
      ],
      "controlChanges": {},
      "id": 0,
      "name": "kick",
      "channelNumber": 0,
      "isPercussion": false
    }
  ]
}